solid AutoCAD
   facet normal 6.9380772e-001 7.2016030e-001 -0.0000000e+000
      outer loop
         vertex 3.9580935e+001 2.5466974e+001 5.0000010e+000
         vertex 3.9580935e+001 2.5466974e+001 8.0000010e+000
         vertex 3.9616516e+001 2.5432695e+001 5.0000010e+000
      endloop
   endfacet
   facet normal 6.9380772e-001 7.2016030e-001 -1.6443403e-015
      outer loop
         vertex 3.9616516e+001 2.5432695e+001 5.0000010e+000
         vertex 3.9580935e+001 2.5466974e+001 8.0000010e+000
         vertex 3.9616516e+001 2.5432695e+001 8.0000010e+000
      endloop
   endfacet
   facet normal 6.9915652e-001 7.1496865e-001 -1.6559353e-015
      outer loop
         vertex 3.9616516e+001 2.5432695e+001 5.0000010e+000
         vertex 3.9616516e+001 2.5432695e+001 8.0000010e+000
         vertex 3.9651841e+001 2.5398151e+001 5.0000010e+000
      endloop
   endfacet
   facet normal 6.9915652e-001 7.1496865e-001 -1.6560438e-015
      outer loop
         vertex 3.9651841e+001 2.5398151e+001 5.0000010e+000
         vertex 3.9616516e+001 2.5432695e+001 8.0000010e+000
         vertex 3.9651841e+001 2.5398151e+001 8.0000010e+000
      endloop
   endfacet
   facet normal 7.0446647e-001 7.0973727e-001 -1.6685118e-015
      outer loop
         vertex 3.9651841e+001 2.5398151e+001 5.0000010e+000
         vertex 3.9651841e+001 2.5398151e+001 8.0000010e+000
         vertex 3.9686908e+001 2.5363345e+001 5.0000010e+000
      endloop
   endfacet
   facet normal 7.0446647e-001 7.0973727e-001 0.0000000e+000
      outer loop
         vertex 3.9686908e+001 2.5363345e+001 5.0000010e+000
         vertex 3.9651841e+001 2.5398151e+001 8.0000010e+000
         vertex 3.9686908e+001 2.5363345e+001 8.0000010e+000
      endloop
   endfacet
   facet normal 7.0710678e-001 -7.0710678e-001 1.6747653e-015
      outer loop
         vertex 2.5311229e+001 1.8947268e+001 8.0000010e+000
         vertex 2.5311229e+001 1.8947268e+001 5.0000010e+000
         vertex 3.1125000e+001 2.4761039e+001 8.0000010e+000
      endloop
   endfacet
   facet normal 7.0710678e-001 -7.0710678e-001 -1.7284120e-015
      outer loop
         vertex 3.1125000e+001 2.4761039e+001 8.0000010e+000
         vertex 2.5311229e+001 1.8947268e+001 5.0000010e+000
         vertex 3.1125000e+001 2.4761039e+001 5.0000010e+000
      endloop
   endfacet
   facet normal 7.0710678e-001 7.0710678e-001 -3.3495306e-015
      outer loop
         vertex 4.5550342e+001 1.9499910e+001 8.0000010e+000
         vertex 4.5550342e+001 1.9499910e+001 5.0000010e+000
         vertex 3.9686908e+001 2.5363345e+001 8.0000010e+000
      endloop
   endfacet
   facet normal 7.0710678e-001 7.0710678e-001 0.0000000e+000
      outer loop
         vertex 3.9686908e+001 2.5363345e+001 8.0000010e+000
         vertex 4.5550342e+001 1.9499910e+001 5.0000010e+000
         vertex 3.9686908e+001 2.5363345e+001 5.0000010e+000
      endloop
   endfacet
   facet normal -7.0710678e-001 7.0710678e-001 1.6747653e-015
      outer loop
         vertex 2.4449658e+001 1.9499910e+001 5.0000010e+000
         vertex 2.4449658e+001 1.9499910e+001 8.0000010e+000
         vertex 3.0313092e+001 2.5363345e+001 5.0000010e+000
      endloop
   endfacet
   facet normal -7.0710678e-001 7.0710678e-001 0.0000000e+000
      outer loop
         vertex 3.0313092e+001 2.5363345e+001 5.0000010e+000
         vertex 2.4449658e+001 1.9499910e+001 8.0000010e+000
         vertex 3.0313092e+001 2.5363345e+001 8.0000010e+000
      endloop
   endfacet
   facet normal 1.0197071e-001 9.9478740e-001 -1.8654582e-015
      outer loop
         vertex 3.6504263e+001 2.7131776e+001 5.0000010e+000
         vertex 3.4836668e+001 2.7302713e+001 5.0000010e+000
         vertex 3.6504263e+001 2.7131776e+001 8.0000010e+000
      endloop
   endfacet
   facet normal 1.0197071e-001 9.9478740e-001 -0.0000000e+000
      outer loop
         vertex 3.6504263e+001 2.7131776e+001 8.0000010e+000
         vertex 3.4836668e+001 2.7302713e+001 5.0000010e+000
         vertex 3.4836668e+001 2.7302713e+001 8.0000010e+000
      endloop
   endfacet
   facet normal -1.5085828e-001 9.8855540e-001 0.0000000e+000
      outer loop
         vertex 3.4836668e+001 2.7302713e+001 8.0000010e+000
         vertex 3.4836668e+001 2.7302713e+001 5.0000010e+000
         vertex 3.3179521e+001 2.7049824e+001 5.0000010e+000
      endloop
   endfacet
   facet normal -1.5085828e-001 9.8855540e-001 3.5730419e-016
      outer loop
         vertex 3.4836668e+001 2.7302713e+001 8.0000010e+000
         vertex 3.3179521e+001 2.7049824e+001 5.0000010e+000
         vertex 3.3179521e+001 2.7049824e+001 8.0000010e+000
      endloop
   endfacet
   facet normal -3.9403818e-001 9.1909407e-001 9.3326988e-016
      outer loop
         vertex 3.3179521e+001 2.7049824e+001 8.0000010e+000
         vertex 3.3179521e+001 2.7049824e+001 5.0000010e+000
         vertex 3.1638814e+001 2.6389285e+001 5.0000010e+000
      endloop
   endfacet
   facet normal -3.9403818e-001 9.1909407e-001 1.3999048e-015
      outer loop
         vertex 3.3179521e+001 2.7049824e+001 8.0000010e+000
         vertex 3.1638814e+001 2.6389285e+001 5.0000010e+000
         vertex 3.1638814e+001 2.6389285e+001 8.0000010e+000
      endloop
   endfacet
   facet normal -6.1201486e-001 7.9084626e-001 2.1743136e-015
      outer loop
         vertex 3.1638814e+001 2.6389285e+001 8.0000010e+000
         vertex 3.1638814e+001 2.6389285e+001 5.0000010e+000
         vertex 3.0313092e+001 2.5363345e+001 8.0000010e+000
      endloop
   endfacet
   facet normal -6.1201486e-001 7.9084626e-001 -4.4152857e-016
      outer loop
         vertex 3.0313092e+001 2.5363345e+001 8.0000010e+000
         vertex 3.1638814e+001 2.6389285e+001 5.0000010e+000
         vertex 3.0313092e+001 2.5363345e+001 5.0000010e+000
      endloop
   endfacet
   facet normal 7.0710678e-001 -7.0710678e-001 -1.6747653e-015
      outer loop
         vertex 3.5000000e+001 2.0886039e+001 8.0000010e+000
         vertex 3.5000000e+001 2.0886039e+001 5.0000010e+000
         vertex 3.8875000e+001 2.4761039e+001 8.0000010e+000
      endloop
   endfacet
   facet normal 7.0710678e-001 -7.0710678e-001 1.7287900e-015
      outer loop
         vertex 3.8875000e+001 2.4761039e+001 8.0000010e+000
         vertex 3.5000000e+001 2.0886039e+001 5.0000010e+000
         vertex 3.8875000e+001 2.4761039e+001 5.0000010e+000
      endloop
   endfacet
   facet normal -7.0710678e-001 -7.0710678e-001 1.6747653e-015
      outer loop
         vertex 3.1125000e+001 2.4761039e+001 8.0000010e+000
         vertex 3.1125000e+001 2.4761039e+001 5.0000010e+000
         vertex 3.5000000e+001 2.0886039e+001 8.0000010e+000
      endloop
   endfacet
   facet normal -7.0710678e-001 -7.0710678e-001 5.0783206e-015
      outer loop
         vertex 3.5000000e+001 2.0886039e+001 8.0000010e+000
         vertex 3.1125000e+001 2.4761039e+001 5.0000010e+000
         vertex 3.5000000e+001 2.0886039e+001 5.0000010e+000
      endloop
   endfacet
   facet normal -7.0710678e-001 -7.0710678e-001 3.3495306e-015
      outer loop
         vertex 4.4688771e+001 1.8947268e+001 5.0000010e+000
         vertex 4.4688771e+001 1.8947268e+001 8.0000010e+000
         vertex 3.8875000e+001 2.4761039e+001 5.0000010e+000
      endloop
   endfacet
   facet normal -7.0710678e-001 -7.0710678e-001 1.7284120e-015
      outer loop
         vertex 3.8875000e+001 2.4761039e+001 5.0000010e+000
         vertex 4.4688771e+001 1.8947268e+001 8.0000010e+000
         vertex 3.8875000e+001 2.4761039e+001 8.0000010e+000
      endloop
   endfacet
   facet normal -7.0710678e-001 -7.0710678e-001 -1.7678385e-015
      outer loop
         vertex 3.6504263e+001 2.7131776e+001 8.0000010e+000
         vertex 2.5136039e+001 3.8500000e+001 8.0000010e+000
         vertex 3.6504263e+001 2.7131776e+001 5.0000010e+000
      endloop
   endfacet
   facet normal -7.0710678e-001 -7.0710678e-001 8.3741652e-030
      outer loop
         vertex 3.6504263e+001 2.7131776e+001 5.0000010e+000
         vertex 2.5136039e+001 3.8500000e+001 8.0000010e+000
         vertex 2.5136039e+001 3.8500000e+001 5.0000010e+000
      endloop
   endfacet
   facet normal 0.0000000e+000 0.0000000e+000 1.0000000e+000
      outer loop
         vertex 4.4688771e+001 1.8947268e+001 8.0000010e+000
         vertex 3.9686908e+001 2.5363345e+001 8.0000010e+000
         vertex 3.8875000e+001 2.4761039e+001 8.0000010e+000
      endloop
   endfacet
   facet normal 0.0000000e+000 -0.0000000e+000 1.0000000e+000
      outer loop
         vertex 3.8875000e+001 2.4761039e+001 8.0000010e+000
         vertex 3.9686908e+001 2.5363345e+001 8.0000010e+000
         vertex 3.9651841e+001 2.5398151e+001 8.0000010e+000
      endloop
   endfacet
   facet normal 0.0000000e+000 -0.0000000e+000 1.0000000e+000
      outer loop
         vertex 3.8875000e+001 2.4761039e+001 8.0000010e+000
         vertex 3.9651841e+001 2.5398151e+001 8.0000010e+000
         vertex 3.9616516e+001 2.5432695e+001 8.0000010e+000
      endloop
   endfacet
   facet normal -0.0000000e+000 0.0000000e+000 1.0000000e+000
      outer loop
         vertex 4.2091756e+001 1.7642883e+001 8.0000010e+000
         vertex 4.2933485e+001 1.6913477e+001 8.0000010e+000
         vertex 4.4688771e+001 1.8947268e+001 8.0000010e+000
      endloop
   endfacet
   facet normal -0.0000000e+000 0.0000000e+000 1.0000000e+000
      outer loop
         vertex 4.4688771e+001 1.8947268e+001 8.0000010e+000
         vertex 4.2933485e+001 1.6913477e+001 8.0000010e+000
         vertex 4.5802226e+001 1.8465962e+001 8.0000010e+000
      endloop
   endfacet
   facet normal 8.3005120e-016 1.9202444e-015 1.0000000e+000
      outer loop
         vertex 4.4688771e+001 1.8947268e+001 8.0000010e+000
         vertex 4.5802226e+001 1.8465962e+001 8.0000010e+000
         vertex 4.5550342e+001 1.9499910e+001 8.0000010e+000
      endloop
   endfacet
   facet normal -1.1240625e-015 1.4441956e-015 1.0000000e+000
      outer loop
         vertex 4.5550342e+001 1.9499910e+001 8.0000010e+000
         vertex 4.5802226e+001 1.8465962e+001 8.0000010e+000
         vertex 4.8376311e+001 2.0469453e+001 8.0000010e+000
      endloop
   endfacet
   facet normal -5.4971713e-016 -2.2987479e-016 1.0000000e+000
      outer loop
         vertex 4.5550342e+001 1.9499910e+001 8.0000010e+000
         vertex 4.8376311e+001 2.0469453e+001 8.0000010e+000
         vertex 4.7964465e+001 2.1454331e+001 8.0000010e+000
      endloop
   endfacet
   facet normal -5.5290751e-016 -2.3120891e-016 1.0000000e+000
      outer loop
         vertex 4.7964465e+001 2.1454331e+001 8.0000010e+000
         vertex 4.8376311e+001 2.0469453e+001 8.0000010e+000
         vertex 5.0585525e+001 2.2869299e+001 8.0000010e+000
      endloop
   endfacet
   facet normal -1.2975647e-015 1.1481802e-015 1.0000000e+000
      outer loop
         vertex 4.7964465e+001 2.1454331e+001 8.0000010e+000
         vertex 5.0585525e+001 2.2869299e+001 8.0000010e+000
         vertex 5.0022811e+001 2.3780479e+001 8.0000010e+000
      endloop
   endfacet
   facet normal -1.5339634e-015 1.0021883e-015 1.0000000e+000
      outer loop
         vertex 5.0022811e+001 2.3780479e+001 8.0000010e+000
         vertex 5.0585525e+001 2.2869299e+001 8.0000010e+000
         vertex 5.2369607e+001 2.5600039e+001 8.0000010e+000
      endloop
   endfacet
   facet normal -1.4684234e-015 9.1765748e-016 1.0000000e+000
      outer loop
         vertex 5.0022811e+001 2.3780479e+001 8.0000010e+000
         vertex 5.2369607e+001 2.5600039e+001 8.0000010e+000
         vertex 5.1668893e+001 2.6414518e+001 8.0000010e+000
      endloop
   endfacet
   facet normal -1.6790127e-015 7.3648324e-016 1.0000000e+000
      outer loop
         vertex 5.1668893e+001 2.6414518e+001 8.0000010e+000
         vertex 5.2369607e+001 2.5600039e+001 8.0000010e+000
         vertex 5.3679891e+001 2.8587185e+001 8.0000010e+000
      endloop
   endfacet
   facet normal -1.5988105e-015 6.6224901e-016 1.0000000e+000
      outer loop
         vertex 5.1668893e+001 2.6414518e+001 8.0000010e+000
         vertex 5.3679891e+001 2.8587185e+001 8.0000010e+000
         vertex 5.2857540e+001 2.9284165e+001 8.0000010e+000
      endloop
   endfacet
   facet normal -1.7784023e-015 4.5035262e-016 1.0000000e+000
      outer loop
         vertex 5.2857540e+001 2.9284165e+001 8.0000010e+000
         vertex 5.3679891e+001 2.8587185e+001 8.0000010e+000
         vertex 5.4480636e+001 3.1749257e+001 8.0000010e+000
      endloop
   endfacet
   facet normal -1.6852005e-015 3.8898556e-016 1.0000000e+000
      outer loop
         vertex 5.2857540e+001 2.9284165e+001 8.0000010e+000
         vertex 5.4480636e+001 3.1749257e+001 8.0000010e+000
         vertex 5.3556131e+001 3.2310668e+001 8.0000010e+000
      endloop
   endfacet
   facet normal -1.8293632e-015 1.5158535e-016 1.0000000e+000
      outer loop
         vertex 5.3556131e+001 3.2310668e+001 8.0000010e+000
         vertex 5.4480636e+001 3.1749257e+001 8.0000010e+000
         vertex 5.4750000e+001 3.5000000e+001 8.0000010e+000
      endloop
   endfacet
   facet normal -1.7252775e-015 1.0537883e-016 1.0000000e+000
      outer loop
         vertex 5.3556131e+001 3.2310668e+001 8.0000010e+000
         vertex 5.4750000e+001 3.5000000e+001 8.0000010e+000
         vertex 5.3745495e+001 3.5410973e+001 8.0000010e+000
      endloop
   endfacet
   facet normal -2.0938071e-015 -7.9538528e-016 1.0000000e+000
      outer loop
         vertex 5.3745495e+001 3.5410973e+001 8.0000010e+000
         vertex 5.4750000e+001 3.5000000e+001 8.0000010e+000
         vertex 5.3420437e+001 3.8500000e+001 8.0000010e+000
      endloop
   endfacet
   facet normal -0.0000000e+000 0.0000000e+000 1.0000000e+000
      outer loop
         vertex 5.3420437e+001 3.8500000e+001 8.0000010e+000
         vertex 5.4750000e+001 3.5000000e+001 8.0000010e+000
         vertex 5.4750000e+001 4.3500000e+001 8.0000010e+000
      endloop
   endfacet
   facet normal -1.8219045e-016 4.8446734e-017 1.0000000e+000
      outer loop
         vertex 5.3420437e+001 3.8500000e+001 8.0000010e+000
         vertex 5.4750000e+001 4.3500000e+001 8.0000010e+000
         vertex 4.5000000e+001 4.3500000e+001 8.0000010e+000
      endloop
   endfacet
   facet normal 0.0000000e+000 0.0000000e+000 1.0000000e+000
      outer loop
         vertex 4.2933485e+001 1.6913477e+001 8.0000010e+000
         vertex 4.2091756e+001 1.7642883e+001 8.0000010e+000
         vertex 3.9848338e+001 1.5854345e+001 8.0000010e+000
      endloop
   endfacet
   facet normal 0.0000000e+000 -0.0000000e+000 1.0000000e+000
      outer loop
         vertex 3.9848338e+001 1.5854345e+001 8.0000010e+000
         vertex 4.2091756e+001 1.7642883e+001 8.0000010e+000
         vertex 3.9324368e+001 1.6755485e+001 8.0000010e+000
      endloop
   endfacet
   facet normal 0.0000000e+000 0.0000000e+000 1.0000000e+000
      outer loop
         vertex 3.9848338e+001 1.5854345e+001 8.0000010e+000
         vertex 3.9324368e+001 1.6755485e+001 8.0000010e+000
         vertex 3.6630942e+001 1.5317456e+001 8.0000010e+000
      endloop
   endfacet
   facet normal 0.0000000e+000 -0.0000000e+000 1.0000000e+000
      outer loop
         vertex 3.6630942e+001 1.5317456e+001 8.0000010e+000
         vertex 3.9324368e+001 1.6755485e+001 8.0000010e+000
         vertex 3.6453092e+001 1.6306391e+001 8.0000010e+000
      endloop
   endfacet
   facet normal -5.4457999e-016 -9.7937114e-017 1.0000000e+000
      outer loop
         vertex 3.6630942e+001 1.5317456e+001 8.0000010e+000
         vertex 3.6453092e+001 1.6306391e+001 8.0000010e+000
         vertex 3.3369058e+001 1.5317456e+001 8.0000010e+000
      endloop
   endfacet
   facet normal 0.0000000e+000 -1.7962329e-015 1.0000000e+000
      outer loop
         vertex 3.3369058e+001 1.5317456e+001 8.0000010e+000
         vertex 3.6453092e+001 1.6306391e+001 8.0000010e+000
         vertex 3.3546908e+001 1.6306391e+001 8.0000010e+000
      endloop
   endfacet
   facet normal -2.7326081e-016 -1.7470897e-015 1.0000000e+000
      outer loop
         vertex 3.3369058e+001 1.5317456e+001 8.0000010e+000
         vertex 3.3546908e+001 1.6306391e+001 8.0000010e+000
         vertex 3.0675632e+001 1.6755485e+001 8.0000010e+000
      endloop
   endfacet
   facet normal -2.9984726e-016 -1.7968861e-015 1.0000000e+000
      outer loop
         vertex 3.3369058e+001 1.5317456e+001 8.0000010e+000
         vertex 3.0675632e+001 1.6755485e+001 8.0000010e+000
         vertex 3.0151662e+001 1.5854345e+001 8.0000010e+000
      endloop
   endfacet
   facet normal -5.3276683e-016 -1.6614544e-015 1.0000000e+000
      outer loop
         vertex 3.0151662e+001 1.5854345e+001 8.0000010e+000
         vertex 3.0675632e+001 1.6755485e+001 8.0000010e+000
         vertex 2.7908244e+001 1.7642883e+001 8.0000010e+000
      endloop
   endfacet
   facet normal -5.9882229e-016 -1.7443097e-015 1.0000000e+000
      outer loop
         vertex 3.0151662e+001 1.5854345e+001 8.0000010e+000
         vertex 2.7908244e+001 1.7642883e+001 8.0000010e+000
         vertex 2.7066515e+001 1.6913477e+001 8.0000010e+000
      endloop
   endfacet
   facet normal -1.2073780e-015 -1.0420414e-015 1.0000000e+000
      outer loop
         vertex 2.7066515e+001 1.6913477e+001 8.0000010e+000
         vertex 2.7908244e+001 1.7642883e+001 8.0000010e+000
         vertex 2.5311229e+001 1.8947268e+001 8.0000010e+000
      endloop
   endfacet
   facet normal 0.0000000e+000 0.0000000e+000 1.0000000e+000
      outer loop
         vertex 2.7066515e+001 1.6913477e+001 8.0000010e+000
         vertex 2.5311229e+001 1.8947268e+001 8.0000010e+000
         vertex 2.4197774e+001 1.8465962e+001 8.0000010e+000
      endloop
   endfacet
   facet normal 8.3005120e-016 -1.9202444e-015 1.0000000e+000
      outer loop
         vertex 2.4197774e+001 1.8465962e+001 8.0000010e+000
         vertex 2.5311229e+001 1.8947268e+001 8.0000010e+000
         vertex 2.4449658e+001 1.9499910e+001 8.0000010e+000
      endloop
   endfacet
   facet normal -1.1240625e-015 -1.4441956e-015 1.0000000e+000
      outer loop
         vertex 2.4197774e+001 1.8465962e+001 8.0000010e+000
         vertex 2.4449658e+001 1.9499910e+001 8.0000010e+000
         vertex 2.1623689e+001 2.0469453e+001 8.0000010e+000
      endloop
   endfacet
   facet normal -1.0908743e-015 -1.3474604e-015 1.0000000e+000
      outer loop
         vertex 2.1623689e+001 2.0469453e+001 8.0000010e+000
         vertex 2.4449658e+001 1.9499910e+001 8.0000010e+000
         vertex 2.2035535e+001 2.1454331e+001 8.0000010e+000
      endloop
   endfacet
   facet normal -1.9001732e-015 -1.0090365e-015 1.0000000e+000
      outer loop
         vertex 2.1623689e+001 2.0469453e+001 8.0000010e+000
         vertex 2.2035535e+001 2.1454331e+001 8.0000010e+000
         vertex 1.9414475e+001 2.2869299e+001 8.0000010e+000
      endloop
   endfacet
   facet normal -2.5951293e-015 -2.2963603e-015 1.0000000e+000
      outer loop
         vertex 1.9414475e+001 2.2869299e+001 8.0000010e+000
         vertex 2.2035535e+001 2.1454331e+001 8.0000010e+000
         vertex 1.9977189e+001 2.3780479e+001 8.0000010e+000
      endloop
   endfacet
   facet normal -3.0679267e-015 -2.0043766e-015 1.0000000e+000
      outer loop
         vertex 1.9414475e+001 2.2869299e+001 8.0000010e+000
         vertex 1.9977189e+001 2.3780479e+001 8.0000010e+000
         vertex 1.7630393e+001 2.5600039e+001 8.0000010e+000
      endloop
   endfacet
   facet normal -2.9368468e-015 -1.8353150e-015 1.0000000e+000
      outer loop
         vertex 1.7630393e+001 2.5600039e+001 8.0000010e+000
         vertex 1.9977189e+001 2.3780479e+001 8.0000010e+000
         vertex 1.8331107e+001 2.6414518e+001 8.0000010e+000
      endloop
   endfacet
   facet normal -3.3580254e-015 -1.4729665e-015 1.0000000e+000
      outer loop
         vertex 1.7630393e+001 2.5600039e+001 8.0000010e+000
         vertex 1.8331107e+001 2.6414518e+001 8.0000010e+000
         vertex 1.6320109e+001 2.8587185e+001 8.0000010e+000
      endloop
   endfacet
   facet normal -3.1976211e-015 -1.3244980e-015 1.0000000e+000
      outer loop
         vertex 1.6320109e+001 2.8587185e+001 8.0000010e+000
         vertex 1.8331107e+001 2.6414518e+001 8.0000010e+000
         vertex 1.7142460e+001 2.9284165e+001 8.0000010e+000
      endloop
   endfacet
   facet normal -3.5568045e-015 -9.0070523e-016 1.0000000e+000
      outer loop
         vertex 1.6320109e+001 2.8587185e+001 8.0000010e+000
         vertex 1.7142460e+001 2.9284165e+001 8.0000010e+000
         vertex 1.5519364e+001 3.1749257e+001 8.0000010e+000
      endloop
   endfacet
   facet normal -3.3704009e-015 -7.7797111e-016 1.0000000e+000
      outer loop
         vertex 1.5519364e+001 3.1749257e+001 8.0000010e+000
         vertex 1.7142460e+001 2.9284165e+001 8.0000010e+000
         vertex 1.6443869e+001 3.2310668e+001 8.0000010e+000
      endloop
   endfacet
   facet normal -3.6587263e-015 -3.0317070e-016 1.0000000e+000
      outer loop
         vertex 1.5519364e+001 3.1749257e+001 8.0000010e+000
         vertex 1.6443869e+001 3.2310668e+001 8.0000010e+000
         vertex 1.5250000e+001 3.5000000e+001 8.0000010e+000
      endloop
   endfacet
   facet normal -3.4505549e-015 -2.1075765e-016 1.0000000e+000
      outer loop
         vertex 1.5250000e+001 3.5000000e+001 8.0000010e+000
         vertex 1.6443869e+001 3.2310668e+001 8.0000010e+000
         vertex 1.6254505e+001 3.5410973e+001 8.0000010e+000
      endloop
   endfacet
   facet normal -4.1876143e-015 1.5907706e-015 1.0000000e+000
      outer loop
         vertex 1.5250000e+001 3.5000000e+001 8.0000010e+000
         vertex 1.6254505e+001 3.5410973e+001 8.0000010e+000
         vertex 1.6579563e+001 3.8500000e+001 8.0000010e+000
      endloop
   endfacet
   facet normal 1.2560740e-015 -1.2560740e-015 1.0000000e+000
      outer loop
         vertex 2.4449658e+001 1.9499910e+001 8.0000010e+000
         vertex 2.5311229e+001 1.8947268e+001 8.0000010e+000
         vertex 3.0313092e+001 2.5363345e+001 8.0000010e+000
      endloop
   endfacet
   facet normal 1.2560740e-015 -1.2560740e-015 1.0000000e+000
      outer loop
         vertex 3.0313092e+001 2.5363345e+001 8.0000010e+000
         vertex 2.5311229e+001 1.8947268e+001 8.0000010e+000
         vertex 3.1125000e+001 2.4761039e+001 8.0000010e+000
      endloop
   endfacet
   facet normal 1.1170594e-015 -1.4434654e-015 1.0000000e+000
      outer loop
         vertex 3.0313092e+001 2.5363345e+001 8.0000010e+000
         vertex 3.1125000e+001 2.4761039e+001 8.0000010e+000
         vertex 3.1638814e+001 2.6389285e+001 8.0000010e+000
      endloop
   endfacet
   facet normal 5.4090086e-016 -1.2616513e-015 1.0000000e+000
      outer loop
         vertex 3.1638814e+001 2.6389285e+001 8.0000010e+000
         vertex 3.1125000e+001 2.4761039e+001 8.0000010e+000
         vertex 3.3179521e+001 2.7049824e+001 8.0000010e+000
      endloop
   endfacet
   facet normal -6.5055731e-016 -1.9214264e-016 1.0000000e+000
      outer loop
         vertex 3.3179521e+001 2.7049824e+001 8.0000010e+000
         vertex 3.1125000e+001 2.4761039e+001 8.0000010e+000
         vertex 3.5000000e+001 2.0886039e+001 8.0000010e+000
      endloop
   endfacet
   facet normal -0.0000000e+000 -0.0000000e+000 1.0000000e+000
      outer loop
         vertex 3.3179521e+001 2.7049824e+001 8.0000010e+000
         vertex 3.5000000e+001 2.0886039e+001 8.0000010e+000
         vertex 3.4836668e+001 2.7302713e+001 8.0000010e+000
      endloop
   endfacet
   facet normal -0.0000000e+000 0.0000000e+000 1.0000000e+000
      outer loop
         vertex 3.4836668e+001 2.7302713e+001 8.0000010e+000
         vertex 3.5000000e+001 2.0886039e+001 8.0000010e+000
         vertex 3.6504263e+001 2.7131776e+001 8.0000010e+000
      endloop
   endfacet
   facet normal -0.0000000e+000 0.0000000e+000 1.0000000e+000
      outer loop
         vertex 3.6504263e+001 2.7131776e+001 8.0000010e+000
         vertex 3.5000000e+001 2.0886039e+001 8.0000010e+000
         vertex 3.8875000e+001 2.4761039e+001 8.0000010e+000
      endloop
   endfacet
   facet normal -0.0000000e+000 0.0000000e+000 1.0000000e+000
      outer loop
         vertex 3.6504263e+001 2.7131776e+001 8.0000010e+000
         vertex 3.8875000e+001 2.4761039e+001 8.0000010e+000
         vertex 3.9580935e+001 2.5466974e+001 8.0000010e+000
      endloop
   endfacet
   facet normal -0.0000000e+000 0.0000000e+000 1.0000000e+000
      outer loop
         vertex 3.9580935e+001 2.5466974e+001 8.0000010e+000
         vertex 3.8875000e+001 2.4761039e+001 8.0000010e+000
         vertex 3.9616516e+001 2.5432695e+001 8.0000010e+000
      endloop
   endfacet
   facet normal 0.0000000e+000 -0.0000000e+000 1.0000000e+000
      outer loop
         vertex 3.9580935e+001 2.5466974e+001 8.0000010e+000
         vertex 3.9582107e+001 2.5468146e+001 8.0000010e+000
         vertex 3.6504263e+001 2.7131776e+001 8.0000010e+000
      endloop
   endfacet
   facet normal 3.2069770e-016 5.9331536e-016 1.0000000e+000
      outer loop
         vertex 3.6504263e+001 2.7131776e+001 8.0000010e+000
         vertex 3.9582107e+001 2.5468146e+001 8.0000010e+000
         vertex 2.6550253e+001 3.8500000e+001 8.0000010e+000
      endloop
   endfacet
   facet normal 0.0000000e+000 3.1251264e-016 1.0000000e+000
      outer loop
         vertex 3.6504263e+001 2.7131776e+001 8.0000010e+000
         vertex 2.6550253e+001 3.8500000e+001 8.0000010e+000
         vertex 2.5136039e+001 3.8500000e+001 8.0000010e+000
      endloop
   endfacet
   facet normal 0.0000000e+000 -3.5527137e-016 1.0000000e+000
      outer loop
         vertex 2.5136039e+001 3.8500000e+001 8.0000010e+000
         vertex 2.6550253e+001 3.8500000e+001 8.0000010e+000
         vertex 2.5000000e+001 4.3500000e+001 8.0000010e+000
      endloop
   endfacet
   facet normal 1.1800909e-030 -3.5527137e-016 1.0000000e+000
      outer loop
         vertex 2.5136039e+001 3.8500000e+001 8.0000010e+000
         vertex 2.5000000e+001 4.3500000e+001 8.0000010e+000
         vertex 1.6579563e+001 3.8500000e+001 8.0000010e+000
      endloop
   endfacet
   facet normal -1.8219045e-016 -4.8446734e-017 1.0000000e+000
      outer loop
         vertex 1.6579563e+001 3.8500000e+001 8.0000010e+000
         vertex 2.5000000e+001 4.3500000e+001 8.0000010e+000
         vertex 1.5250000e+001 4.3500000e+001 8.0000010e+000
      endloop
   endfacet
   facet normal 0.0000000e+000 0.0000000e+000 1.0000000e+000
      outer loop
         vertex 1.6579563e+001 3.8500000e+001 8.0000010e+000
         vertex 1.5250000e+001 4.3500000e+001 8.0000010e+000
         vertex 1.5250000e+001 3.5000000e+001 8.0000010e+000
      endloop
   endfacet
   facet normal -8.8817842e-017 -3.8280938e-016 1.0000000e+000
      outer loop
         vertex 2.5000000e+001 4.3500000e+001 8.0000010e+000
         vertex 2.6550253e+001 3.8500000e+001 8.0000010e+000
         vertex 4.5000000e+001 4.3500000e+001 8.0000010e+000
      endloop
   endfacet
   facet normal -1.9832653e-016 2.1272153e-017 1.0000000e+000
      outer loop
         vertex 4.5000000e+001 4.3500000e+001 8.0000010e+000
         vertex 2.6550253e+001 3.8500000e+001 8.0000010e+000
         vertex 5.3420437e+001 3.8500000e+001 8.0000010e+000
      endloop
   endfacet
   facet normal 1.3744619e-015 1.0715069e-015 1.0000000e+000
      outer loop
         vertex 4.5550342e+001 1.9499910e+001 8.0000010e+000
         vertex 3.9686908e+001 2.5363345e+001 8.0000010e+000
         vertex 4.4688771e+001 1.8947268e+001 8.0000010e+000
      endloop
   endfacet
   facet normal 0.0000000e+000 1.3406467e-016 1.0000000e+000
      outer loop
         vertex 4.5000000e+001 7.0000000e+001 8.0000010e+000
         vertex 2.5000000e+001 7.0000000e+001 8.0000010e+000
         vertex 4.5000000e+001 4.3500000e+001 8.0000010e+000
      endloop
   endfacet
   facet normal -8.8817842e-017 6.7032334e-017 1.0000000e+000
      outer loop
         vertex 4.5000000e+001 4.3500000e+001 8.0000010e+000
         vertex 2.5000000e+001 7.0000000e+001 8.0000010e+000
         vertex 2.5000000e+001 4.3500000e+001 8.0000010e+000
      endloop
   endfacet
   facet normal -6.2922368e-001 7.7722427e-001 2.9547968e-015
      outer loop
         vertex 4.5550342e+001 1.9499910e+001 8.0000010e+000
         vertex 4.7964465e+001 2.1454331e+001 8.0000010e+000
         vertex 4.5550342e+001 1.9499910e+001 5.0000010e+000
      endloop
   endfacet
   facet normal -6.2922368e-001 7.7722427e-001 0.0000000e+000
      outer loop
         vertex 4.5550342e+001 1.9499910e+001 5.0000010e+000
         vertex 4.7964465e+001 2.1454331e+001 8.0000010e+000
         vertex 4.7964465e+001 2.1454331e+001 5.0000010e+000
      endloop
   endfacet
   facet normal -7.4890075e-001 6.6268218e-001 0.0000000e+000
      outer loop
         vertex 4.7964465e+001 2.1454331e+001 5.0000010e+000
         vertex 4.7964465e+001 2.1454331e+001 8.0000010e+000
         vertex 5.0022811e+001 2.3780479e+001 8.0000010e+000
      endloop
   endfacet
   facet normal -7.4890075e-001 6.6268218e-001 1.7737533e-015
      outer loop
         vertex 4.7964465e+001 2.1454331e+001 5.0000010e+000
         vertex 5.0022811e+001 2.3780479e+001 8.0000010e+000
         vertex 5.0022811e+001 2.3780479e+001 5.0000010e+000
      endloop
   endfacet
   facet normal -8.4802611e-001 5.2995444e-001 2.0085293e-015
      outer loop
         vertex 5.0022811e+001 2.3780479e+001 5.0000010e+000
         vertex 5.0022811e+001 2.3780479e+001 8.0000010e+000
         vertex 5.1668893e+001 2.6414518e+001 8.0000010e+000
      endloop
   endfacet
   facet normal -8.4802611e-001 5.2995444e-001 -1.2551843e-015
      outer loop
         vertex 5.0022811e+001 2.3780479e+001 5.0000010e+000
         vertex 5.1668893e+001 2.6414518e+001 8.0000010e+000
         vertex 5.1668893e+001 2.6414518e+001 5.0000010e+000
      endloop
   endfacet
   facet normal -9.2387953e-001 3.8268343e-001 -9.0637644e-016
      outer loop
         vertex 5.1668893e+001 2.6414518e+001 5.0000010e+000
         vertex 5.1668893e+001 2.6414518e+001 8.0000010e+000
         vertex 5.2857540e+001 2.9284165e+001 8.0000010e+000
      endloop
   endfacet
   facet normal -9.2387953e-001 3.8268343e-001 2.5636197e-015
      outer loop
         vertex 5.1668893e+001 2.6414518e+001 5.0000010e+000
         vertex 5.2857540e+001 2.9284165e+001 8.0000010e+000
         vertex 5.2857540e+001 2.9284165e+001 5.0000010e+000
      endloop
   endfacet
   facet normal -9.7437939e-001 2.2491064e-001 3.5501972e-015
      outer loop
         vertex 5.2857540e+001 2.9284165e+001 5.0000010e+000
         vertex 5.2857540e+001 2.9284165e+001 8.0000010e+000
         vertex 5.3556131e+001 3.2310668e+001 8.0000010e+000
      endloop
   endfacet
   facet normal -9.7437939e-001 2.2491064e-001 -1.0653908e-015
      outer loop
         vertex 5.2857540e+001 2.9284165e+001 5.0000010e+000
         vertex 5.3556131e+001 3.2310668e+001 8.0000010e+000
         vertex 5.3556131e+001 3.2310668e+001 5.0000010e+000
      endloop
   endfacet
   facet normal -9.9813986e-001 6.0965734e-002 -2.8879173e-016
      outer loop
         vertex 5.3556131e+001 3.2310668e+001 5.0000010e+000
         vertex 5.3556131e+001 3.2310668e+001 8.0000010e+000
         vertex 5.3745495e+001 3.5410973e+001 8.0000010e+000
      endloop
   endfacet
   facet normal -9.9813986e-001 6.0965734e-002 -2.8879173e-016
      outer loop
         vertex 5.3556131e+001 3.2310668e+001 5.0000010e+000
         vertex 5.3745495e+001 3.5410973e+001 8.0000010e+000
         vertex 5.3745495e+001 3.5410973e+001 5.0000010e+000
      endloop
   endfacet
   facet normal -9.9450888e-001 -1.0465222e-001 4.9573250e-016
      outer loop
         vertex 5.3745495e+001 3.5410973e+001 5.0000010e+000
         vertex 5.3745495e+001 3.5410973e+001 8.0000010e+000
         vertex 5.3420437e+001 3.8500000e+001 8.0000010e+000
      endloop
   endfacet
   facet normal -9.9450888e-001 -1.0465222e-001 -4.7109404e-015
      outer loop
         vertex 5.3745495e+001 3.5410973e+001 5.0000010e+000
         vertex 5.3420437e+001 3.8500000e+001 8.0000010e+000
         vertex 5.3420437e+001 3.8500000e+001 5.0000010e+000
      endloop
   endfacet
   facet normal 4.4883058e-001 8.9361687e-001 -2.1165099e-015
      outer loop
         vertex 2.5311229e+001 1.8947268e+001 5.0000010e+000
         vertex 2.5311229e+001 1.8947268e+001 8.0000010e+000
         vertex 2.7908244e+001 1.7642883e+001 5.0000010e+000
      endloop
   endfacet
   facet normal 4.4883058e-001 8.9361687e-001 0.0000000e+000
      outer loop
         vertex 2.7908244e+001 1.7642883e+001 5.0000010e+000
         vertex 2.5311229e+001 1.8947268e+001 8.0000010e+000
         vertex 2.7908244e+001 1.7642883e+001 8.0000010e+000
      endloop
   endfacet
   facet normal 3.0534830e-001 9.5224073e-001 -0.0000000e+000
      outer loop
         vertex 2.7908244e+001 1.7642883e+001 5.0000010e+000
         vertex 2.7908244e+001 1.7642883e+001 8.0000010e+000
         vertex 3.0675632e+001 1.6755485e+001 8.0000010e+000
      endloop
   endfacet
   facet normal 3.0534830e-001 9.5224073e-001 0.0000000e+000
      outer loop
         vertex 2.7908244e+001 1.7642883e+001 5.0000010e+000
         vertex 3.0675632e+001 1.6755485e+001 8.0000010e+000
         vertex 3.0675632e+001 1.6755485e+001 5.0000010e+000
      endloop
   endfacet
   facet normal 1.5453036e-001 9.8798804e-001 -0.0000000e+000
      outer loop
         vertex 3.0675632e+001 1.6755485e+001 5.0000010e+000
         vertex 3.0675632e+001 1.6755485e+001 8.0000010e+000
         vertex 3.3546908e+001 1.6306391e+001 8.0000010e+000
      endloop
   endfacet
   facet normal 1.5453036e-001 9.8798804e-001 0.0000000e+000
      outer loop
         vertex 3.0675632e+001 1.6755485e+001 5.0000010e+000
         vertex 3.3546908e+001 1.6306391e+001 8.0000010e+000
         vertex 3.3546908e+001 1.6306391e+001 5.0000010e+000
      endloop
   endfacet
   facet normal 0.0000000e+000 1.0000000e+000 0.0000000e+000
      outer loop
         vertex 3.3546908e+001 1.6306391e+001 5.0000010e+000
         vertex 3.3546908e+001 1.6306391e+001 8.0000010e+000
         vertex 3.6453092e+001 1.6306391e+001 8.0000010e+000
      endloop
   endfacet
   facet normal -0.0000000e+000 1.0000000e+000 0.0000000e+000
      outer loop
         vertex 3.3546908e+001 1.6306391e+001 5.0000010e+000
         vertex 3.6453092e+001 1.6306391e+001 8.0000010e+000
         vertex 3.6453092e+001 1.6306391e+001 5.0000010e+000
      endloop
   endfacet
   facet normal -1.5453036e-001 9.8798804e-001 -3.6600142e-016
      outer loop
         vertex 3.6453092e+001 1.6306391e+001 5.0000010e+000
         vertex 3.6453092e+001 1.6306391e+001 8.0000010e+000
         vertex 3.9324368e+001 1.6755485e+001 8.0000010e+000
      endloop
   endfacet
   facet normal -1.5453036e-001 9.8798804e-001 -3.6600142e-016
      outer loop
         vertex 3.6453092e+001 1.6306391e+001 5.0000010e+000
         vertex 3.9324368e+001 1.6755485e+001 8.0000010e+000
         vertex 3.9324368e+001 1.6755485e+001 5.0000010e+000
      endloop
   endfacet
   facet normal -3.0534830e-001 9.5224073e-001 -7.2321006e-016
      outer loop
         vertex 3.9324368e+001 1.6755485e+001 5.0000010e+000
         vertex 3.9324368e+001 1.6755485e+001 8.0000010e+000
         vertex 4.2091756e+001 1.7642883e+001 8.0000010e+000
      endloop
   endfacet
   facet normal -3.0534830e-001 9.5224073e-001 0.0000000e+000
      outer loop
         vertex 3.9324368e+001 1.6755485e+001 5.0000010e+000
         vertex 4.2091756e+001 1.7642883e+001 8.0000010e+000
         vertex 4.2091756e+001 1.7642883e+001 5.0000010e+000
      endloop
   endfacet
   facet normal -4.4883058e-001 8.9361687e-001 0.0000000e+000
      outer loop
         vertex 4.2091756e+001 1.7642883e+001 5.0000010e+000
         vertex 4.2091756e+001 1.7642883e+001 8.0000010e+000
         vertex 4.4688771e+001 1.8947268e+001 8.0000010e+000
      endloop
   endfacet
   facet normal -4.4883058e-001 8.9361687e-001 -1.0534656e-015
      outer loop
         vertex 4.2091756e+001 1.7642883e+001 5.0000010e+000
         vertex 4.4688771e+001 1.8947268e+001 8.0000010e+000
         vertex 4.4688771e+001 1.8947268e+001 5.0000010e+000
      endloop
   endfacet
   facet normal 6.2922368e-001 7.7722427e-001 -1.5250564e-015
      outer loop
         vertex 2.4449658e+001 1.9499910e+001 5.0000010e+000
         vertex 2.2035535e+001 2.1454331e+001 5.0000010e+000
         vertex 2.4449658e+001 1.9499910e+001 8.0000010e+000
      endloop
   endfacet
   facet normal 6.2922368e-001 7.7722427e-001 7.4515052e-016
      outer loop
         vertex 2.4449658e+001 1.9499910e+001 8.0000010e+000
         vertex 2.2035535e+001 2.1454331e+001 5.0000010e+000
         vertex 2.2035535e+001 2.1454331e+001 8.0000010e+000
      endloop
   endfacet
   facet normal 7.4890075e-001 6.6268218e-001 8.8687664e-016
      outer loop
         vertex 2.2035535e+001 2.1454331e+001 8.0000010e+000
         vertex 2.2035535e+001 2.1454331e+001 5.0000010e+000
         vertex 1.9977189e+001 2.3780479e+001 5.0000010e+000
      endloop
   endfacet
   facet normal 7.4890075e-001 6.6268218e-001 -0.0000000e+000
      outer loop
         vertex 2.2035535e+001 2.1454331e+001 8.0000010e+000
         vertex 1.9977189e+001 2.3780479e+001 5.0000010e+000
         vertex 1.9977189e+001 2.3780479e+001 8.0000010e+000
      endloop
   endfacet
   facet normal 8.4802611e-001 5.2995444e-001 0.0000000e+000
      outer loop
         vertex 1.9977189e+001 2.3780479e+001 8.0000010e+000
         vertex 1.9977189e+001 2.3780479e+001 5.0000010e+000
         vertex 1.8331107e+001 2.6414518e+001 5.0000010e+000
      endloop
   endfacet
   facet normal 8.4802611e-001 5.2995444e-001 -5.0183920e-016
      outer loop
         vertex 1.9977189e+001 2.3780479e+001 8.0000010e+000
         vertex 1.8331107e+001 2.6414518e+001 5.0000010e+000
         vertex 1.8331107e+001 2.6414518e+001 8.0000010e+000
      endloop
   endfacet
   facet normal 9.2387953e-001 3.8268343e-001 3.7543342e-016
      outer loop
         vertex 1.8331107e+001 2.6414518e+001 8.0000010e+000
         vertex 1.8331107e+001 2.6414518e+001 5.0000010e+000
         vertex 1.7142460e+001 2.9284165e+001 5.0000010e+000
      endloop
   endfacet
   facet normal 9.2387953e-001 3.8268343e-001 -0.0000000e+000
      outer loop
         vertex 1.8331107e+001 2.6414518e+001 8.0000010e+000
         vertex 1.7142460e+001 2.9284165e+001 5.0000010e+000
         vertex 1.7142460e+001 2.9284165e+001 8.0000010e+000
      endloop
   endfacet
   facet normal 9.7437939e-001 2.2491064e-001 0.0000000e+000
      outer loop
         vertex 1.7142460e+001 2.9284165e+001 8.0000010e+000
         vertex 1.7142460e+001 2.9284165e+001 5.0000010e+000
         vertex 1.6443869e+001 3.2310668e+001 5.0000010e+000
      endloop
   endfacet
   facet normal 9.7437939e-001 2.2491064e-001 8.8506205e-017
      outer loop
         vertex 1.7142460e+001 2.9284165e+001 8.0000010e+000
         vertex 1.6443869e+001 3.2310668e+001 5.0000010e+000
         vertex 1.6443869e+001 3.2310668e+001 8.0000010e+000
      endloop
   endfacet
   facet normal 9.9813986e-001 6.0965734e-002 8.9324332e-016
      outer loop
         vertex 1.6443869e+001 3.2310668e+001 8.0000010e+000
         vertex 1.6443869e+001 3.2310668e+001 5.0000010e+000
         vertex 1.6254505e+001 3.5410973e+001 5.0000010e+000
      endloop
   endfacet
   facet normal 9.9813986e-001 6.0965734e-002 -2.8879173e-016
      outer loop
         vertex 1.6443869e+001 3.2310668e+001 8.0000010e+000
         vertex 1.6254505e+001 3.5410973e+001 5.0000010e+000
         vertex 1.6254505e+001 3.5410973e+001 8.0000010e+000
      endloop
   endfacet
   facet normal 9.9450888e-001 -1.0465222e-001 4.9573250e-016
      outer loop
         vertex 1.6254505e+001 3.5410973e+001 8.0000010e+000
         vertex 1.6254505e+001 3.5410973e+001 5.0000010e+000
         vertex 1.6579563e+001 3.8500000e+001 5.0000010e+000
      endloop
   endfacet
   facet normal 9.9450888e-001 -1.0465222e-001 -4.7109404e-015
      outer loop
         vertex 1.6254505e+001 3.5410973e+001 8.0000010e+000
         vertex 1.6579563e+001 3.8500000e+001 5.0000010e+000
         vertex 1.6579563e+001 3.8500000e+001 8.0000010e+000
      endloop
   endfacet
   facet normal 7.0710678e-001 7.0710678e-001 0.0000000e+000
      outer loop
         vertex 2.6550253e+001 3.8500000e+001 8.0000010e+000
         vertex 3.9582107e+001 2.5468146e+001 8.0000010e+000
         vertex 2.6550253e+001 3.8500000e+001 5.0000010e+000
      endloop
   endfacet
   facet normal 7.0710678e-001 7.0710678e-001 0.0000000e+000
      outer loop
         vertex 2.6550253e+001 3.8500000e+001 5.0000010e+000
         vertex 3.9582107e+001 2.5468146e+001 8.0000010e+000
         vertex 3.9582107e+001 2.5468146e+001 5.0000010e+000
      endloop
   endfacet
   facet normal 7.0710678e-001 -7.0710678e-001 0.0000000e+000
      outer loop
         vertex 3.9580935e+001 2.5466974e+001 5.0000010e+000
         vertex 3.9582107e+001 2.5468146e+001 5.0000010e+000
         vertex 3.9580935e+001 2.5466974e+001 8.0000010e+000
      endloop
   endfacet
   facet normal 7.0710678e-001 -7.0710678e-001 0.0000000e+000
      outer loop
         vertex 3.9580935e+001 2.5466974e+001 8.0000010e+000
         vertex 3.9582107e+001 2.5468146e+001 5.0000010e+000
         vertex 3.9582107e+001 2.5468146e+001 8.0000010e+000
      endloop
   endfacet
   facet normal -1.0577415e-015 -1.0000000e+000 -0.0000000e+000
      outer loop
         vertex 2.6550253e+001 3.8500000e+001 8.0000010e+000
         vertex 2.6550253e+001 3.8500000e+001 5.0000010e+000
         vertex 5.3420437e+001 3.8500000e+001 8.0000010e+000
      endloop
   endfacet
   facet normal -1.0577415e-015 -1.0000000e+000 -5.0104703e-030
      outer loop
         vertex 5.3420437e+001 3.8500000e+001 8.0000010e+000
         vertex 2.6550253e+001 3.8500000e+001 5.0000010e+000
         vertex 5.3420437e+001 3.8500000e+001 5.0000010e+000
      endloop
   endfacet
   facet normal 0.0000000e+000 -1.0000000e+000 9.4739031e-015
      outer loop
         vertex 2.5136039e+001 3.8500000e+001 5.0000010e+000
         vertex 2.5136039e+001 3.8500000e+001 8.0000010e+000
         vertex 1.6579563e+001 3.8500000e+001 5.0000010e+000
      endloop
   endfacet
   facet normal 3.3216606e-015 -1.0000000e+000 -1.5734546e-029
      outer loop
         vertex 1.6579563e+001 3.8500000e+001 5.0000010e+000
         vertex 2.5136039e+001 3.8500000e+001 8.0000010e+000
         vertex 1.6579563e+001 3.8500000e+001 8.0000010e+000
      endloop
   endfacet
   facet normal -1.2560740e-015 -1.8029711e-015 -1.0000000e+000
      outer loop
         vertex 2.5136039e+001 3.8500000e+001 5.0000010e+000
         vertex 2.6550253e+001 3.8500000e+001 5.0000010e+000
         vertex 3.6504263e+001 2.7131776e+001 5.0000010e+000
      endloop
   endfacet
   facet normal -4.0087452e-015 -4.2132084e-015 -1.0000000e+000
      outer loop
         vertex 3.6504263e+001 2.7131776e+001 5.0000010e+000
         vertex 2.6550253e+001 3.8500000e+001 5.0000010e+000
         vertex 3.9582107e+001 2.5468146e+001 5.0000010e+000
      endloop
   endfacet
   facet normal -1.8626727e-012 -3.4428843e-012 -1.0000000e+000
      outer loop
         vertex 3.6504263e+001 2.7131776e+001 5.0000010e+000
         vertex 3.9582107e+001 2.5468146e+001 5.0000010e+000
         vertex 3.9580935e+001 2.5466974e+001 5.0000010e+000
      endloop
   endfacet
   facet normal -1.2560740e-015 -3.4175002e-017 -1.0000000e+000
      outer loop
         vertex 2.6550253e+001 3.8500000e+001 5.0000010e+000
         vertex 2.5136039e+001 3.8500000e+001 5.0000010e+000
         vertex 2.5000000e+001 4.3500000e+001 5.0000010e+000
      endloop
   endfacet
   facet normal -0.0000000e+000 -0.0000000e+000 -1.0000000e+000
      outer loop
         vertex 2.5000000e+001 4.3500000e+001 5.0000010e+000
         vertex 2.5136039e+001 3.8500000e+001 5.0000010e+000
         vertex 1.6579563e+001 3.8500000e+001 5.0000010e+000
      endloop
   endfacet
   facet normal -0.0000000e+000 0.0000000e+000 -1.0000000e+000
      outer loop
         vertex 2.5000000e+001 4.3500000e+001 5.0000010e+000
         vertex 1.6579563e+001 3.8500000e+001 5.0000010e+000
         vertex 1.5250000e+001 4.3500000e+001 5.0000010e+000
      endloop
   endfacet
   facet normal 0.0000000e+000 -0.0000000e+000 -1.0000000e+000
      outer loop
         vertex 1.5250000e+001 4.3500000e+001 5.0000010e+000
         vertex 1.6579563e+001 3.8500000e+001 5.0000010e+000
         vertex 1.5250000e+001 3.5000000e+001 5.0000010e+000
      endloop
   endfacet
   facet normal 0.0000000e+000 -0.0000000e+000 -1.0000000e+000
      outer loop
         vertex 1.5250000e+001 3.5000000e+001 5.0000010e+000
         vertex 1.6579563e+001 3.8500000e+001 5.0000010e+000
         vertex 1.6254505e+001 3.5410973e+001 5.0000010e+000
      endloop
   endfacet
   facet normal 0.0000000e+000 0.0000000e+000 -1.0000000e+000
      outer loop
         vertex 1.5250000e+001 3.5000000e+001 5.0000010e+000
         vertex 1.6254505e+001 3.5410973e+001 5.0000010e+000
         vertex 1.6443869e+001 3.2310668e+001 5.0000010e+000
      endloop
   endfacet
   facet normal 0.0000000e+000 -0.0000000e+000 -1.0000000e+000
      outer loop
         vertex 1.5250000e+001 3.5000000e+001 5.0000010e+000
         vertex 1.6443869e+001 3.2310668e+001 5.0000010e+000
         vertex 1.5519364e+001 3.1749257e+001 5.0000010e+000
      endloop
   endfacet
   facet normal 0.0000000e+000 0.0000000e+000 -1.0000000e+000
      outer loop
         vertex 1.5519364e+001 3.1749257e+001 5.0000010e+000
         vertex 1.6443869e+001 3.2310668e+001 5.0000010e+000
         vertex 1.7142460e+001 2.9284165e+001 5.0000010e+000
      endloop
   endfacet
   facet normal 0.0000000e+000 -0.0000000e+000 -1.0000000e+000
      outer loop
         vertex 1.5519364e+001 3.1749257e+001 5.0000010e+000
         vertex 1.7142460e+001 2.9284165e+001 5.0000010e+000
         vertex 1.6320109e+001 2.8587185e+001 5.0000010e+000
      endloop
   endfacet
   facet normal 0.0000000e+000 0.0000000e+000 -1.0000000e+000
      outer loop
         vertex 1.6320109e+001 2.8587185e+001 5.0000010e+000
         vertex 1.7142460e+001 2.9284165e+001 5.0000010e+000
         vertex 1.8331107e+001 2.6414518e+001 5.0000010e+000
      endloop
   endfacet
   facet normal 0.0000000e+000 -0.0000000e+000 -1.0000000e+000
      outer loop
         vertex 1.6320109e+001 2.8587185e+001 5.0000010e+000
         vertex 1.8331107e+001 2.6414518e+001 5.0000010e+000
         vertex 1.7630393e+001 2.5600039e+001 5.0000010e+000
      endloop
   endfacet
   facet normal 0.0000000e+000 0.0000000e+000 -1.0000000e+000
      outer loop
         vertex 1.7630393e+001 2.5600039e+001 5.0000010e+000
         vertex 1.8331107e+001 2.6414518e+001 5.0000010e+000
         vertex 1.9977189e+001 2.3780479e+001 5.0000010e+000
      endloop
   endfacet
   facet normal 0.0000000e+000 -0.0000000e+000 -1.0000000e+000
      outer loop
         vertex 1.7630393e+001 2.5600039e+001 5.0000010e+000
         vertex 1.9977189e+001 2.3780479e+001 5.0000010e+000
         vertex 1.9414475e+001 2.2869299e+001 5.0000010e+000
      endloop
   endfacet
   facet normal 0.0000000e+000 0.0000000e+000 -1.0000000e+000
      outer loop
         vertex 1.9414475e+001 2.2869299e+001 5.0000010e+000
         vertex 1.9977189e+001 2.3780479e+001 5.0000010e+000
         vertex 2.2035535e+001 2.1454331e+001 5.0000010e+000
      endloop
   endfacet
   facet normal 0.0000000e+000 -0.0000000e+000 -1.0000000e+000
      outer loop
         vertex 1.9414475e+001 2.2869299e+001 5.0000010e+000
         vertex 2.2035535e+001 2.1454331e+001 5.0000010e+000
         vertex 2.1623689e+001 2.0469453e+001 5.0000010e+000
      endloop
   endfacet
   facet normal 0.0000000e+000 0.0000000e+000 -1.0000000e+000
      outer loop
         vertex 2.1623689e+001 2.0469453e+001 5.0000010e+000
         vertex 2.2035535e+001 2.1454331e+001 5.0000010e+000
         vertex 2.4449658e+001 1.9499910e+001 5.0000010e+000
      endloop
   endfacet
   facet normal 0.0000000e+000 -0.0000000e+000 -1.0000000e+000
      outer loop
         vertex 2.1623689e+001 2.0469453e+001 5.0000010e+000
         vertex 2.4449658e+001 1.9499910e+001 5.0000010e+000
         vertex 2.4197774e+001 1.8465962e+001 5.0000010e+000
      endloop
   endfacet
   facet normal 0.0000000e+000 0.0000000e+000 -1.0000000e+000
      outer loop
         vertex 2.4197774e+001 1.8465962e+001 5.0000010e+000
         vertex 2.4449658e+001 1.9499910e+001 5.0000010e+000
         vertex 2.5311229e+001 1.8947268e+001 5.0000010e+000
      endloop
   endfacet
   facet normal 0.0000000e+000 0.0000000e+000 -1.0000000e+000
      outer loop
         vertex 2.4197774e+001 1.8465962e+001 5.0000010e+000
         vertex 2.5311229e+001 1.8947268e+001 5.0000010e+000
         vertex 2.7066515e+001 1.6913477e+001 5.0000010e+000
      endloop
   endfacet
   facet normal 0.0000000e+000 0.0000000e+000 -1.0000000e+000
      outer loop
         vertex 2.7066515e+001 1.6913477e+001 5.0000010e+000
         vertex 2.5311229e+001 1.8947268e+001 5.0000010e+000
         vertex 2.7908244e+001 1.7642883e+001 5.0000010e+000
      endloop
   endfacet
   facet normal 0.0000000e+000 0.0000000e+000 -1.0000000e+000
      outer loop
         vertex 2.7066515e+001 1.6913477e+001 5.0000010e+000
         vertex 2.7908244e+001 1.7642883e+001 5.0000010e+000
         vertex 3.0151662e+001 1.5854345e+001 5.0000010e+000
      endloop
   endfacet
   facet normal 0.0000000e+000 0.0000000e+000 -1.0000000e+000
      outer loop
         vertex 3.0151662e+001 1.5854345e+001 5.0000010e+000
         vertex 2.7908244e+001 1.7642883e+001 5.0000010e+000
         vertex 3.0675632e+001 1.6755485e+001 5.0000010e+000
      endloop
   endfacet
   facet normal 0.0000000e+000 0.0000000e+000 -1.0000000e+000
      outer loop
         vertex 3.0151662e+001 1.5854345e+001 5.0000010e+000
         vertex 3.0675632e+001 1.6755485e+001 5.0000010e+000
         vertex 3.3369058e+001 1.5317456e+001 5.0000010e+000
      endloop
   endfacet
   facet normal 0.0000000e+000 0.0000000e+000 -1.0000000e+000
      outer loop
         vertex 3.3369058e+001 1.5317456e+001 5.0000010e+000
         vertex 3.0675632e+001 1.6755485e+001 5.0000010e+000
         vertex 3.3546908e+001 1.6306391e+001 5.0000010e+000
      endloop
   endfacet
   facet normal 0.0000000e+000 0.0000000e+000 -1.0000000e+000
      outer loop
         vertex 3.3369058e+001 1.5317456e+001 5.0000010e+000
         vertex 3.3546908e+001 1.6306391e+001 5.0000010e+000
         vertex 3.6453092e+001 1.6306391e+001 5.0000010e+000
      endloop
   endfacet
   facet normal -5.9193971e-017 -9.2283530e-017 -1.0000000e+000
      outer loop
         vertex 2.4449658e+001 1.9499910e+001 5.0000010e+000
         vertex 3.0313092e+001 2.5363345e+001 5.0000010e+000
         vertex 2.5311229e+001 1.8947268e+001 5.0000010e+000
      endloop
   endfacet
   facet normal 5.4797477e-015 -4.4103474e-015 -1.0000000e+000
      outer loop
         vertex 2.5311229e+001 1.8947268e+001 5.0000010e+000
         vertex 3.0313092e+001 2.5363345e+001 5.0000010e+000
         vertex 3.1125000e+001 2.4761039e+001 5.0000010e+000
      endloop
   endfacet
   facet normal 7.4193370e-015 -1.7957837e-015 -1.0000000e+000
      outer loop
         vertex 3.1125000e+001 2.4761039e+001 5.0000010e+000
         vertex 3.0313092e+001 2.5363345e+001 5.0000010e+000
         vertex 3.1638814e+001 2.6389285e+001 5.0000010e+000
      endloop
   endfacet
   facet normal -2.7045043e-016 6.3082564e-016 -1.0000000e+000
      outer loop
         vertex 3.1125000e+001 2.4761039e+001 5.0000010e+000
         vertex 3.1638814e+001 2.6389285e+001 5.0000010e+000
         vertex 3.3179521e+001 2.7049824e+001 5.0000010e+000
      endloop
   endfacet
   facet normal 4.4606369e-016 -1.2350982e-017 -1.0000000e+000
      outer loop
         vertex 3.1125000e+001 2.4761039e+001 5.0000010e+000
         vertex 3.3179521e+001 2.7049824e+001 5.0000010e+000
         vertex 3.5000000e+001 2.0886039e+001 5.0000010e+000
      endloop
   endfacet
   facet normal 2.1041402e-017 -1.3788167e-016 -1.0000000e+000
      outer loop
         vertex 3.5000000e+001 2.0886039e+001 5.0000010e+000
         vertex 3.3179521e+001 2.7049824e+001 5.0000010e+000
         vertex 3.4836668e+001 2.7302713e+001 5.0000010e+000
      endloop
   endfacet
   facet normal -5.4822947e-016 -1.5237202e-016 -1.0000000e+000
      outer loop
         vertex 3.5000000e+001 2.0886039e+001 5.0000010e+000
         vertex 3.4836668e+001 2.7302713e+001 5.0000010e+000
         vertex 3.6504263e+001 2.7131776e+001 5.0000010e+000
      endloop
   endfacet
   facet normal -2.0407562e-015 2.0709756e-016 -1.0000000e+000
      outer loop
         vertex 3.5000000e+001 2.0886039e+001 5.0000010e+000
         vertex 3.6504263e+001 2.7131776e+001 5.0000010e+000
         vertex 3.8875000e+001 2.4761039e+001 5.0000010e+000
      endloop
   endfacet
   facet normal 3.2796297e-015 5.5274835e-015 -1.0000000e+000
      outer loop
         vertex 3.8875000e+001 2.4761039e+001 5.0000010e+000
         vertex 3.6504263e+001 2.7131776e+001 5.0000010e+000
         vertex 3.9580935e+001 2.5466974e+001 5.0000010e+000
      endloop
   endfacet
   facet normal 1.7035041e-014 -8.2279282e-015 -1.0000000e+000
      outer loop
         vertex 3.8875000e+001 2.4761039e+001 5.0000010e+000
         vertex 3.9580935e+001 2.5466974e+001 5.0000010e+000
         vertex 3.9616516e+001 2.5432695e+001 5.0000010e+000
      endloop
   endfacet
   facet normal 0.0000000e+000 0.0000000e+000 -1.0000000e+000
      outer loop
         vertex 3.3369058e+001 1.5317456e+001 5.0000010e+000
         vertex 3.6453092e+001 1.6306391e+001 5.0000010e+000
         vertex 3.6630942e+001 1.5317456e+001 5.0000010e+000
      endloop
   endfacet
   facet normal 0.0000000e+000 0.0000000e+000 -1.0000000e+000
      outer loop
         vertex 3.6630942e+001 1.5317456e+001 5.0000010e+000
         vertex 3.6453092e+001 1.6306391e+001 5.0000010e+000
         vertex 3.9324368e+001 1.6755485e+001 5.0000010e+000
      endloop
   endfacet
   facet normal 0.0000000e+000 0.0000000e+000 -1.0000000e+000
      outer loop
         vertex 3.6630942e+001 1.5317456e+001 5.0000010e+000
         vertex 3.9324368e+001 1.6755485e+001 5.0000010e+000
         vertex 3.9848338e+001 1.5854345e+001 5.0000010e+000
      endloop
   endfacet
   facet normal 0.0000000e+000 0.0000000e+000 -1.0000000e+000
      outer loop
         vertex 3.9848338e+001 1.5854345e+001 5.0000010e+000
         vertex 3.9324368e+001 1.6755485e+001 5.0000010e+000
         vertex 4.2091756e+001 1.7642883e+001 5.0000010e+000
      endloop
   endfacet
   facet normal 0.0000000e+000 0.0000000e+000 -1.0000000e+000
      outer loop
         vertex 3.9848338e+001 1.5854345e+001 5.0000010e+000
         vertex 4.2091756e+001 1.7642883e+001 5.0000010e+000
         vertex 4.2933485e+001 1.6913477e+001 5.0000010e+000
      endloop
   endfacet
   facet normal -2.1650928e-016 -2.4984996e-016 -1.0000000e+000
      outer loop
         vertex 4.2933485e+001 1.6913477e+001 5.0000010e+000
         vertex 4.2091756e+001 1.7642883e+001 5.0000010e+000
         vertex 4.4688771e+001 1.8947268e+001 5.0000010e+000
      endloop
   endfacet
   facet normal 4.4346172e-016 -8.1944549e-016 -1.0000000e+000
      outer loop
         vertex 4.2933485e+001 1.6913477e+001 5.0000010e+000
         vertex 4.4688771e+001 1.8947268e+001 5.0000010e+000
         vertex 4.5802226e+001 1.8465962e+001 5.0000010e+000
      endloop
   endfacet
   facet normal 8.9156434e-016 2.1719726e-016 -1.0000000e+000
      outer loop
         vertex 4.5802226e+001 1.8465962e+001 5.0000010e+000
         vertex 4.4688771e+001 1.8947268e+001 5.0000010e+000
         vertex 4.5550342e+001 1.9499910e+001 5.0000010e+000
      endloop
   endfacet
   facet normal 0.0000000e+000 0.0000000e+000 -1.0000000e+000
      outer loop
         vertex 4.5802226e+001 1.8465962e+001 5.0000010e+000
         vertex 4.5550342e+001 1.9499910e+001 5.0000010e+000
         vertex 4.8376311e+001 2.0469453e+001 5.0000010e+000
      endloop
   endfacet
   facet normal -0.0000000e+000 0.0000000e+000 -1.0000000e+000
      outer loop
         vertex 4.8376311e+001 2.0469453e+001 5.0000010e+000
         vertex 4.5550342e+001 1.9499910e+001 5.0000010e+000
         vertex 4.7964465e+001 2.1454331e+001 5.0000010e+000
      endloop
   endfacet
   facet normal 0.0000000e+000 0.0000000e+000 -1.0000000e+000
      outer loop
         vertex 4.8376311e+001 2.0469453e+001 5.0000010e+000
         vertex 4.7964465e+001 2.1454331e+001 5.0000010e+000
         vertex 5.0585525e+001 2.2869299e+001 5.0000010e+000
      endloop
   endfacet
   facet normal -0.0000000e+000 0.0000000e+000 -1.0000000e+000
      outer loop
         vertex 5.0585525e+001 2.2869299e+001 5.0000010e+000
         vertex 4.7964465e+001 2.1454331e+001 5.0000010e+000
         vertex 5.0022811e+001 2.3780479e+001 5.0000010e+000
      endloop
   endfacet
   facet normal 0.0000000e+000 0.0000000e+000 -1.0000000e+000
      outer loop
         vertex 5.0585525e+001 2.2869299e+001 5.0000010e+000
         vertex 5.0022811e+001 2.3780479e+001 5.0000010e+000
         vertex 5.2369607e+001 2.5600039e+001 5.0000010e+000
      endloop
   endfacet
   facet normal -0.0000000e+000 0.0000000e+000 -1.0000000e+000
      outer loop
         vertex 5.2369607e+001 2.5600039e+001 5.0000010e+000
         vertex 5.0022811e+001 2.3780479e+001 5.0000010e+000
         vertex 5.1668893e+001 2.6414518e+001 5.0000010e+000
      endloop
   endfacet
   facet normal 0.0000000e+000 0.0000000e+000 -1.0000000e+000
      outer loop
         vertex 5.2369607e+001 2.5600039e+001 5.0000010e+000
         vertex 5.1668893e+001 2.6414518e+001 5.0000010e+000
         vertex 5.3679891e+001 2.8587185e+001 5.0000010e+000
      endloop
   endfacet
   facet normal -0.0000000e+000 0.0000000e+000 -1.0000000e+000
      outer loop
         vertex 5.3679891e+001 2.8587185e+001 5.0000010e+000
         vertex 5.1668893e+001 2.6414518e+001 5.0000010e+000
         vertex 5.2857540e+001 2.9284165e+001 5.0000010e+000
      endloop
   endfacet
   facet normal 0.0000000e+000 0.0000000e+000 -1.0000000e+000
      outer loop
         vertex 5.3679891e+001 2.8587185e+001 5.0000010e+000
         vertex 5.2857540e+001 2.9284165e+001 5.0000010e+000
         vertex 5.4480636e+001 3.1749257e+001 5.0000010e+000
      endloop
   endfacet
   facet normal -0.0000000e+000 0.0000000e+000 -1.0000000e+000
      outer loop
         vertex 5.4480636e+001 3.1749257e+001 5.0000010e+000
         vertex 5.2857540e+001 2.9284165e+001 5.0000010e+000
         vertex 5.3556131e+001 3.2310668e+001 5.0000010e+000
      endloop
   endfacet
   facet normal 0.0000000e+000 0.0000000e+000 -1.0000000e+000
      outer loop
         vertex 5.4480636e+001 3.1749257e+001 5.0000010e+000
         vertex 5.3556131e+001 3.2310668e+001 5.0000010e+000
         vertex 5.4750000e+001 3.5000000e+001 5.0000010e+000
      endloop
   endfacet
   facet normal -0.0000000e+000 0.0000000e+000 -1.0000000e+000
      outer loop
         vertex 5.4750000e+001 3.5000000e+001 5.0000010e+000
         vertex 5.3556131e+001 3.2310668e+001 5.0000010e+000
         vertex 5.3745495e+001 3.5410973e+001 5.0000010e+000
      endloop
   endfacet
   facet normal 0.0000000e+000 0.0000000e+000 -1.0000000e+000
      outer loop
         vertex 5.4750000e+001 3.5000000e+001 5.0000010e+000
         vertex 5.3745495e+001 3.5410973e+001 5.0000010e+000
         vertex 5.3420437e+001 3.8500000e+001 5.0000010e+000
      endloop
   endfacet
   facet normal 6.8723095e-016 5.3575345e-016 -1.0000000e+000
      outer loop
         vertex 4.5550342e+001 1.9499910e+001 5.0000010e+000
         vertex 4.4688771e+001 1.8947268e+001 5.0000010e+000
         vertex 3.9686908e+001 2.5363345e+001 5.0000010e+000
      endloop
   endfacet
   facet normal -1.3862031e-015 -1.0806601e-015 -1.0000000e+000
      outer loop
         vertex 3.9686908e+001 2.5363345e+001 5.0000010e+000
         vertex 4.4688771e+001 1.8947268e+001 5.0000010e+000
         vertex 3.8875000e+001 2.4761039e+001 5.0000010e+000
      endloop
   endfacet
   facet normal -1.0958657e-013 1.4477329e-013 -1.0000000e+000
      outer loop
         vertex 3.9686908e+001 2.5363345e+001 5.0000010e+000
         vertex 3.8875000e+001 2.4761039e+001 5.0000010e+000
         vertex 3.9651841e+001 2.5398151e+001 5.0000010e+000
      endloop
   endfacet
   facet normal 4.9745282e-015 5.0870321e-015 -1.0000000e+000
      outer loop
         vertex 3.9651841e+001 2.5398151e+001 5.0000010e+000
         vertex 3.8875000e+001 2.4761039e+001 5.0000010e+000
         vertex 3.9616516e+001 2.5432695e+001 5.0000010e+000
      endloop
   endfacet
   facet normal 6.6108844e-017 1.1133307e-016 -1.0000000e+000
      outer loop
         vertex 2.6550253e+001 3.8500000e+001 5.0000010e+000
         vertex 4.5000000e+001 4.3500000e+001 5.0000010e+000
         vertex 5.3420437e+001 3.8500000e+001 5.0000010e+000
      endloop
   endfacet
   facet normal 0.0000000e+000 0.0000000e+000 -1.0000000e+000
      outer loop
         vertex 5.3420437e+001 3.8500000e+001 5.0000010e+000
         vertex 4.5000000e+001 4.3500000e+001 5.0000010e+000
         vertex 5.4750000e+001 4.3500000e+001 5.0000010e+000
      endloop
   endfacet
   facet normal 0.0000000e+000 0.0000000e+000 -1.0000000e+000
      outer loop
         vertex 5.3420437e+001 3.8500000e+001 5.0000010e+000
         vertex 5.4750000e+001 4.3500000e+001 5.0000010e+000
         vertex 5.4750000e+001 3.5000000e+001 5.0000010e+000
      endloop
   endfacet
   facet normal -0.0000000e+000 -0.0000000e+000 -1.0000000e+000
      outer loop
         vertex 4.5000000e+001 6.5000000e+001 5.0000010e+000
         vertex 4.5000000e+001 4.3500000e+001 5.0000010e+000
         vertex 2.5000000e+001 6.5000000e+001 5.0000010e+000
      endloop
   endfacet
   facet normal -0.0000000e+000 -0.0000000e+000 -1.0000000e+000
      outer loop
         vertex 2.5000000e+001 6.5000000e+001 5.0000010e+000
         vertex 4.5000000e+001 4.3500000e+001 5.0000010e+000
         vertex 2.5000000e+001 4.3500000e+001 5.0000010e+000
      endloop
   endfacet
   facet normal 0.0000000e+000 3.5527137e-016 -1.0000000e+000
      outer loop
         vertex 2.5000000e+001 4.3500000e+001 5.0000010e+000
         vertex 4.5000000e+001 4.3500000e+001 5.0000010e+000
         vertex 2.6550253e+001 3.8500000e+001 5.0000010e+000
      endloop
   endfacet
   facet normal -0.0000000e+000 1.0000000e+000 0.0000000e+000
      outer loop
         vertex 4.5000000e+001 4.3500000e+001 5.0000010e+000
         vertex 4.5000000e+001 4.3500000e+001 8.0000010e+000
         vertex 5.4750000e+001 4.3500000e+001 5.0000010e+000
      endloop
   endfacet
   facet normal 0.0000000e+000 1.0000000e+000 -0.0000000e+000
      outer loop
         vertex 5.4750000e+001 4.3500000e+001 5.0000010e+000
         vertex 4.5000000e+001 4.3500000e+001 8.0000010e+000
         vertex 5.4750000e+001 4.3500000e+001 8.0000010e+000
      endloop
   endfacet
   facet normal 0.0000000e+000 1.0000000e+000 0.0000000e+000
      outer loop
         vertex 2.5000000e+001 4.3500000e+001 8.0000010e+000
         vertex 2.5000000e+001 4.3500000e+001 5.0000010e+000
         vertex 1.5250000e+001 4.3500000e+001 8.0000010e+000
      endloop
   endfacet
   facet normal 0.0000000e+000 1.0000000e+000 0.0000000e+000
      outer loop
         vertex 1.5250000e+001 4.3500000e+001 8.0000010e+000
         vertex 2.5000000e+001 4.3500000e+001 5.0000010e+000
         vertex 1.5250000e+001 4.3500000e+001 5.0000010e+000
      endloop
   endfacet
   facet normal 1.0000000e+000 -0.0000000e+000 0.0000000e+000
      outer loop
         vertex 5.4750000e+001 3.5000000e+001 8.0000010e+000
         vertex 5.4750000e+001 3.5000000e+001 5.0000010e+000
         vertex 5.4750000e+001 4.3500000e+001 8.0000010e+000
      endloop
   endfacet
   facet normal 1.0000000e+000 -0.0000000e+000 0.0000000e+000
      outer loop
         vertex 5.4750000e+001 4.3500000e+001 8.0000010e+000
         vertex 5.4750000e+001 3.5000000e+001 5.0000010e+000
         vertex 5.4750000e+001 4.3500000e+001 5.0000010e+000
      endloop
   endfacet
   facet normal -1.0000000e+000 -0.0000000e+000 -0.0000000e+000
      outer loop
         vertex 1.5250000e+001 4.3500000e+001 8.0000010e+000
         vertex 1.5250000e+001 4.3500000e+001 5.0000010e+000
         vertex 1.5250000e+001 3.5000000e+001 8.0000010e+000
      endloop
   endfacet
   facet normal -1.0000000e+000 -0.0000000e+000 -0.0000000e+000
      outer loop
         vertex 1.5250000e+001 3.5000000e+001 8.0000010e+000
         vertex 1.5250000e+001 4.3500000e+001 5.0000010e+000
         vertex 1.5250000e+001 3.5000000e+001 5.0000010e+000
      endloop
   endfacet
   facet normal 9.9658449e-001 -8.2579345e-002 0.0000000e+000
      outer loop
         vertex 5.4750000e+001 3.5000000e+001 8.0000010e+000
         vertex 5.4480636e+001 3.1749257e+001 8.0000010e+000
         vertex 5.4750000e+001 3.5000000e+001 5.0000010e+000
      endloop
   endfacet
   facet normal 9.9658449e-001 -8.2579345e-002 3.9117436e-016
      outer loop
         vertex 5.4750000e+001 3.5000000e+001 5.0000010e+000
         vertex 5.4480636e+001 3.1749257e+001 8.0000010e+000
         vertex 5.4480636e+001 3.1749257e+001 5.0000010e+000
      endloop
   endfacet
   facet normal 9.6940027e-001 -2.4548549e-001 1.1628529e-015
      outer loop
         vertex 5.4480636e+001 3.1749257e+001 5.0000010e+000
         vertex 5.4480636e+001 3.1749257e+001 8.0000010e+000
         vertex 5.3679891e+001 2.8587185e+001 8.0000010e+000
      endloop
   endfacet
   facet normal 9.6940027e-001 -2.4548549e-001 0.0000000e+000
      outer loop
         vertex 5.4480636e+001 3.1749257e+001 5.0000010e+000
         vertex 5.3679891e+001 2.8587185e+001 8.0000010e+000
         vertex 5.3679891e+001 2.8587185e+001 5.0000010e+000
      endloop
   endfacet
   facet normal 9.1577333e-001 -4.0169542e-001 0.0000000e+000
      outer loop
         vertex 5.3679891e+001 2.8587185e+001 5.0000010e+000
         vertex 5.3679891e+001 2.8587185e+001 8.0000010e+000
         vertex 5.2369607e+001 2.5600039e+001 8.0000010e+000
      endloop
   endfacet
   facet normal 9.1577333e-001 -4.0169542e-001 -9.5140589e-016
      outer loop
         vertex 5.3679891e+001 2.8587185e+001 5.0000010e+000
         vertex 5.2369607e+001 2.5600039e+001 8.0000010e+000
         vertex 5.2369607e+001 2.5600039e+001 5.0000010e+000
      endloop
   endfacet
   facet normal 8.3716648e-001 -5.4694816e-001 -1.2954335e-015
      outer loop
         vertex 5.2369607e+001 2.5600039e+001 5.0000010e+000
         vertex 5.2369607e+001 2.5600039e+001 8.0000010e+000
         vertex 5.0585525e+001 2.2869299e+001 8.0000010e+000
      endloop
   endfacet
   facet normal 8.3716648e-001 -5.4694816e-001 1.2954335e-015
      outer loop
         vertex 5.2369607e+001 2.5600039e+001 5.0000010e+000
         vertex 5.0585525e+001 2.2869299e+001 8.0000010e+000
         vertex 5.0585525e+001 2.2869299e+001 5.0000010e+000
      endloop
   endfacet
   facet normal 7.3572391e-001 -6.7728157e-001 1.6041250e-015
      outer loop
         vertex 5.0585525e+001 2.2869299e+001 5.0000010e+000
         vertex 5.0585525e+001 2.2869299e+001 8.0000010e+000
         vertex 4.8376311e+001 2.0469453e+001 8.0000010e+000
      endloop
   endfacet
   facet normal 7.3572391e-001 -6.7728157e-001 0.0000000e+000
      outer loop
         vertex 5.0585525e+001 2.2869299e+001 5.0000010e+000
         vertex 4.8376311e+001 2.0469453e+001 8.0000010e+000
         vertex 4.8376311e+001 2.0469453e+001 5.0000010e+000
      endloop
   endfacet
   facet normal 6.1421271e-001 -7.8914051e-001 0.0000000e+000
      outer loop
         vertex 4.8376311e+001 2.0469453e+001 5.0000010e+000
         vertex 4.8376311e+001 2.0469453e+001 8.0000010e+000
         vertex 4.5802226e+001 1.8465962e+001 8.0000010e+000
      endloop
   endfacet
   facet normal 6.1421271e-001 -7.8914051e-001 0.0000000e+000
      outer loop
         vertex 4.8376311e+001 2.0469453e+001 5.0000010e+000
         vertex 4.5802226e+001 1.8465962e+001 8.0000010e+000
         vertex 4.5802226e+001 1.8465962e+001 5.0000010e+000
      endloop
   endfacet
   facet normal 4.7594739e-001 -8.7947375e-001 0.0000000e+000
      outer loop
         vertex 4.5802226e+001 1.8465962e+001 5.0000010e+000
         vertex 4.5802226e+001 1.8465962e+001 8.0000010e+000
         vertex 4.2933485e+001 1.6913477e+001 8.0000010e+000
      endloop
   endfacet
   facet normal 4.7594739e-001 -8.7947375e-001 -1.7152747e-016
      outer loop
         vertex 4.5802226e+001 1.8465962e+001 5.0000010e+000
         vertex 4.2933485e+001 1.6913477e+001 8.0000010e+000
         vertex 4.2933485e+001 1.6913477e+001 5.0000010e+000
      endloop
   endfacet
   facet normal 3.2469947e-001 -9.4581724e-001 7.0205957e-016
      outer loop
         vertex 4.2933485e+001 1.6913477e+001 5.0000010e+000
         vertex 4.2933485e+001 1.6913477e+001 8.0000010e+000
         vertex 3.9848338e+001 1.5854345e+001 8.0000010e+000
      endloop
   endfacet
   facet normal 3.2469947e-001 -9.4581724e-001 0.0000000e+000
      outer loop
         vertex 4.2933485e+001 1.6913477e+001 5.0000010e+000
         vertex 3.9848338e+001 1.5854345e+001 8.0000010e+000
         vertex 3.9848338e+001 1.5854345e+001 5.0000010e+000
      endloop
   endfacet
   facet normal 1.6459459e-001 -9.8636130e-001 0.0000000e+000
      outer loop
         vertex 3.9848338e+001 1.5854345e+001 5.0000010e+000
         vertex 3.9848338e+001 1.5854345e+001 8.0000010e+000
         vertex 3.6630942e+001 1.5317456e+001 8.0000010e+000
      endloop
   endfacet
   facet normal 1.6459459e-001 -9.8636130e-001 -3.8983830e-016
      outer loop
         vertex 3.9848338e+001 1.5854345e+001 5.0000010e+000
         vertex 3.6630942e+001 1.5317456e+001 8.0000010e+000
         vertex 3.6630942e+001 1.5317456e+001 5.0000010e+000
      endloop
   endfacet
   facet normal -0.0000000e+000 -1.0000000e+000 0.0000000e+000
      outer loop
         vertex 3.6630942e+001 1.5317456e+001 5.0000010e+000
         vertex 3.6630942e+001 1.5317456e+001 8.0000010e+000
         vertex 3.3369058e+001 1.5317456e+001 8.0000010e+000
      endloop
   endfacet
   facet normal -0.0000000e+000 -1.0000000e+000 0.0000000e+000
      outer loop
         vertex 3.6630942e+001 1.5317456e+001 5.0000010e+000
         vertex 3.3369058e+001 1.5317456e+001 8.0000010e+000
         vertex 3.3369058e+001 1.5317456e+001 5.0000010e+000
      endloop
   endfacet
   facet normal -1.6459459e-001 -9.8636130e-001 3.8983830e-016
      outer loop
         vertex 3.3369058e+001 1.5317456e+001 5.0000010e+000
         vertex 3.3369058e+001 1.5317456e+001 8.0000010e+000
         vertex 3.0151662e+001 1.5854345e+001 8.0000010e+000
      endloop
   endfacet
   facet normal -1.6459459e-001 -9.8636130e-001 1.9491915e-016
      outer loop
         vertex 3.3369058e+001 1.5317456e+001 5.0000010e+000
         vertex 3.0151662e+001 1.5854345e+001 8.0000010e+000
         vertex 3.0151662e+001 1.5854345e+001 5.0000010e+000
      endloop
   endfacet
   facet normal -3.2469947e-001 -9.4581724e-001 3.8452142e-016
      outer loop
         vertex 3.0151662e+001 1.5854345e+001 5.0000010e+000
         vertex 3.0151662e+001 1.5854345e+001 8.0000010e+000
         vertex 2.7066515e+001 1.6913477e+001 8.0000010e+000
      endloop
   endfacet
   facet normal -3.2469947e-001 -9.4581724e-001 -1.0865810e-015
      outer loop
         vertex 3.0151662e+001 1.5854345e+001 5.0000010e+000
         vertex 2.7066515e+001 1.6913477e+001 8.0000010e+000
         vertex 2.7066515e+001 1.6913477e+001 5.0000010e+000
      endloop
   endfacet
   facet normal -4.7594739e-001 -8.7947375e-001 -3.9210747e-016
      outer loop
         vertex 2.7066515e+001 1.6913477e+001 5.0000010e+000
         vertex 2.7066515e+001 1.6913477e+001 8.0000010e+000
         vertex 2.4197774e+001 1.8465962e+001 8.0000010e+000
      endloop
   endfacet
   facet normal -4.7594739e-001 -8.7947375e-001 5.6363494e-016
      outer loop
         vertex 2.7066515e+001 1.6913477e+001 5.0000010e+000
         vertex 2.4197774e+001 1.8465962e+001 8.0000010e+000
         vertex 2.4197774e+001 1.8465962e+001 5.0000010e+000
      endloop
   endfacet
   facet normal -6.1421271e-001 -7.8914051e-001 7.2737397e-016
      outer loop
         vertex 2.4197774e+001 1.8465962e+001 5.0000010e+000
         vertex 2.4197774e+001 1.8465962e+001 8.0000010e+000
         vertex 2.1623689e+001 2.0469453e+001 8.0000010e+000
      endloop
   endfacet
   facet normal -6.1421271e-001 -7.8914051e-001 7.2737397e-016
      outer loop
         vertex 2.4197774e+001 1.8465962e+001 5.0000010e+000
         vertex 2.1623689e+001 2.0469453e+001 8.0000010e+000
         vertex 2.1623689e+001 2.0469453e+001 5.0000010e+000
      endloop
   endfacet
   facet normal -7.3572391e-001 -6.7728157e-001 8.7127213e-016
      outer loop
         vertex 2.1623689e+001 2.0469453e+001 5.0000010e+000
         vertex 2.1623689e+001 2.0469453e+001 8.0000010e+000
         vertex 1.9414475e+001 2.2869299e+001 8.0000010e+000
      endloop
   endfacet
   facet normal -7.3572391e-001 -6.7728157e-001 -7.3285287e-016
      outer loop
         vertex 2.1623689e+001 2.0469453e+001 5.0000010e+000
         vertex 1.9414475e+001 2.2869299e+001 8.0000010e+000
         vertex 1.9414475e+001 2.2869299e+001 5.0000010e+000
      endloop
   endfacet
   facet normal -8.3716648e-001 -5.4694816e-001 -3.0402920e-016
      outer loop
         vertex 1.9414475e+001 2.2869299e+001 5.0000010e+000
         vertex 1.9414475e+001 2.2869299e+001 8.0000010e+000
         vertex 1.7630393e+001 2.5600039e+001 8.0000010e+000
      endloop
   endfacet
   facet normal -8.3716648e-001 -5.4694816e-001 1.2954335e-015
      outer loop
         vertex 1.9414475e+001 2.2869299e+001 5.0000010e+000
         vertex 1.7630393e+001 2.5600039e+001 8.0000010e+000
         vertex 1.7630393e+001 2.5600039e+001 5.0000010e+000
      endloop
   endfacet
   facet normal -9.1577333e-001 -4.0169542e-001 9.5140589e-016
      outer loop
         vertex 1.7630393e+001 2.5600039e+001 5.0000010e+000
         vertex 1.7630393e+001 2.5600039e+001 8.0000010e+000
         vertex 1.6320109e+001 2.8587185e+001 8.0000010e+000
      endloop
   endfacet
   facet normal -9.1577333e-001 -4.0169542e-001 -0.0000000e+000
      outer loop
         vertex 1.7630393e+001 2.5600039e+001 5.0000010e+000
         vertex 1.6320109e+001 2.8587185e+001 8.0000010e+000
         vertex 1.6320109e+001 2.8587185e+001 5.0000010e+000
      endloop
   endfacet
   facet normal -9.6940027e-001 -2.4548549e-001 0.0000000e+000
      outer loop
         vertex 1.6320109e+001 2.8587185e+001 5.0000010e+000
         vertex 1.6320109e+001 2.8587185e+001 8.0000010e+000
         vertex 1.5519364e+001 3.1749257e+001 8.0000010e+000
      endloop
   endfacet
   facet normal -9.6940027e-001 -2.4548549e-001 -1.1628529e-015
      outer loop
         vertex 1.6320109e+001 2.8587185e+001 5.0000010e+000
         vertex 1.5519364e+001 3.1749257e+001 8.0000010e+000
         vertex 1.5519364e+001 3.1749257e+001 5.0000010e+000
      endloop
   endfacet
   facet normal -9.9658449e-001 -8.2579345e-002 -3.9117436e-016
      outer loop
         vertex 1.5519364e+001 3.1749257e+001 5.0000010e+000
         vertex 1.5519364e+001 3.1749257e+001 8.0000010e+000
         vertex 1.5250000e+001 3.5000000e+001 8.0000010e+000
      endloop
   endfacet
   facet normal -9.9658449e-001 -8.2579345e-002 -0.0000000e+000
      outer loop
         vertex 1.5519364e+001 3.1749257e+001 5.0000010e+000
         vertex 1.5250000e+001 3.5000000e+001 8.0000010e+000
         vertex 1.5250000e+001 3.5000000e+001 5.0000010e+000
      endloop
   endfacet
   facet normal -1.0000000e+000 0.0000000e+000 0.0000000e+000
      outer loop
         vertex 2.5000000e+001 4.3500000e+001 5.0000010e+000
         vertex 2.5000000e+001 4.3500000e+001 8.0000010e+000
         vertex 2.5000000e+001 6.5000000e+001 5.0000010e+000
      endloop
   endfacet
   facet normal -1.0000000e+000 0.0000000e+000 0.0000000e+000
      outer loop
         vertex 2.5000000e+001 6.5000000e+001 5.0000010e+000
         vertex 2.5000000e+001 4.3500000e+001 8.0000010e+000
         vertex 2.5000000e+001 7.0000000e+001 8.0000010e+000
      endloop
   endfacet
   facet normal -1.0000000e+000 0.0000000e+000 0.0000000e+000
      outer loop
         vertex 2.5000000e+001 6.5000000e+001 5.0000010e+000
         vertex 2.5000000e+001 7.0000000e+001 8.0000010e+000
         vertex 2.5000000e+001 7.0000000e+001 1.0000000e-006
      endloop
   endfacet
   facet normal -1.0000000e+000 0.0000000e+000 0.0000000e+000
      outer loop
         vertex 2.5000000e+001 7.0000000e+001 1.0000000e-006
         vertex 2.5000000e+001 6.5000000e+001 1.0000000e-006
         vertex 2.5000000e+001 6.5000000e+001 5.0000010e+000
      endloop
   endfacet
   facet normal 0.0000000e+000 -1.0000000e+000 0.0000000e+000
      outer loop
         vertex 2.5000000e+001 6.5000000e+001 5.0000010e+000
         vertex 2.5000000e+001 6.5000000e+001 1.0000000e-006
         vertex 4.5000000e+001 6.5000000e+001 5.0000010e+000
      endloop
   endfacet
   facet normal 0.0000000e+000 -1.0000000e+000 -0.0000000e+000
      outer loop
         vertex 4.5000000e+001 6.5000000e+001 5.0000010e+000
         vertex 2.5000000e+001 6.5000000e+001 1.0000000e-006
         vertex 4.5000000e+001 6.5000000e+001 1.0000000e-006
      endloop
   endfacet
   facet normal 4.4408921e-017 0.0000000e+000 -1.0000000e+000
      outer loop
         vertex 4.5000000e+001 7.0000000e+001 1.0000000e-006
         vertex 4.5000000e+001 6.5000000e+001 1.0000000e-006
         vertex 2.5000000e+001 7.0000000e+001 1.0000000e-006
      endloop
   endfacet
   facet normal 4.4408921e-017 0.0000000e+000 -1.0000000e+000
      outer loop
         vertex 2.5000000e+001 7.0000000e+001 1.0000000e-006
         vertex 4.5000000e+001 6.5000000e+001 1.0000000e-006
         vertex 2.5000000e+001 6.5000000e+001 1.0000000e-006
      endloop
   endfacet
   facet normal 1.0000000e+000 0.0000000e+000 -0.0000000e+000
      outer loop
         vertex 4.5000000e+001 6.5000000e+001 1.0000000e-006
         vertex 4.5000000e+001 7.0000000e+001 1.0000000e-006
         vertex 4.5000000e+001 6.5000000e+001 5.0000010e+000
      endloop
   endfacet
   facet normal 1.0000000e+000 -0.0000000e+000 0.0000000e+000
      outer loop
         vertex 4.5000000e+001 6.5000000e+001 5.0000010e+000
         vertex 4.5000000e+001 7.0000000e+001 1.0000000e-006
         vertex 4.5000000e+001 7.0000000e+001 8.0000010e+000
      endloop
   endfacet
   facet normal 1.0000000e+000 0.0000000e+000 -0.0000000e+000
      outer loop
         vertex 4.5000000e+001 6.5000000e+001 5.0000010e+000
         vertex 4.5000000e+001 7.0000000e+001 8.0000010e+000
         vertex 4.5000000e+001 4.3500000e+001 8.0000010e+000
      endloop
   endfacet
   facet normal 1.0000000e+000 -0.0000000e+000 0.0000000e+000
      outer loop
         vertex 4.5000000e+001 4.3500000e+001 8.0000010e+000
         vertex 4.5000000e+001 4.3500000e+001 5.0000010e+000
         vertex 4.5000000e+001 6.5000000e+001 5.0000010e+000
      endloop
   endfacet
   facet normal 0.0000000e+000 1.0000000e+000 0.0000000e+000
      outer loop
         vertex 4.5000000e+001 7.0000000e+001 8.0000010e+000
         vertex 4.5000000e+001 7.0000000e+001 1.0000000e-006
         vertex 2.5000000e+001 7.0000000e+001 8.0000010e+000
      endloop
   endfacet
   facet normal 0.0000000e+000 1.0000000e+000 0.0000000e+000
      outer loop
         vertex 2.5000000e+001 7.0000000e+001 8.0000010e+000
         vertex 4.5000000e+001 7.0000000e+001 1.0000000e-006
         vertex 2.5000000e+001 7.0000000e+001 1.0000000e-006
      endloop
   endfacet
endsolid AutoCAD
