solid AutoCAD
   facet normal -6.3990498e-001 7.6845404e-001 3.2693315e-016
      outer loop
         vertex 4.7015702e+001 1.9499910e+001 8.0000010e+000
         vertex 4.9799245e+001 2.1817815e+001 8.0000010e+000
         vertex 4.7015702e+001 1.9499910e+001 5.0000010e+000
      endloop
   endfacet
   facet normal -6.3990498e-001 7.6845404e-001 -1.5189630e-015
      outer loop
         vertex 4.7015702e+001 1.9499910e+001 5.0000010e+000
         vertex 4.9799245e+001 2.1817815e+001 8.0000010e+000
         vertex 4.9799245e+001 2.1817815e+001 5.0000010e+000
      endloop
   endfacet
   facet normal -7.7572534e-001 6.3107067e-001 -6.2115647e-017
      outer loop
         vertex 4.9799245e+001 2.1817815e+001 5.0000010e+000
         vertex 4.9799245e+001 2.1817815e+001 8.0000010e+000
         vertex 5.2085149e+001 2.4627696e+001 8.0000010e+000
      endloop
   endfacet
   facet normal -7.7572534e-001 6.3107067e-001 -1.4946756e-015
      outer loop
         vertex 4.9799245e+001 2.1817815e+001 5.0000010e+000
         vertex 5.2085149e+001 2.4627696e+001 8.0000010e+000
         vertex 5.2085149e+001 2.4627696e+001 5.0000010e+000
      endloop
   endfacet
   facet normal -8.8259457e-001 4.7013489e-001 -1.1135031e-015
      outer loop
         vertex 5.2085149e+001 2.4627696e+001 5.0000010e+000
         vertex 5.2085149e+001 2.4627696e+001 8.0000010e+000
         vertex 5.3788101e+001 2.7824686e+001 8.0000010e+000
      endloop
   endfacet
   facet normal -8.8259457e-001 4.7013489e-001 -2.7837578e-015
      outer loop
         vertex 5.2085149e+001 2.4627696e+001 5.0000010e+000
         vertex 5.3788101e+001 2.7824686e+001 8.0000010e+000
         vertex 5.3788101e+001 2.7824686e+001 5.0000010e+000
      endloop
   endfacet
   facet normal -9.5652418e-001 2.9165304e-001 -1.7269329e-015
      outer loop
         vertex 5.3788101e+001 2.7824686e+001 5.0000010e+000
         vertex 5.3788101e+001 2.7824686e+001 8.0000010e+000
         vertex 5.4844545e+001 3.1289468e+001 8.0000010e+000
      endloop
   endfacet
   facet normal -9.5652418e-001 2.9165304e-001 -2.7630926e-015
      outer loop
         vertex 5.3788101e+001 2.7824686e+001 5.0000010e+000
         vertex 5.4844545e+001 3.1289468e+001 8.0000010e+000
         vertex 5.4844545e+001 3.1289468e+001 5.0000010e+000
      endloop
   endfacet
   facet normal -9.9475500e-001 1.0228630e-001 -9.6905047e-016
      outer loop
         vertex 5.4844545e+001 3.1289468e+001 5.0000010e+000
         vertex 5.4844545e+001 3.1289468e+001 8.0000010e+000
         vertex 5.5215053e+001 3.4892732e+001 5.0000010e+000
      endloop
   endfacet
   facet normal -9.9475500e-001 1.0228630e-001 -4.9039972e-016
      outer loop
         vertex 5.5215053e+001 3.4892732e+001 5.0000010e+000
         vertex 5.4844545e+001 3.1289468e+001 8.0000010e+000
         vertex 5.5215053e+001 3.4892732e+001 8.0000010e+000
      endloop
   endfacet
   facet normal -9.9586022e-001 -9.0897908e-002 4.3057899e-016
      outer loop
         vertex 5.5215053e+001 3.4892732e+001 5.0000010e+000
         vertex 5.5215053e+001 3.4892732e+001 8.0000010e+000
         vertex 5.4885797e+001 3.8500000e+001 8.0000010e+000
      endloop
   endfacet
   facet normal -9.9586022e-001 -9.0897908e-002 -4.7173416e-015
      outer loop
         vertex 5.4885797e+001 3.8500000e+001 8.0000010e+000
         vertex 5.4885797e+001 3.8500000e+001 5.0000010e+000
         vertex 5.5215053e+001 3.4892732e+001 5.0000010e+000
      endloop
   endfacet
   facet normal 6.3990498e-001 7.6845404e-001 1.6346657e-016
      outer loop
         vertex 2.5915018e+001 1.9499910e+001 5.0000010e+000
         vertex 2.3131475e+001 2.1817815e+001 5.0000010e+000
         vertex 2.5915018e+001 1.9499910e+001 8.0000010e+000
      endloop
   endfacet
   facet normal 6.3990498e-001 7.6845404e-001 -7.5779973e-016
      outer loop
         vertex 2.5915018e+001 1.9499910e+001 8.0000010e+000
         vertex 2.3131475e+001 2.1817815e+001 5.0000010e+000
         vertex 2.3131475e+001 2.1817815e+001 8.0000010e+000
      endloop
   endfacet
   facet normal 7.7572534e-001 6.3107067e-001 -9.1864334e-016
      outer loop
         vertex 2.3131475e+001 2.1817815e+001 8.0000010e+000
         vertex 2.3131475e+001 2.1817815e+001 5.0000010e+000
         vertex 2.0845571e+001 2.4627696e+001 5.0000010e+000
      endloop
   endfacet
   facet normal 7.7572534e-001 6.3107067e-001 -7.4733780e-016
      outer loop
         vertex 2.3131475e+001 2.1817815e+001 8.0000010e+000
         vertex 2.0845571e+001 2.4627696e+001 5.0000010e+000
         vertex 2.0845571e+001 2.4627696e+001 8.0000010e+000
      endloop
   endfacet
   facet normal 8.8259457e-001 4.7013489e-001 -5.5675155e-016
      outer loop
         vertex 2.0845571e+001 2.4627696e+001 8.0000010e+000
         vertex 2.0845571e+001 2.4627696e+001 5.0000010e+000
         vertex 1.9142619e+001 2.7824686e+001 5.0000010e+000
      endloop
   endfacet
   facet normal 8.8259457e-001 4.7013489e-001 -1.3660234e-016
      outer loop
         vertex 2.0845571e+001 2.4627696e+001 8.0000010e+000
         vertex 1.9142619e+001 2.7824686e+001 5.0000010e+000
         vertex 1.9142619e+001 2.7824686e+001 8.0000010e+000
      endloop
   endfacet
   facet normal 9.5652418e-001 2.9165304e-001 8.8395804e-016
      outer loop
         vertex 1.9142619e+001 2.7824686e+001 8.0000010e+000
         vertex 1.9142619e+001 2.7824686e+001 5.0000010e+000
         vertex 1.8086175e+001 3.1289468e+001 5.0000010e+000
      endloop
   endfacet
   facet normal 9.5652418e-001 2.9165304e-001 1.2293446e-015
      outer loop
         vertex 1.9142619e+001 2.7824686e+001 8.0000010e+000
         vertex 1.8086175e+001 3.1289468e+001 5.0000010e+000
         vertex 1.8086175e+001 3.1289468e+001 8.0000010e+000
      endloop
   endfacet
   facet normal 9.9475500e-001 1.0228630e-001 1.9926592e-015
      outer loop
         vertex 1.8086175e+001 3.1289468e+001 8.0000010e+000
         vertex 1.8086175e+001 3.1289468e+001 5.0000010e+000
         vertex 1.7715667e+001 3.4892732e+001 8.0000010e+000
      endloop
   endfacet
   facet normal 9.9475500e-001 1.0228630e-001 -7.3559959e-016
      outer loop
         vertex 1.7715667e+001 3.4892732e+001 8.0000010e+000
         vertex 1.8086175e+001 3.1289468e+001 5.0000010e+000
         vertex 1.7715667e+001 3.4892732e+001 5.0000010e+000
      endloop
   endfacet
   facet normal 9.9586022e-001 -9.0897908e-002 6.4586848e-016
      outer loop
         vertex 1.7715667e+001 3.4892732e+001 8.0000010e+000
         vertex 1.7715667e+001 3.4892732e+001 5.0000010e+000
         vertex 1.8044923e+001 3.8500000e+001 5.0000010e+000
      endloop
   endfacet
   facet normal 9.9586022e-001 -9.0897908e-002 -5.8966770e-015
      outer loop
         vertex 1.8044923e+001 3.8500000e+001 5.0000010e+000
         vertex 1.8044923e+001 3.8500000e+001 8.0000010e+000
         vertex 1.7715667e+001 3.4892732e+001 8.0000010e+000
      endloop
   endfacet
   facet normal 4.3723951e-001 8.9934510e-001 5.2410413e-016
      outer loop
         vertex 2.6776589e+001 1.8947268e+001 8.0000010e+000
         vertex 2.9824757e+001 1.7465323e+001 8.0000010e+000
         vertex 2.6776589e+001 1.8947268e+001 5.0000010e+000
      endloop
   endfacet
   facet normal 4.3723951e-001 8.9934510e-001 2.9447364e-017
      outer loop
         vertex 2.6776589e+001 1.8947268e+001 5.0000010e+000
         vertex 2.9824757e+001 1.7465323e+001 8.0000010e+000
         vertex 2.9824757e+001 1.7465323e+001 5.0000010e+000
      endloop
   endfacet
   facet normal 2.6819236e-001 9.6336538e-001 5.0564669e-016
      outer loop
         vertex 2.9824757e+001 1.7465323e+001 5.0000010e+000
         vertex 2.9824757e+001 1.7465323e+001 8.0000010e+000
         vertex 3.3089911e+001 1.6556333e+001 8.0000010e+000
      endloop
   endfacet
   facet normal 2.6819236e-001 9.6336538e-001 -1.2704142e-015
      outer loop
         vertex 2.9824757e+001 1.7465323e+001 5.0000010e+000
         vertex 3.3089911e+001 1.6556333e+001 8.0000010e+000
         vertex 3.3089911e+001 1.6556333e+001 5.0000010e+000
      endloop
   endfacet
   facet normal 9.0381878e-002 9.9590718e-001 -4.2813458e-016
      outer loop
         vertex 3.3089911e+001 1.6556333e+001 5.0000010e+000
         vertex 3.3089911e+001 1.6556333e+001 8.0000010e+000
         vertex 3.6465360e+001 1.6250000e+001 8.0000010e+000
      endloop
   endfacet
   facet normal 9.0381878e-002 9.9590718e-001 -2.1406729e-016
      outer loop
         vertex 3.3089911e+001 1.6556333e+001 5.0000010e+000
         vertex 3.6465360e+001 1.6250000e+001 8.0000010e+000
         vertex 3.6465360e+001 1.6250000e+001 5.0000010e+000
      endloop
   endfacet
   facet normal -9.0381878e-002 9.9590718e-001 2.1406729e-016
      outer loop
         vertex 3.6465360e+001 1.6250000e+001 5.0000010e+000
         vertex 3.6465360e+001 1.6250000e+001 8.0000010e+000
         vertex 3.9840808e+001 1.6556333e+001 8.0000010e+000
      endloop
   endfacet
   facet normal -9.0381878e-002 9.9590718e-001 2.1406729e-016
      outer loop
         vertex 3.6465360e+001 1.6250000e+001 5.0000010e+000
         vertex 3.9840808e+001 1.6556333e+001 8.0000010e+000
         vertex 3.9840808e+001 1.6556333e+001 5.0000010e+000
      endloop
   endfacet
   facet normal -2.6819236e-001 9.6336538e-001 6.3520710e-016
      outer loop
         vertex 3.9840808e+001 1.6556333e+001 5.0000010e+000
         vertex 3.9840808e+001 1.6556333e+001 8.0000010e+000
         vertex 4.3105962e+001 1.7465323e+001 8.0000010e+000
      endloop
   endfacet
   facet normal -2.6819236e-001 9.6336538e-001 -5.0564669e-016
      outer loop
         vertex 3.9840808e+001 1.6556333e+001 5.0000010e+000
         vertex 4.3105962e+001 1.7465323e+001 8.0000010e+000
         vertex 4.3105962e+001 1.7465323e+001 5.0000010e+000
      endloop
   endfacet
   facet normal -4.3723951e-001 8.9934510e-001 -2.9447364e-017
      outer loop
         vertex 4.3105962e+001 1.7465323e+001 5.0000010e+000
         vertex 4.3105962e+001 1.7465323e+001 8.0000010e+000
         vertex 4.6154131e+001 1.8947268e+001 8.0000010e+000
      endloop
   endfacet
   facet normal -4.3723951e-001 8.9934510e-001 -1.0944859e-015
      outer loop
         vertex 4.3105962e+001 1.7465323e+001 5.0000010e+000
         vertex 4.6154131e+001 1.8947268e+001 8.0000010e+000
         vertex 4.6154131e+001 1.8947268e+001 5.0000010e+000
      endloop
   endfacet
   facet normal -0.0000000e+000 1.0000000e+000 0.0000000e+000
      outer loop
         vertex 4.6465360e+001 4.3500000e+001 5.0000010e+000
         vertex 4.6465360e+001 4.3500000e+001 8.0000010e+000
         vertex 5.6215360e+001 4.3500000e+001 5.0000010e+000
      endloop
   endfacet
   facet normal 0.0000000e+000 1.0000000e+000 -0.0000000e+000
      outer loop
         vertex 5.6215360e+001 4.3500000e+001 5.0000010e+000
         vertex 4.6465360e+001 4.3500000e+001 8.0000010e+000
         vertex 5.6215360e+001 4.3500000e+001 8.0000010e+000
      endloop
   endfacet
   facet normal 0.0000000e+000 1.0000000e+000 0.0000000e+000
      outer loop
         vertex 2.6465360e+001 4.3500000e+001 8.0000010e+000
         vertex 2.6465360e+001 4.3500000e+001 5.0000010e+000
         vertex 1.6715360e+001 4.3500000e+001 8.0000010e+000
      endloop
   endfacet
   facet normal 0.0000000e+000 1.0000000e+000 0.0000000e+000
      outer loop
         vertex 1.6715360e+001 4.3500000e+001 8.0000010e+000
         vertex 2.6465360e+001 4.3500000e+001 5.0000010e+000
         vertex 1.6715360e+001 4.3500000e+001 5.0000010e+000
      endloop
   endfacet
   facet normal 1.0000000e+000 -0.0000000e+000 0.0000000e+000
      outer loop
         vertex 5.6215360e+001 3.5000000e+001 8.0000010e+000
         vertex 5.6215360e+001 3.5000000e+001 5.0000010e+000
         vertex 5.6215360e+001 4.3500000e+001 8.0000010e+000
      endloop
   endfacet
   facet normal 1.0000000e+000 -0.0000000e+000 0.0000000e+000
      outer loop
         vertex 5.6215360e+001 4.3500000e+001 8.0000010e+000
         vertex 5.6215360e+001 3.5000000e+001 5.0000010e+000
         vertex 5.6215360e+001 4.3500000e+001 5.0000010e+000
      endloop
   endfacet
   facet normal -1.0000000e+000 -0.0000000e+000 -0.0000000e+000
      outer loop
         vertex 1.6715360e+001 4.3500000e+001 8.0000010e+000
         vertex 1.6715360e+001 4.3500000e+001 5.0000010e+000
         vertex 1.6715360e+001 3.5000000e+001 8.0000010e+000
      endloop
   endfacet
   facet normal -1.0000000e+000 -0.0000000e+000 -0.0000000e+000
      outer loop
         vertex 1.6715360e+001 3.5000000e+001 8.0000010e+000
         vertex 1.6715360e+001 4.3500000e+001 5.0000010e+000
         vertex 1.6715360e+001 3.5000000e+001 5.0000010e+000
      endloop
   endfacet
   facet normal 9.9518473e-001 -9.8017140e-002 0.0000000e+000
      outer loop
         vertex 5.6215360e+001 3.5000000e+001 8.0000010e+000
         vertex 5.5835869e+001 3.1146966e+001 8.0000010e+000
         vertex 5.6215360e+001 3.5000000e+001 5.0000010e+000
      endloop
   endfacet
   facet normal 9.9518473e-001 -9.8017140e-002 -2.0088441e-015
      outer loop
         vertex 5.6215360e+001 3.5000000e+001 5.0000010e+000
         vertex 5.5835869e+001 3.1146966e+001 8.0000010e+000
         vertex 5.5835869e+001 3.1146966e+001 5.0000010e+000
      endloop
   endfacet
   facet normal 9.5694034e-001 -2.9028468e-001 -1.2351917e-015
      outer loop
         vertex 5.5835869e+001 3.1146966e+001 5.0000010e+000
         vertex 5.5835869e+001 3.1146966e+001 8.0000010e+000
         vertex 5.4711981e+001 2.7442002e+001 8.0000010e+000
      endloop
   endfacet
   facet normal 9.5694034e-001 -2.9028468e-001 -8.9142556e-016
      outer loop
         vertex 5.5835869e+001 3.1146966e+001 5.0000010e+000
         vertex 5.4711981e+001 2.7442002e+001 8.0000010e+000
         vertex 5.4711981e+001 2.7442002e+001 5.0000010e+000
      endloop
   endfacet
   facet normal 8.8192126e-001 -4.7139674e-001 1.4417435e-016
      outer loop
         vertex 5.4711981e+001 2.7442002e+001 5.0000010e+000
         vertex 5.4711981e+001 2.7442002e+001 8.0000010e+000
         vertex 5.2886885e+001 2.4027488e+001 8.0000010e+000
      endloop
   endfacet
   facet normal 8.8192126e-001 -4.7139674e-001 5.5824588e-016
      outer loop
         vertex 5.4711981e+001 2.7442002e+001 5.0000010e+000
         vertex 5.2886885e+001 2.4027488e+001 8.0000010e+000
         vertex 5.2886885e+001 2.4027488e+001 5.0000010e+000
      endloop
   endfacet
   facet normal 7.7301045e-001 -6.3439328e-001 7.5127257e-016
      outer loop
         vertex 5.2886885e+001 2.4027488e+001 5.0000010e+000
         vertex 5.2886885e+001 2.4027488e+001 8.0000010e+000
         vertex 5.0430719e+001 2.1034641e+001 8.0000010e+000
      endloop
   endfacet
   facet normal 7.7301045e-001 -6.3439328e-001 -1.8308565e-015
      outer loop
         vertex 5.2886885e+001 2.4027488e+001 5.0000010e+000
         vertex 5.0430719e+001 2.1034641e+001 8.0000010e+000
         vertex 5.0430719e+001 2.1034641e+001 5.0000010e+000
      endloop
   endfacet
   facet normal 6.3439328e-001 -7.7301045e-001 -1.5025451e-015
      outer loop
         vertex 5.0430719e+001 2.1034641e+001 5.0000010e+000
         vertex 5.0430719e+001 2.1034641e+001 8.0000010e+000
         vertex 4.7437872e+001 1.8578475e+001 8.0000010e+000
      endloop
   endfacet
   facet normal 6.3439328e-001 -7.7301045e-001 9.1542827e-016
      outer loop
         vertex 5.0430719e+001 2.1034641e+001 5.0000010e+000
         vertex 4.7437872e+001 1.8578475e+001 8.0000010e+000
         vertex 4.7437872e+001 1.8578475e+001 5.0000010e+000
      endloop
   endfacet
   facet normal 4.7139674e-001 -8.8192126e-001 1.0444046e-015
      outer loop
         vertex 4.7437872e+001 1.8578475e+001 5.0000010e+000
         vertex 4.7437872e+001 1.8578475e+001 8.0000010e+000
         vertex 4.4023358e+001 1.6753379e+001 8.0000010e+000
      endloop
   endfacet
   facet normal 4.7139674e-001 -8.8192126e-001 -7.2087177e-017
      outer loop
         vertex 4.7437872e+001 1.8578475e+001 5.0000010e+000
         vertex 4.4023358e+001 1.6753379e+001 8.0000010e+000
         vertex 4.4023358e+001 1.6753379e+001 5.0000010e+000
      endloop
   endfacet
   facet normal 2.9028468e-001 -9.5694034e-001 4.4571278e-016
      outer loop
         vertex 4.4023358e+001 1.6753379e+001 5.0000010e+000
         vertex 4.4023358e+001 1.6753379e+001 8.0000010e+000
         vertex 4.0318394e+001 1.5629491e+001 8.0000010e+000
      endloop
   endfacet
   facet normal 2.9028468e-001 -9.5694034e-001 -6.8753223e-016
      outer loop
         vertex 4.4023358e+001 1.6753379e+001 5.0000010e+000
         vertex 4.0318394e+001 1.5629491e+001 8.0000010e+000
         vertex 4.0318394e+001 1.5629491e+001 5.0000010e+000
      endloop
   endfacet
   facet normal 9.8017140e-002 -9.9518473e-001 -2.3215122e-016
      outer loop
         vertex 4.0318394e+001 1.5629491e+001 5.0000010e+000
         vertex 4.0318394e+001 1.5629491e+001 8.0000010e+000
         vertex 3.6465360e+001 1.5250000e+001 5.0000010e+000
      endloop
   endfacet
   facet normal 9.8017140e-002 -9.9518473e-001 -2.2940406e-016
      outer loop
         vertex 3.6465360e+001 1.5250000e+001 5.0000010e+000
         vertex 4.0318394e+001 1.5629491e+001 8.0000010e+000
         vertex 3.6465360e+001 1.5250000e+001 8.0000010e+000
      endloop
   endfacet
   facet normal -9.8017140e-002 -9.9518473e-001 2.3215122e-016
      outer loop
         vertex 3.6465360e+001 1.5250000e+001 5.0000010e+000
         vertex 3.6465360e+001 1.5250000e+001 8.0000010e+000
         vertex 3.2612326e+001 1.5629491e+001 5.0000010e+000
      endloop
   endfacet
   facet normal -9.8017140e-002 -9.9518473e-001 2.2940406e-016
      outer loop
         vertex 3.2612326e+001 1.5629491e+001 5.0000010e+000
         vertex 3.6465360e+001 1.5250000e+001 8.0000010e+000
         vertex 3.2612326e+001 1.5629491e+001 8.0000010e+000
      endloop
   endfacet
   facet normal -2.9028468e-001 -9.5694034e-001 6.8753223e-016
      outer loop
         vertex 3.2612326e+001 1.5629491e+001 5.0000010e+000
         vertex 3.2612326e+001 1.5629491e+001 8.0000010e+000
         vertex 2.8907362e+001 1.6753379e+001 8.0000010e+000
      endloop
   endfacet
   facet normal -2.9028468e-001 -9.5694034e-001 -4.4571278e-016
      outer loop
         vertex 3.2612326e+001 1.5629491e+001 5.0000010e+000
         vertex 2.8907362e+001 1.6753379e+001 8.0000010e+000
         vertex 2.8907362e+001 1.6753379e+001 5.0000010e+000
      endloop
   endfacet
   facet normal -4.7139674e-001 -8.8192126e-001 7.2087177e-017
      outer loop
         vertex 2.8907362e+001 1.6753379e+001 5.0000010e+000
         vertex 2.8907362e+001 1.6753379e+001 8.0000010e+000
         vertex 2.5492848e+001 1.8578475e+001 8.0000010e+000
      endloop
   endfacet
   facet normal -4.7139674e-001 -8.8192126e-001 -4.8615870e-016
      outer loop
         vertex 2.8907362e+001 1.6753379e+001 5.0000010e+000
         vertex 2.5492848e+001 1.8578475e+001 8.0000010e+000
         vertex 2.5492848e+001 1.8578475e+001 5.0000010e+000
      endloop
   endfacet
   facet normal -6.3439328e-001 -7.7301045e-001 -1.6415570e-016
      outer loop
         vertex 2.5492848e+001 1.8578475e+001 5.0000010e+000
         vertex 2.5492848e+001 1.8578475e+001 8.0000010e+000
         vertex 2.2500001e+001 2.1034641e+001 8.0000010e+000
      endloop
   endfacet
   facet normal -6.3439328e-001 -7.7301045e-001 -1.6667008e-015
      outer loop
         vertex 2.5492848e+001 1.8578475e+001 5.0000010e+000
         vertex 2.2500001e+001 2.1034641e+001 8.0000010e+000
         vertex 2.2500001e+001 2.1034641e+001 5.0000010e+000
      endloop
   endfacet
   facet normal -7.7301045e-001 -6.3439328e-001 -1.6667008e-015
      outer loop
         vertex 2.2500001e+001 2.1034641e+001 5.0000010e+000
         vertex 2.2500001e+001 2.1034641e+001 8.0000010e+000
         vertex 2.0043835e+001 2.4027488e+001 8.0000010e+000
      endloop
   endfacet
   facet normal -7.7301045e-001 -6.3439328e-001 -7.5127257e-016
      outer loop
         vertex 2.2500001e+001 2.1034641e+001 5.0000010e+000
         vertex 2.0043835e+001 2.4027488e+001 8.0000010e+000
         vertex 2.0043835e+001 2.4027488e+001 5.0000010e+000
      endloop
   endfacet
   facet normal -8.8192126e-001 -4.7139674e-001 -5.5824588e-016
      outer loop
         vertex 2.0043835e+001 2.4027488e+001 5.0000010e+000
         vertex 2.0043835e+001 2.4027488e+001 8.0000010e+000
         vertex 1.8218739e+001 2.7442002e+001 8.0000010e+000
      endloop
   endfacet
   facet normal -8.8192126e-001 -4.7139674e-001 -1.1885789e-015
      outer loop
         vertex 2.0043835e+001 2.4027488e+001 5.0000010e+000
         vertex 1.8218739e+001 2.7442002e+001 8.0000010e+000
         vertex 1.8218739e+001 2.7442002e+001 5.0000010e+000
      endloop
   endfacet
   facet normal -9.5694034e-001 -2.9028468e-001 -2.4181945e-016
      outer loop
         vertex 1.8218739e+001 2.7442002e+001 5.0000010e+000
         vertex 1.8218739e+001 2.7442002e+001 8.0000010e+000
         vertex 1.7094851e+001 3.1146966e+001 8.0000010e+000
      endloop
   endfacet
   facet normal -9.5694034e-001 -2.9028468e-001 -1.0312983e-015
      outer loop
         vertex 1.8218739e+001 2.7442002e+001 5.0000010e+000
         vertex 1.7094851e+001 3.1146966e+001 8.0000010e+000
         vertex 1.7094851e+001 3.1146966e+001 5.0000010e+000
      endloop
   endfacet
   facet normal -9.9518473e-001 -9.8017140e-002 -3.4822684e-016
      outer loop
         vertex 1.7094851e+001 3.1146966e+001 5.0000010e+000
         vertex 1.7094851e+001 3.1146966e+001 8.0000010e+000
         vertex 1.6715360e+001 3.5000000e+001 8.0000010e+000
      endloop
   endfacet
   facet normal -9.9518473e-001 -9.8017140e-002 -0.0000000e+000
      outer loop
         vertex 1.7094851e+001 3.1146966e+001 5.0000010e+000
         vertex 1.6715360e+001 3.5000000e+001 8.0000010e+000
         vertex 1.6715360e+001 3.5000000e+001 5.0000010e+000
      endloop
   endfacet
   facet normal -0.0000000e+000 -1.0000000e+000 0.0000000e+000
      outer loop
         vertex 5.4885797e+001 3.8500000e+001 5.0000010e+000
         vertex 5.4885797e+001 3.8500000e+001 8.0000010e+000
         vertex 1.8044923e+001 3.8500000e+001 5.0000010e+000
      endloop
   endfacet
   facet normal -0.0000000e+000 -1.0000000e+000 0.0000000e+000
      outer loop
         vertex 1.8044923e+001 3.8500000e+001 5.0000010e+000
         vertex 5.4885797e+001 3.8500000e+001 8.0000010e+000
         vertex 1.8044923e+001 3.8500000e+001 8.0000010e+000
      endloop
   endfacet
   facet normal -1.0000000e+000 0.0000000e+000 0.0000000e+000
      outer loop
         vertex 2.6465360e+001 4.3500000e+001 5.0000010e+000
         vertex 2.6465360e+001 4.3500000e+001 8.0000010e+000
         vertex 2.6465360e+001 6.5000000e+001 5.0000010e+000
      endloop
   endfacet
   facet normal -1.0000000e+000 0.0000000e+000 0.0000000e+000
      outer loop
         vertex 2.6465360e+001 6.5000000e+001 5.0000010e+000
         vertex 2.6465360e+001 4.3500000e+001 8.0000010e+000
         vertex 2.6465360e+001 7.0000000e+001 8.0000010e+000
      endloop
   endfacet
   facet normal -1.0000000e+000 0.0000000e+000 0.0000000e+000
      outer loop
         vertex 2.6465360e+001 6.5000000e+001 5.0000010e+000
         vertex 2.6465360e+001 7.0000000e+001 8.0000010e+000
         vertex 2.6465360e+001 7.0000000e+001 1.0000000e-006
      endloop
   endfacet
   facet normal -1.0000000e+000 0.0000000e+000 0.0000000e+000
      outer loop
         vertex 2.6465360e+001 7.0000000e+001 1.0000000e-006
         vertex 2.6465360e+001 6.5000000e+001 1.0000000e-006
         vertex 2.6465360e+001 6.5000000e+001 5.0000010e+000
      endloop
   endfacet
   facet normal 0.0000000e+000 -1.0000000e+000 0.0000000e+000
      outer loop
         vertex 2.6465360e+001 6.5000000e+001 5.0000010e+000
         vertex 2.6465360e+001 6.5000000e+001 1.0000000e-006
         vertex 4.6465360e+001 6.5000000e+001 5.0000010e+000
      endloop
   endfacet
   facet normal 0.0000000e+000 -1.0000000e+000 -0.0000000e+000
      outer loop
         vertex 4.6465360e+001 6.5000000e+001 5.0000010e+000
         vertex 2.6465360e+001 6.5000000e+001 1.0000000e-006
         vertex 4.6465360e+001 6.5000000e+001 1.0000000e-006
      endloop
   endfacet
   facet normal 4.4408921e-017 6.3108872e-032 -1.0000000e+000
      outer loop
         vertex 4.6465360e+001 7.0000000e+001 1.0000000e-006
         vertex 4.6465360e+001 6.5000000e+001 1.0000000e-006
         vertex 2.6465360e+001 7.0000000e+001 1.0000000e-006
      endloop
   endfacet
   facet normal 4.4408921e-017 0.0000000e+000 -1.0000000e+000
      outer loop
         vertex 2.6465360e+001 7.0000000e+001 1.0000000e-006
         vertex 4.6465360e+001 6.5000000e+001 1.0000000e-006
         vertex 2.6465360e+001 6.5000000e+001 1.0000000e-006
      endloop
   endfacet
   facet normal 1.0000000e+000 1.4210855e-015 0.0000000e+000
      outer loop
         vertex 4.6465360e+001 6.5000000e+001 1.0000000e-006
         vertex 4.6465360e+001 7.0000000e+001 1.0000000e-006
         vertex 4.6465360e+001 6.5000000e+001 5.0000010e+000
      endloop
   endfacet
   facet normal 1.0000000e+000 1.4210855e-015 -0.0000000e+000
      outer loop
         vertex 4.6465360e+001 6.5000000e+001 5.0000010e+000
         vertex 4.6465360e+001 7.0000000e+001 1.0000000e-006
         vertex 4.6465360e+001 7.0000000e+001 8.0000010e+000
      endloop
   endfacet
   facet normal 1.0000000e+000 2.6812933e-016 1.9215936e-015
      outer loop
         vertex 4.6465360e+001 6.5000000e+001 5.0000010e+000
         vertex 4.6465360e+001 7.0000000e+001 8.0000010e+000
         vertex 4.6465360e+001 4.3500000e+001 8.0000010e+000
      endloop
   endfacet
   facet normal 1.0000000e+000 -0.0000000e+000 0.0000000e+000
      outer loop
         vertex 4.6465360e+001 4.3500000e+001 8.0000010e+000
         vertex 4.6465360e+001 4.3500000e+001 5.0000010e+000
         vertex 4.6465360e+001 6.5000000e+001 5.0000010e+000
      endloop
   endfacet
   facet normal 0.0000000e+000 1.0000000e+000 0.0000000e+000
      outer loop
         vertex 4.6465360e+001 7.0000000e+001 8.0000010e+000
         vertex 4.6465360e+001 7.0000000e+001 1.0000000e-006
         vertex 2.6465360e+001 7.0000000e+001 8.0000010e+000
      endloop
   endfacet
   facet normal 0.0000000e+000 1.0000000e+000 0.0000000e+000
      outer loop
         vertex 2.6465360e+001 7.0000000e+001 8.0000010e+000
         vertex 4.6465360e+001 7.0000000e+001 1.0000000e-006
         vertex 2.6465360e+001 7.0000000e+001 1.0000000e-006
      endloop
   endfacet
   facet normal -7.0710678e-001 7.0710678e-001 1.6747653e-015
      outer loop
         vertex 2.5915018e+001 1.9499910e+001 5.0000010e+000
         vertex 2.5915018e+001 1.9499910e+001 8.0000010e+000
         vertex 3.1778452e+001 2.5363345e+001 5.0000010e+000
      endloop
   endfacet
   facet normal -7.0710678e-001 7.0710678e-001 8.5688615e-016
      outer loop
         vertex 3.1778452e+001 2.5363345e+001 5.0000010e+000
         vertex 2.5915018e+001 1.9499910e+001 8.0000010e+000
         vertex 3.1778452e+001 2.5363345e+001 8.0000010e+000
      endloop
   endfacet
   facet normal -0.0000000e+000 0.0000000e+000 -1.0000000e+000
      outer loop
         vertex 3.1778452e+001 2.5363345e+001 5.0000010e+000
         vertex 2.6776589e+001 1.8947268e+001 5.0000010e+000
         vertex 2.5915018e+001 1.9499910e+001 5.0000010e+000
      endloop
   endfacet
   facet normal 0.0000000e+000 -0.0000000e+000 -1.0000000e+000
      outer loop
         vertex 2.5915018e+001 1.9499910e+001 5.0000010e+000
         vertex 2.6776589e+001 1.8947268e+001 5.0000010e+000
         vertex 2.5492848e+001 1.8578475e+001 5.0000010e+000
      endloop
   endfacet
   facet normal -0.0000000e+000 0.0000000e+000 -1.0000000e+000
      outer loop
         vertex 2.5915018e+001 1.9499910e+001 5.0000010e+000
         vertex 2.5492848e+001 1.8578475e+001 5.0000010e+000
         vertex 2.2500001e+001 2.1034641e+001 5.0000010e+000
      endloop
   endfacet
   facet normal 5.5448123e-015 -4.3226405e-015 -1.0000000e+000
      outer loop
         vertex 2.6776589e+001 1.8947268e+001 5.0000010e+000
         vertex 3.1778452e+001 2.5363345e+001 5.0000010e+000
         vertex 3.2590360e+001 2.4761039e+001 5.0000010e+000
      endloop
   endfacet
   facet normal 6.9939537e-015 -2.3691998e-015 -1.0000000e+000
      outer loop
         vertex 3.2590360e+001 2.4761039e+001 5.0000010e+000
         vertex 3.1778452e+001 2.5363345e+001 5.0000010e+000
         vertex 3.3151216e+001 2.6416703e+001 5.0000010e+000
      endloop
   endfacet
   facet normal 0.0000000e+000 0.0000000e+000 -1.0000000e+000
      outer loop
         vertex 3.2590360e+001 2.4761039e+001 5.0000010e+000
         vertex 3.3151216e+001 2.6416703e+001 5.0000010e+000
         vertex 3.4749833e+001 2.7078872e+001 5.0000010e+000
      endloop
   endfacet
   facet normal 0.0000000e+000 0.0000000e+000 -1.0000000e+000
      outer loop
         vertex 3.2590360e+001 2.4761039e+001 5.0000010e+000
         vertex 3.4749833e+001 2.7078872e+001 5.0000010e+000
         vertex 3.6465360e+001 2.0886039e+001 5.0000010e+000
      endloop
   endfacet
   facet normal 0.0000000e+000 0.0000000e+000 -1.0000000e+000
      outer loop
         vertex 3.6465360e+001 2.0886039e+001 5.0000010e+000
         vertex 3.4749833e+001 2.7078872e+001 5.0000010e+000
         vertex 3.6465360e+001 2.7304726e+001 5.0000010e+000
      endloop
   endfacet
   facet normal 0.0000000e+000 0.0000000e+000 -1.0000000e+000
      outer loop
         vertex 3.6465360e+001 2.0886039e+001 5.0000010e+000
         vertex 3.6465360e+001 2.7304726e+001 5.0000010e+000
         vertex 3.8180887e+001 2.7078872e+001 5.0000010e+000
      endloop
   endfacet
   facet normal 0.0000000e+000 0.0000000e+000 -1.0000000e+000
      outer loop
         vertex 3.6465360e+001 2.0886039e+001 5.0000010e+000
         vertex 3.8180887e+001 2.7078872e+001 5.0000010e+000
         vertex 4.0340360e+001 2.4761039e+001 5.0000010e+000
      endloop
   endfacet
   facet normal 0.0000000e+000 0.0000000e+000 -1.0000000e+000
      outer loop
         vertex 4.0340360e+001 2.4761039e+001 5.0000010e+000
         vertex 3.8180887e+001 2.7078872e+001 5.0000010e+000
         vertex 3.9779504e+001 2.6416703e+001 5.0000010e+000
      endloop
   endfacet
   facet normal -6.9939537e-015 -2.3691998e-015 -1.0000000e+000
      outer loop
         vertex 4.0340360e+001 2.4761039e+001 5.0000010e+000
         vertex 3.9779504e+001 2.6416703e+001 5.0000010e+000
         vertex 4.1152268e+001 2.5363345e+001 5.0000010e+000
      endloop
   endfacet
   facet normal -5.5448123e-015 -4.3226405e-015 -1.0000000e+000
      outer loop
         vertex 4.0340360e+001 2.4761039e+001 5.0000010e+000
         vertex 4.1152268e+001 2.5363345e+001 5.0000010e+000
         vertex 4.6154131e+001 1.8947268e+001 5.0000010e+000
      endloop
   endfacet
   facet normal 0.0000000e+000 0.0000000e+000 -1.0000000e+000
      outer loop
         vertex 4.6154131e+001 1.8947268e+001 5.0000010e+000
         vertex 4.1152268e+001 2.5363345e+001 5.0000010e+000
         vertex 4.7015702e+001 1.9499910e+001 5.0000010e+000
      endloop
   endfacet
   facet normal 0.0000000e+000 0.0000000e+000 -1.0000000e+000
      outer loop
         vertex 4.6154131e+001 1.8947268e+001 5.0000010e+000
         vertex 4.7015702e+001 1.9499910e+001 5.0000010e+000
         vertex 4.7437872e+001 1.8578475e+001 5.0000010e+000
      endloop
   endfacet
   facet normal 0.0000000e+000 0.0000000e+000 -1.0000000e+000
      outer loop
         vertex 4.7437872e+001 1.8578475e+001 5.0000010e+000
         vertex 4.7015702e+001 1.9499910e+001 5.0000010e+000
         vertex 5.0430719e+001 2.1034641e+001 5.0000010e+000
      endloop
   endfacet
   facet normal -0.0000000e+000 0.0000000e+000 -1.0000000e+000
      outer loop
         vertex 5.0430719e+001 2.1034641e+001 5.0000010e+000
         vertex 4.7015702e+001 1.9499910e+001 5.0000010e+000
         vertex 4.9799245e+001 2.1817815e+001 5.0000010e+000
      endloop
   endfacet
   facet normal 0.0000000e+000 0.0000000e+000 -1.0000000e+000
      outer loop
         vertex 5.0430719e+001 2.1034641e+001 5.0000010e+000
         vertex 4.9799245e+001 2.1817815e+001 5.0000010e+000
         vertex 5.2886885e+001 2.4027488e+001 5.0000010e+000
      endloop
   endfacet
   facet normal -0.0000000e+000 0.0000000e+000 -1.0000000e+000
      outer loop
         vertex 5.2886885e+001 2.4027488e+001 5.0000010e+000
         vertex 4.9799245e+001 2.1817815e+001 5.0000010e+000
         vertex 5.2085149e+001 2.4627696e+001 5.0000010e+000
      endloop
   endfacet
   facet normal 0.0000000e+000 0.0000000e+000 -1.0000000e+000
      outer loop
         vertex 5.2886885e+001 2.4027488e+001 5.0000010e+000
         vertex 5.2085149e+001 2.4627696e+001 5.0000010e+000
         vertex 5.4711981e+001 2.7442002e+001 5.0000010e+000
      endloop
   endfacet
   facet normal -0.0000000e+000 0.0000000e+000 -1.0000000e+000
      outer loop
         vertex 5.4711981e+001 2.7442002e+001 5.0000010e+000
         vertex 5.2085149e+001 2.4627696e+001 5.0000010e+000
         vertex 5.3788101e+001 2.7824686e+001 5.0000010e+000
      endloop
   endfacet
   facet normal 0.0000000e+000 0.0000000e+000 -1.0000000e+000
      outer loop
         vertex 5.4711981e+001 2.7442002e+001 5.0000010e+000
         vertex 5.3788101e+001 2.7824686e+001 5.0000010e+000
         vertex 5.4844545e+001 3.1289468e+001 5.0000010e+000
      endloop
   endfacet
   facet normal 0.0000000e+000 0.0000000e+000 -1.0000000e+000
      outer loop
         vertex 5.4711981e+001 2.7442002e+001 5.0000010e+000
         vertex 5.4844545e+001 3.1289468e+001 5.0000010e+000
         vertex 5.5835869e+001 3.1146966e+001 5.0000010e+000
      endloop
   endfacet
   facet normal 0.0000000e+000 0.0000000e+000 -1.0000000e+000
      outer loop
         vertex 5.5835869e+001 3.1146966e+001 5.0000010e+000
         vertex 5.4844545e+001 3.1289468e+001 5.0000010e+000
         vertex 5.5215053e+001 3.4892732e+001 5.0000010e+000
      endloop
   endfacet
   facet normal 0.0000000e+000 0.0000000e+000 -1.0000000e+000
      outer loop
         vertex 5.5835869e+001 3.1146966e+001 5.0000010e+000
         vertex 5.5215053e+001 3.4892732e+001 5.0000010e+000
         vertex 5.6215360e+001 3.5000000e+001 5.0000010e+000
      endloop
   endfacet
   facet normal -0.0000000e+000 0.0000000e+000 -1.0000000e+000
      outer loop
         vertex 5.6215360e+001 3.5000000e+001 5.0000010e+000
         vertex 5.5215053e+001 3.4892732e+001 5.0000010e+000
         vertex 5.4885797e+001 3.8500000e+001 5.0000010e+000
      endloop
   endfacet
   facet normal 0.0000000e+000 0.0000000e+000 -1.0000000e+000
      outer loop
         vertex 5.6215360e+001 3.5000000e+001 5.0000010e+000
         vertex 5.4885797e+001 3.8500000e+001 5.0000010e+000
         vertex 5.6215360e+001 4.3500000e+001 5.0000010e+000
      endloop
   endfacet
   facet normal -0.0000000e+000 0.0000000e+000 -1.0000000e+000
      outer loop
         vertex 5.6215360e+001 4.3500000e+001 5.0000010e+000
         vertex 5.4885797e+001 3.8500000e+001 5.0000010e+000
         vertex 4.6465360e+001 4.3500000e+001 5.0000010e+000
      endloop
   endfacet
   facet normal -0.0000000e+000 -0.0000000e+000 -1.0000000e+000
      outer loop
         vertex 4.6465360e+001 4.3500000e+001 5.0000010e+000
         vertex 5.4885797e+001 3.8500000e+001 5.0000010e+000
         vertex 2.6465360e+001 4.3500000e+001 5.0000010e+000
      endloop
   endfacet
   facet normal 0.0000000e+000 0.0000000e+000 -1.0000000e+000
      outer loop
         vertex 4.6465360e+001 4.3500000e+001 5.0000010e+000
         vertex 2.6465360e+001 4.3500000e+001 5.0000010e+000
         vertex 2.6465360e+001 6.5000000e+001 5.0000010e+000
      endloop
   endfacet
   facet normal 0.0000000e+000 0.0000000e+000 -1.0000000e+000
      outer loop
         vertex 5.4885797e+001 3.8500000e+001 5.0000010e+000
         vertex 1.8044923e+001 3.8500000e+001 5.0000010e+000
         vertex 2.6465360e+001 4.3500000e+001 5.0000010e+000
      endloop
   endfacet
   facet normal -0.0000000e+000 0.0000000e+000 -1.0000000e+000
      outer loop
         vertex 2.6465360e+001 4.3500000e+001 5.0000010e+000
         vertex 1.8044923e+001 3.8500000e+001 5.0000010e+000
         vertex 1.6715360e+001 4.3500000e+001 5.0000010e+000
      endloop
   endfacet
   facet normal 0.0000000e+000 -0.0000000e+000 -1.0000000e+000
      outer loop
         vertex 1.6715360e+001 4.3500000e+001 5.0000010e+000
         vertex 1.8044923e+001 3.8500000e+001 5.0000010e+000
         vertex 1.6715360e+001 3.5000000e+001 5.0000010e+000
      endloop
   endfacet
   facet normal 0.0000000e+000 -0.0000000e+000 -1.0000000e+000
      outer loop
         vertex 1.6715360e+001 3.5000000e+001 5.0000010e+000
         vertex 1.8044923e+001 3.8500000e+001 5.0000010e+000
         vertex 1.7715667e+001 3.4892732e+001 5.0000010e+000
      endloop
   endfacet
   facet normal 0.0000000e+000 -0.0000000e+000 -1.0000000e+000
      outer loop
         vertex 1.6715360e+001 3.5000000e+001 5.0000010e+000
         vertex 1.7715667e+001 3.4892732e+001 5.0000010e+000
         vertex 1.7094851e+001 3.1146966e+001 5.0000010e+000
      endloop
   endfacet
   facet normal 0.0000000e+000 0.0000000e+000 -1.0000000e+000
      outer loop
         vertex 1.7094851e+001 3.1146966e+001 5.0000010e+000
         vertex 1.7715667e+001 3.4892732e+001 5.0000010e+000
         vertex 1.8086175e+001 3.1289468e+001 5.0000010e+000
      endloop
   endfacet
   facet normal 0.0000000e+000 0.0000000e+000 -1.0000000e+000
      outer loop
         vertex 1.7094851e+001 3.1146966e+001 5.0000010e+000
         vertex 1.8086175e+001 3.1289468e+001 5.0000010e+000
         vertex 1.8218739e+001 2.7442002e+001 5.0000010e+000
      endloop
   endfacet
   facet normal 0.0000000e+000 0.0000000e+000 -1.0000000e+000
      outer loop
         vertex 1.8218739e+001 2.7442002e+001 5.0000010e+000
         vertex 1.8086175e+001 3.1289468e+001 5.0000010e+000
         vertex 1.9142619e+001 2.7824686e+001 5.0000010e+000
      endloop
   endfacet
   facet normal 0.0000000e+000 0.0000000e+000 -1.0000000e+000
      outer loop
         vertex 1.8218739e+001 2.7442002e+001 5.0000010e+000
         vertex 1.9142619e+001 2.7824686e+001 5.0000010e+000
         vertex 2.0845571e+001 2.4627696e+001 5.0000010e+000
      endloop
   endfacet
   facet normal 0.0000000e+000 -0.0000000e+000 -1.0000000e+000
      outer loop
         vertex 1.8218739e+001 2.7442002e+001 5.0000010e+000
         vertex 2.0845571e+001 2.4627696e+001 5.0000010e+000
         vertex 2.0043835e+001 2.4027488e+001 5.0000010e+000
      endloop
   endfacet
   facet normal 0.0000000e+000 0.0000000e+000 -1.0000000e+000
      outer loop
         vertex 2.0043835e+001 2.4027488e+001 5.0000010e+000
         vertex 2.0845571e+001 2.4627696e+001 5.0000010e+000
         vertex 2.3131475e+001 2.1817815e+001 5.0000010e+000
      endloop
   endfacet
   facet normal 0.0000000e+000 -0.0000000e+000 -1.0000000e+000
      outer loop
         vertex 2.0043835e+001 2.4027488e+001 5.0000010e+000
         vertex 2.3131475e+001 2.1817815e+001 5.0000010e+000
         vertex 2.2500001e+001 2.1034641e+001 5.0000010e+000
      endloop
   endfacet
   facet normal 0.0000000e+000 0.0000000e+000 -1.0000000e+000
      outer loop
         vertex 2.2500001e+001 2.1034641e+001 5.0000010e+000
         vertex 2.3131475e+001 2.1817815e+001 5.0000010e+000
         vertex 2.5915018e+001 1.9499910e+001 5.0000010e+000
      endloop
   endfacet
   facet normal 0.0000000e+000 0.0000000e+000 -1.0000000e+000
      outer loop
         vertex 2.6465360e+001 6.5000000e+001 5.0000010e+000
         vertex 4.6465360e+001 6.5000000e+001 5.0000010e+000
         vertex 4.6465360e+001 4.3500000e+001 5.0000010e+000
      endloop
   endfacet
   facet normal -0.0000000e+000 0.0000000e+000 -1.0000000e+000
      outer loop
         vertex 4.7437872e+001 1.8578475e+001 5.0000010e+000
         vertex 4.4023358e+001 1.6753379e+001 5.0000010e+000
         vertex 4.6154131e+001 1.8947268e+001 5.0000010e+000
      endloop
   endfacet
   facet normal -0.0000000e+000 0.0000000e+000 -1.0000000e+000
      outer loop
         vertex 4.6154131e+001 1.8947268e+001 5.0000010e+000
         vertex 4.4023358e+001 1.6753379e+001 5.0000010e+000
         vertex 4.3105962e+001 1.7465323e+001 5.0000010e+000
      endloop
   endfacet
   facet normal 0.0000000e+000 -0.0000000e+000 -1.0000000e+000
      outer loop
         vertex 4.3105962e+001 1.7465323e+001 5.0000010e+000
         vertex 4.4023358e+001 1.6753379e+001 5.0000010e+000
         vertex 4.0318394e+001 1.5629491e+001 5.0000010e+000
      endloop
   endfacet
   facet normal -0.0000000e+000 0.0000000e+000 -1.0000000e+000
      outer loop
         vertex 4.3105962e+001 1.7465323e+001 5.0000010e+000
         vertex 4.0318394e+001 1.5629491e+001 5.0000010e+000
         vertex 3.9840808e+001 1.6556333e+001 5.0000010e+000
      endloop
   endfacet
   facet normal 0.0000000e+000 -0.0000000e+000 -1.0000000e+000
      outer loop
         vertex 3.9840808e+001 1.6556333e+001 5.0000010e+000
         vertex 4.0318394e+001 1.5629491e+001 5.0000010e+000
         vertex 3.6465360e+001 1.5250000e+001 5.0000010e+000
      endloop
   endfacet
   facet normal -0.0000000e+000 0.0000000e+000 -1.0000000e+000
      outer loop
         vertex 3.9840808e+001 1.6556333e+001 5.0000010e+000
         vertex 3.6465360e+001 1.5250000e+001 5.0000010e+000
         vertex 3.6465360e+001 1.6250000e+001 5.0000010e+000
      endloop
   endfacet
   facet normal -0.0000000e+000 -0.0000000e+000 -1.0000000e+000
      outer loop
         vertex 3.6465360e+001 1.6250000e+001 5.0000010e+000
         vertex 3.6465360e+001 1.5250000e+001 5.0000010e+000
         vertex 3.3089911e+001 1.6556333e+001 5.0000010e+000
      endloop
   endfacet
   facet normal -0.0000000e+000 -0.0000000e+000 -1.0000000e+000
      outer loop
         vertex 3.3089911e+001 1.6556333e+001 5.0000010e+000
         vertex 3.6465360e+001 1.5250000e+001 5.0000010e+000
         vertex 3.2612326e+001 1.5629491e+001 5.0000010e+000
      endloop
   endfacet
   facet normal -0.0000000e+000 0.0000000e+000 -1.0000000e+000
      outer loop
         vertex 3.3089911e+001 1.6556333e+001 5.0000010e+000
         vertex 3.2612326e+001 1.5629491e+001 5.0000010e+000
         vertex 2.9824757e+001 1.7465323e+001 5.0000010e+000
      endloop
   endfacet
   facet normal -0.0000000e+000 -0.0000000e+000 -1.0000000e+000
      outer loop
         vertex 2.9824757e+001 1.7465323e+001 5.0000010e+000
         vertex 3.2612326e+001 1.5629491e+001 5.0000010e+000
         vertex 2.8907362e+001 1.6753379e+001 5.0000010e+000
      endloop
   endfacet
   facet normal -0.0000000e+000 0.0000000e+000 -1.0000000e+000
      outer loop
         vertex 2.9824757e+001 1.7465323e+001 5.0000010e+000
         vertex 2.8907362e+001 1.6753379e+001 5.0000010e+000
         vertex 2.6776589e+001 1.8947268e+001 5.0000010e+000
      endloop
   endfacet
   facet normal -0.0000000e+000 -0.0000000e+000 -1.0000000e+000
      outer loop
         vertex 2.6776589e+001 1.8947268e+001 5.0000010e+000
         vertex 2.8907362e+001 1.6753379e+001 5.0000010e+000
         vertex 2.5492848e+001 1.8578475e+001 5.0000010e+000
      endloop
   endfacet
   facet normal -7.0710678e-001 -7.0710678e-001 3.3495306e-015
      outer loop
         vertex 4.6154131e+001 1.8947268e+001 5.0000010e+000
         vertex 4.6154131e+001 1.8947268e+001 8.0000010e+000
         vertex 4.0340360e+001 2.4761039e+001 5.0000010e+000
      endloop
   endfacet
   facet normal -7.0710678e-001 -7.0710678e-001 1.7284120e-015
      outer loop
         vertex 4.0340360e+001 2.4761039e+001 5.0000010e+000
         vertex 4.6154131e+001 1.8947268e+001 8.0000010e+000
         vertex 4.0340360e+001 2.4761039e+001 8.0000010e+000
      endloop
   endfacet
   facet normal 0.0000000e+000 0.0000000e+000 1.0000000e+000
      outer loop
         vertex 3.2590360e+001 2.4761039e+001 8.0000010e+000
         vertex 3.1778452e+001 2.5363345e+001 8.0000010e+000
         vertex 2.6776589e+001 1.8947268e+001 8.0000010e+000
      endloop
   endfacet
   facet normal 0.0000000e+000 -0.0000000e+000 1.0000000e+000
      outer loop
         vertex 2.6776589e+001 1.8947268e+001 8.0000010e+000
         vertex 3.1778452e+001 2.5363345e+001 8.0000010e+000
         vertex 2.5915018e+001 1.9499910e+001 8.0000010e+000
      endloop
   endfacet
   facet normal -9.5570399e-016 -1.4899446e-015 1.0000000e+000
      outer loop
         vertex 2.6776589e+001 1.8947268e+001 8.0000010e+000
         vertex 2.5915018e+001 1.9499910e+001 8.0000010e+000
         vertex 2.5492848e+001 1.8578475e+001 8.0000010e+000
      endloop
   endfacet
   facet normal -1.1619972e-015 -1.3954282e-015 1.0000000e+000
      outer loop
         vertex 2.5492848e+001 1.8578475e+001 8.0000010e+000
         vertex 2.5915018e+001 1.9499910e+001 8.0000010e+000
         vertex 2.3131475e+001 2.1817815e+001 8.0000010e+000
      endloop
   endfacet
   facet normal -1.1201831e-015 -1.3649470e-015 1.0000000e+000
      outer loop
         vertex 2.5492848e+001 1.8578475e+001 8.0000010e+000
         vertex 2.3131475e+001 2.1817815e+001 8.0000010e+000
         vertex 2.2500001e+001 2.1034641e+001 8.0000010e+000
      endloop
   endfacet
   facet normal -1.4002454e-015 -1.1391323e-015 1.0000000e+000
      outer loop
         vertex 2.2500001e+001 2.1034641e+001 8.0000010e+000
         vertex 2.3131475e+001 2.1817815e+001 8.0000010e+000
         vertex 2.0845571e+001 2.4627696e+001 8.0000010e+000
      endloop
   endfacet
   facet normal -1.3724313e-015 -1.1263253e-015 1.0000000e+000
      outer loop
         vertex 2.2500001e+001 2.1034641e+001 8.0000010e+000
         vertex 2.0845571e+001 2.4627696e+001 8.0000010e+000
         vertex 2.0043835e+001 2.4027488e+001 8.0000010e+000
      endloop
   endfacet
   facet normal -1.5839810e-015 -8.4374496e-016 1.0000000e+000
      outer loop
         vertex 2.0043835e+001 2.4027488e+001 8.0000010e+000
         vertex 2.0845571e+001 2.4627696e+001 8.0000010e+000
         vertex 1.9142619e+001 2.7824686e+001 8.0000010e+000
      endloop
   endfacet
   facet normal -1.5741870e-015 -8.4142049e-016 1.0000000e+000
      outer loop
         vertex 2.0043835e+001 2.4027488e+001 8.0000010e+000
         vertex 1.9142619e+001 2.7824686e+001 8.0000010e+000
         vertex 1.8218739e+001 2.7442002e+001 8.0000010e+000
      endloop
   endfacet
   facet normal -1.7071109e-015 -5.2051385e-016 1.0000000e+000
      outer loop
         vertex 1.8218739e+001 2.7442002e+001 8.0000010e+000
         vertex 1.9142619e+001 2.7824686e+001 8.0000010e+000
         vertex 1.8086175e+001 3.1289468e+001 8.0000010e+000
      endloop
   endfacet
   facet normal -1.7170309e-015 -5.2085564e-016 1.0000000e+000
      outer loop
         vertex 1.8218739e+001 2.7442002e+001 8.0000010e+000
         vertex 1.8086175e+001 3.1289468e+001 8.0000010e+000
         vertex 1.7094851e+001 3.1146966e+001 8.0000010e+000
      endloop
   endfacet
   facet normal -1.7658029e-015 -1.8156977e-016 1.0000000e+000
      outer loop
         vertex 1.7094851e+001 3.1146966e+001 8.0000010e+000
         vertex 1.8086175e+001 3.1289468e+001 8.0000010e+000
         vertex 1.7715667e+001 3.4892732e+001 8.0000010e+000
      endloop
   endfacet
   facet normal -1.7947678e-015 -1.7676920e-016 1.0000000e+000
      outer loop
         vertex 1.7094851e+001 3.1146966e+001 8.0000010e+000
         vertex 1.7715667e+001 3.4892732e+001 8.0000010e+000
         vertex 1.6715360e+001 3.5000000e+001 8.0000010e+000
      endloop
   endfacet
   facet normal -1.7063042e-015 6.4818254e-016 1.0000000e+000
      outer loop
         vertex 1.6715360e+001 3.5000000e+001 8.0000010e+000
         vertex 1.7715667e+001 3.4892732e+001 8.0000010e+000
         vertex 1.8044923e+001 3.8500000e+001 8.0000010e+000
      endloop
   endfacet
   facet normal 0.0000000e+000 -0.0000000e+000 1.0000000e+000
      outer loop
         vertex 1.6715360e+001 3.5000000e+001 8.0000010e+000
         vertex 1.8044923e+001 3.8500000e+001 8.0000010e+000
         vertex 1.6715360e+001 4.3500000e+001 8.0000010e+000
      endloop
   endfacet
   facet normal -0.0000000e+000 0.0000000e+000 1.0000000e+000
      outer loop
         vertex 1.6715360e+001 4.3500000e+001 8.0000010e+000
         vertex 1.8044923e+001 3.8500000e+001 8.0000010e+000
         vertex 2.6465360e+001 4.3500000e+001 8.0000010e+000
      endloop
   endfacet
   facet normal -1.4465103e-016 2.4360498e-016 1.0000000e+000
      outer loop
         vertex 2.6465360e+001 4.3500000e+001 8.0000010e+000
         vertex 1.8044923e+001 3.8500000e+001 8.0000010e+000
         vertex 5.4885797e+001 3.8500000e+001 8.0000010e+000
      endloop
   endfacet
   facet normal -1.7763568e-016 5.6117350e-017 1.0000000e+000
      outer loop
         vertex 2.6465360e+001 4.3500000e+001 8.0000010e+000
         vertex 5.4885797e+001 3.8500000e+001 8.0000010e+000
         vertex 4.6465360e+001 4.3500000e+001 8.0000010e+000
      endloop
   endfacet
   facet normal -1.8219045e-016 4.8446734e-017 1.0000000e+000
      outer loop
         vertex 4.6465360e+001 4.3500000e+001 8.0000010e+000
         vertex 5.4885797e+001 3.8500000e+001 8.0000010e+000
         vertex 5.6215360e+001 4.3500000e+001 8.0000010e+000
      endloop
   endfacet
   facet normal 0.0000000e+000 0.0000000e+000 1.0000000e+000
      outer loop
         vertex 5.6215360e+001 4.3500000e+001 8.0000010e+000
         vertex 5.4885797e+001 3.8500000e+001 8.0000010e+000
         vertex 5.6215360e+001 3.5000000e+001 8.0000010e+000
      endloop
   endfacet
   facet normal -3.4126084e-015 -1.2963651e-015 1.0000000e+000
      outer loop
         vertex 5.6215360e+001 3.5000000e+001 8.0000010e+000
         vertex 5.4885797e+001 3.8500000e+001 8.0000010e+000
         vertex 5.5215053e+001 3.4892732e+001 8.0000010e+000
      endloop
   endfacet
   facet normal -3.5395695e-015 -1.1241092e-016 1.0000000e+000
      outer loop
         vertex 5.6215360e+001 3.5000000e+001 8.0000010e+000
         vertex 5.5215053e+001 3.4892732e+001 8.0000010e+000
         vertex 5.5835869e+001 3.1146966e+001 8.0000010e+000
      endloop
   endfacet
   facet normal -1.7658029e-015 1.8156977e-016 1.0000000e+000
      outer loop
         vertex 5.5835869e+001 3.1146966e+001 8.0000010e+000
         vertex 5.5215053e+001 3.4892732e+001 8.0000010e+000
         vertex 5.4844545e+001 3.1289468e+001 8.0000010e+000
      endloop
   endfacet
   facet normal -1.7170309e-015 5.2085564e-016 1.0000000e+000
      outer loop
         vertex 5.5835869e+001 3.1146966e+001 8.0000010e+000
         vertex 5.4844545e+001 3.1289468e+001 8.0000010e+000
         vertex 5.4711981e+001 2.7442002e+001 8.0000010e+000
      endloop
   endfacet
   facet normal -1.7071109e-015 5.2051385e-016 1.0000000e+000
      outer loop
         vertex 5.4711981e+001 2.7442002e+001 8.0000010e+000
         vertex 5.4844545e+001 3.1289468e+001 8.0000010e+000
         vertex 5.3788101e+001 2.7824686e+001 8.0000010e+000
      endloop
   endfacet
   facet normal -1.5741870e-015 8.4142049e-016 1.0000000e+000
      outer loop
         vertex 5.4711981e+001 2.7442002e+001 8.0000010e+000
         vertex 5.3788101e+001 2.7824686e+001 8.0000010e+000
         vertex 5.2886885e+001 2.4027488e+001 8.0000010e+000
      endloop
   endfacet
   facet normal -1.5839810e-015 8.4374496e-016 1.0000000e+000
      outer loop
         vertex 5.2886885e+001 2.4027488e+001 8.0000010e+000
         vertex 5.3788101e+001 2.7824686e+001 8.0000010e+000
         vertex 5.2085149e+001 2.4627696e+001 8.0000010e+000
      endloop
   endfacet
   facet normal -1.3724313e-015 1.1263253e-015 1.0000000e+000
      outer loop
         vertex 5.2886885e+001 2.4027488e+001 8.0000010e+000
         vertex 5.2085149e+001 2.4627696e+001 8.0000010e+000
         vertex 5.0430719e+001 2.1034641e+001 8.0000010e+000
      endloop
   endfacet
   facet normal -1.4002454e-015 1.1391323e-015 1.0000000e+000
      outer loop
         vertex 5.0430719e+001 2.1034641e+001 8.0000010e+000
         vertex 5.2085149e+001 2.4627696e+001 8.0000010e+000
         vertex 4.9799245e+001 2.1817815e+001 8.0000010e+000
      endloop
   endfacet
   facet normal -1.1201831e-015 1.3649470e-015 1.0000000e+000
      outer loop
         vertex 5.0430719e+001 2.1034641e+001 8.0000010e+000
         vertex 4.9799245e+001 2.1817815e+001 8.0000010e+000
         vertex 4.7437872e+001 1.8578475e+001 8.0000010e+000
      endloop
   endfacet
   facet normal -1.1619972e-015 1.3954282e-015 1.0000000e+000
      outer loop
         vertex 4.7437872e+001 1.8578475e+001 8.0000010e+000
         vertex 4.9799245e+001 2.1817815e+001 8.0000010e+000
         vertex 4.7015702e+001 1.9499910e+001 8.0000010e+000
      endloop
   endfacet
   facet normal -9.5570399e-016 1.4899446e-015 1.0000000e+000
      outer loop
         vertex 4.7437872e+001 1.8578475e+001 8.0000010e+000
         vertex 4.7015702e+001 1.9499910e+001 8.0000010e+000
         vertex 4.6154131e+001 1.8947268e+001 8.0000010e+000
      endloop
   endfacet
   facet normal 0.0000000e+000 -0.0000000e+000 1.0000000e+000
      outer loop
         vertex 4.6154131e+001 1.8947268e+001 8.0000010e+000
         vertex 4.7015702e+001 1.9499910e+001 8.0000010e+000
         vertex 4.1152268e+001 2.5363345e+001 8.0000010e+000
      endloop
   endfacet
   facet normal 0.0000000e+000 0.0000000e+000 1.0000000e+000
      outer loop
         vertex 4.6154131e+001 1.8947268e+001 8.0000010e+000
         vertex 4.1152268e+001 2.5363345e+001 8.0000010e+000
         vertex 4.0340360e+001 2.4761039e+001 8.0000010e+000
      endloop
   endfacet
   facet normal 0.0000000e+000 -0.0000000e+000 1.0000000e+000
      outer loop
         vertex 4.0340360e+001 2.4761039e+001 8.0000010e+000
         vertex 4.1152268e+001 2.5363345e+001 8.0000010e+000
         vertex 3.9779504e+001 2.6416703e+001 8.0000010e+000
      endloop
   endfacet
   facet normal 0.0000000e+000 0.0000000e+000 1.0000000e+000
      outer loop
         vertex 4.0340360e+001 2.4761039e+001 8.0000010e+000
         vertex 3.9779504e+001 2.6416703e+001 8.0000010e+000
         vertex 3.8180887e+001 2.7078872e+001 8.0000010e+000
      endloop
   endfacet
   facet normal 0.0000000e+000 0.0000000e+000 1.0000000e+000
      outer loop
         vertex 3.6465360e+001 2.0886039e+001 8.0000010e+000
         vertex 3.4749833e+001 2.7078872e+001 8.0000010e+000
         vertex 3.2590360e+001 2.4761039e+001 8.0000010e+000
      endloop
   endfacet
   facet normal 0.0000000e+000 -0.0000000e+000 1.0000000e+000
      outer loop
         vertex 3.2590360e+001 2.4761039e+001 8.0000010e+000
         vertex 3.4749833e+001 2.7078872e+001 8.0000010e+000
         vertex 3.3151216e+001 2.6416703e+001 8.0000010e+000
      endloop
   endfacet
   facet normal 0.0000000e+000 -0.0000000e+000 1.0000000e+000
      outer loop
         vertex 3.2590360e+001 2.4761039e+001 8.0000010e+000
         vertex 3.3151216e+001 2.6416703e+001 8.0000010e+000
         vertex 3.1778452e+001 2.5363345e+001 8.0000010e+000
      endloop
   endfacet
   facet normal 0.0000000e+000 0.0000000e+000 1.0000000e+000
      outer loop
         vertex 4.0340360e+001 2.4761039e+001 8.0000010e+000
         vertex 3.8180887e+001 2.7078872e+001 8.0000010e+000
         vertex 3.6465360e+001 2.0886039e+001 8.0000010e+000
      endloop
   endfacet
   facet normal 0.0000000e+000 -0.0000000e+000 1.0000000e+000
      outer loop
         vertex 3.6465360e+001 2.0886039e+001 8.0000010e+000
         vertex 3.8180887e+001 2.7078872e+001 8.0000010e+000
         vertex 3.6465360e+001 2.7304726e+001 8.0000010e+000
      endloop
   endfacet
   facet normal 0.0000000e+000 0.0000000e+000 1.0000000e+000
      outer loop
         vertex 3.6465360e+001 2.0886039e+001 8.0000010e+000
         vertex 3.6465360e+001 2.7304726e+001 8.0000010e+000
         vertex 3.4749833e+001 2.7078872e+001 8.0000010e+000
      endloop
   endfacet
   facet normal -1.0818753e-015 1.0507513e-015 1.0000000e+000
      outer loop
         vertex 4.7437872e+001 1.8578475e+001 8.0000010e+000
         vertex 4.6154131e+001 1.8947268e+001 8.0000010e+000
         vertex 4.4023358e+001 1.6753379e+001 8.0000010e+000
      endloop
   endfacet
   facet normal 0.0000000e+000 -0.0000000e+000 1.0000000e+000
      outer loop
         vertex 4.4023358e+001 1.6753379e+001 8.0000010e+000
         vertex 4.6154131e+001 1.8947268e+001 8.0000010e+000
         vertex 4.3105962e+001 1.7465323e+001 8.0000010e+000
      endloop
   endfacet
   facet normal 0.0000000e+000 0.0000000e+000 1.0000000e+000
      outer loop
         vertex 4.4023358e+001 1.6753379e+001 8.0000010e+000
         vertex 4.3105962e+001 1.7465323e+001 8.0000010e+000
         vertex 4.0318394e+001 1.5629491e+001 8.0000010e+000
      endloop
   endfacet
   facet normal 0.0000000e+000 -0.0000000e+000 1.0000000e+000
      outer loop
         vertex 4.0318394e+001 1.5629491e+001 8.0000010e+000
         vertex 4.3105962e+001 1.7465323e+001 8.0000010e+000
         vertex 3.9840808e+001 1.6556333e+001 8.0000010e+000
      endloop
   endfacet
   facet normal 0.0000000e+000 0.0000000e+000 1.0000000e+000
      outer loop
         vertex 4.0318394e+001 1.5629491e+001 8.0000010e+000
         vertex 3.9840808e+001 1.6556333e+001 8.0000010e+000
         vertex 3.6465360e+001 1.5250000e+001 8.0000010e+000
      endloop
   endfacet
   facet normal 0.0000000e+000 -0.0000000e+000 1.0000000e+000
      outer loop
         vertex 3.6465360e+001 1.5250000e+001 8.0000010e+000
         vertex 3.9840808e+001 1.6556333e+001 8.0000010e+000
         vertex 3.6465360e+001 1.6250000e+001 8.0000010e+000
      endloop
   endfacet
   facet normal 0.0000000e+000 0.0000000e+000 1.0000000e+000
      outer loop
         vertex 3.6465360e+001 1.5250000e+001 8.0000010e+000
         vertex 3.6465360e+001 1.6250000e+001 8.0000010e+000
         vertex 3.3089911e+001 1.6556333e+001 8.0000010e+000
      endloop
   endfacet
   facet normal 0.0000000e+000 0.0000000e+000 1.0000000e+000
      outer loop
         vertex 3.6465360e+001 1.5250000e+001 8.0000010e+000
         vertex 3.3089911e+001 1.6556333e+001 8.0000010e+000
         vertex 3.2612326e+001 1.5629491e+001 8.0000010e+000
      endloop
   endfacet
   facet normal 0.0000000e+000 -0.0000000e+000 1.0000000e+000
      outer loop
         vertex 3.2612326e+001 1.5629491e+001 8.0000010e+000
         vertex 3.3089911e+001 1.6556333e+001 8.0000010e+000
         vertex 2.9824757e+001 1.7465323e+001 8.0000010e+000
      endloop
   endfacet
   facet normal -8.8887773e-016 -1.3496918e-015 1.0000000e+000
      outer loop
         vertex 3.2612326e+001 1.5629491e+001 8.0000010e+000
         vertex 2.9824757e+001 1.7465323e+001 8.0000010e+000
         vertex 2.8907362e+001 1.6753379e+001 8.0000010e+000
      endloop
   endfacet
   facet normal -7.4581330e-016 -1.5340415e-015 1.0000000e+000
      outer loop
         vertex 2.8907362e+001 1.6753379e+001 8.0000010e+000
         vertex 2.9824757e+001 1.7465323e+001 8.0000010e+000
         vertex 2.6776589e+001 1.8947268e+001 8.0000010e+000
      endloop
   endfacet
   facet normal -9.0001208e-016 -1.6838042e-015 1.0000000e+000
      outer loop
         vertex 2.8907362e+001 1.6753379e+001 8.0000010e+000
         vertex 2.6776589e+001 1.8947268e+001 8.0000010e+000
         vertex 2.5492848e+001 1.8578475e+001 8.0000010e+000
      endloop
   endfacet
   facet normal 0.0000000e+000 1.3406467e-016 1.0000000e+000
      outer loop
         vertex 4.6465360e+001 7.0000000e+001 8.0000010e+000
         vertex 2.6465360e+001 7.0000000e+001 8.0000010e+000
         vertex 4.6465360e+001 4.3500000e+001 8.0000010e+000
      endloop
   endfacet
   facet normal -1.7763568e-016 0.0000000e+000 1.0000000e+000
      outer loop
         vertex 4.6465360e+001 4.3500000e+001 8.0000010e+000
         vertex 2.6465360e+001 7.0000000e+001 8.0000010e+000
         vertex 2.6465360e+001 4.3500000e+001 8.0000010e+000
      endloop
   endfacet
   facet normal 7.0710678e-001 -7.0710678e-001 -1.6747653e-015
      outer loop
         vertex 2.6776589e+001 1.8947268e+001 8.0000010e+000
         vertex 2.6776589e+001 1.8947268e+001 5.0000010e+000
         vertex 3.2590360e+001 2.4761039e+001 8.0000010e+000
      endloop
   endfacet
   facet normal 7.0710678e-001 -7.0710678e-001 -1.7284120e-015
      outer loop
         vertex 3.2590360e+001 2.4761039e+001 8.0000010e+000
         vertex 2.6776589e+001 1.8947268e+001 5.0000010e+000
         vertex 3.2590360e+001 2.4761039e+001 5.0000010e+000
      endloop
   endfacet
   facet normal 6.0876143e-001 7.9335334e-001 -9.3951909e-016
      outer loop
         vertex 4.1152268e+001 2.5363345e+001 8.0000010e+000
         vertex 4.1152268e+001 2.5363345e+001 5.0000010e+000
         vertex 3.9779504e+001 2.6416703e+001 8.0000010e+000
      endloop
   endfacet
   facet normal 6.0876143e-001 7.9335334e-001 -9.4104978e-016
      outer loop
         vertex 3.9779504e+001 2.6416703e+001 8.0000010e+000
         vertex 4.1152268e+001 2.5363345e+001 5.0000010e+000
         vertex 3.9779504e+001 2.6416703e+001 5.0000010e+000
      endloop
   endfacet
   facet normal 3.8268343e-001 9.2387953e-001 -1.0940932e-015
      outer loop
         vertex 3.9779504e+001 2.6416703e+001 8.0000010e+000
         vertex 3.9779504e+001 2.6416703e+001 5.0000010e+000
         vertex 3.8180887e+001 2.7078872e+001 8.0000010e+000
      endloop
   endfacet
   facet normal 3.8268343e-001 9.2387953e-001 -8.9827479e-016
      outer loop
         vertex 3.8180887e+001 2.7078872e+001 8.0000010e+000
         vertex 3.9779504e+001 2.6416703e+001 5.0000010e+000
         vertex 3.8180887e+001 2.7078872e+001 5.0000010e+000
      endloop
   endfacet
   facet normal 1.3052619e-001 9.9144486e-001 -3.0914813e-016
      outer loop
         vertex 3.8180887e+001 2.7078872e+001 8.0000010e+000
         vertex 3.8180887e+001 2.7078872e+001 5.0000010e+000
         vertex 3.6465360e+001 2.7304726e+001 8.0000010e+000
      endloop
   endfacet
   facet normal 1.3052619e-001 9.9144486e-001 -2.9942493e-016
      outer loop
         vertex 3.6465360e+001 2.7304726e+001 8.0000010e+000
         vertex 3.8180887e+001 2.7078872e+001 5.0000010e+000
         vertex 3.6465360e+001 2.7304726e+001 5.0000010e+000
      endloop
   endfacet
   facet normal -1.3052619e-001 9.9144486e-001 3.0914813e-016
      outer loop
         vertex 3.6465360e+001 2.7304726e+001 8.0000010e+000
         vertex 3.6465360e+001 2.7304726e+001 5.0000010e+000
         vertex 3.4749833e+001 2.7078872e+001 8.0000010e+000
      endloop
   endfacet
   facet normal -1.3052619e-001 9.9144486e-001 1.4757372e-015
      outer loop
         vertex 3.4749833e+001 2.7078872e+001 8.0000010e+000
         vertex 3.6465360e+001 2.7304726e+001 5.0000010e+000
         vertex 3.4749833e+001 2.7078872e+001 5.0000010e+000
      endloop
   endfacet
   facet normal -3.8268343e-001 9.2387953e-001 2.0004696e-015
      outer loop
         vertex 3.4749833e+001 2.7078872e+001 8.0000010e+000
         vertex 3.4749833e+001 2.7078872e+001 5.0000010e+000
         vertex 3.3151216e+001 2.6416703e+001 8.0000010e+000
      endloop
   endfacet
   facet normal -3.8268343e-001 9.2387953e-001 8.9827479e-016
      outer loop
         vertex 3.3151216e+001 2.6416703e+001 8.0000010e+000
         vertex 3.4749833e+001 2.7078872e+001 5.0000010e+000
         vertex 3.3151216e+001 2.6416703e+001 5.0000010e+000
      endloop
   endfacet
   facet normal -6.0876143e-001 7.9335334e-001 1.4418367e-015
      outer loop
         vertex 3.3151216e+001 2.6416703e+001 8.0000010e+000
         vertex 3.3151216e+001 2.6416703e+001 5.0000010e+000
         vertex 3.1778452e+001 2.5363345e+001 8.0000010e+000
      endloop
   endfacet
   facet normal -6.0876143e-001 7.9335334e-001 5.1329988e-016
      outer loop
         vertex 3.1778452e+001 2.5363345e+001 8.0000010e+000
         vertex 3.3151216e+001 2.6416703e+001 5.0000010e+000
         vertex 3.1778452e+001 2.5363345e+001 5.0000010e+000
      endloop
   endfacet
   facet normal 7.0710678e-001 -7.0710678e-001 -1.6747653e-015
      outer loop
         vertex 3.6465360e+001 2.0886039e+001 8.0000010e+000
         vertex 3.6465360e+001 2.0886039e+001 5.0000010e+000
         vertex 4.0340360e+001 2.4761039e+001 8.0000010e+000
      endloop
   endfacet
   facet normal 7.0710678e-001 -7.0710678e-001 -1.7287900e-015
      outer loop
         vertex 4.0340360e+001 2.4761039e+001 8.0000010e+000
         vertex 3.6465360e+001 2.0886039e+001 5.0000010e+000
         vertex 4.0340360e+001 2.4761039e+001 5.0000010e+000
      endloop
   endfacet
   facet normal -7.0710678e-001 -7.0710678e-001 1.6747653e-015
      outer loop
         vertex 3.2590360e+001 2.4761039e+001 8.0000010e+000
         vertex 3.2590360e+001 2.4761039e+001 5.0000010e+000
         vertex 3.6465360e+001 2.0886039e+001 8.0000010e+000
      endloop
   endfacet
   facet normal -7.0710678e-001 -7.0710678e-001 5.0783206e-015
      outer loop
         vertex 3.6465360e+001 2.0886039e+001 8.0000010e+000
         vertex 3.2590360e+001 2.4761039e+001 5.0000010e+000
         vertex 3.6465360e+001 2.0886039e+001 5.0000010e+000
      endloop
   endfacet
   facet normal 7.0710678e-001 7.0710678e-001 -5.8616785e-015
      outer loop
         vertex 4.7015702e+001 1.9499910e+001 8.0000010e+000
         vertex 4.7015702e+001 1.9499910e+001 5.0000010e+000
         vertex 4.1152268e+001 2.5363345e+001 8.0000010e+000
      endloop
   endfacet
   facet normal 7.0710678e-001 7.0710678e-001 -8.5688615e-016
      outer loop
         vertex 4.1152268e+001 2.5363345e+001 8.0000010e+000
         vertex 4.7015702e+001 1.9499910e+001 5.0000010e+000
         vertex 4.1152268e+001 2.5363345e+001 5.0000010e+000
      endloop
   endfacet
endsolid AutoCAD
