solid AutoCAD
   facet normal 0.0000000e+000 6.7032334e-017 1.0000000e+000
      outer loop
         vertex 2.5000000e+001 7.0000000e+001 8.0000010e+000
         vertex 2.5000000e+001 4.3500000e+001 8.0000010e+000
         vertex 4.5000000e+001 7.0000000e+001 8.0000010e+000
      endloop
   endfacet
   facet normal -8.8817842e-017 1.3406467e-016 1.0000000e+000
      outer loop
         vertex 4.5000000e+001 7.0000000e+001 8.0000010e+000
         vertex 2.5000000e+001 4.3500000e+001 8.0000010e+000
         vertex 4.5000000e+001 4.3500000e+001 8.0000010e+000
      endloop
   endfacet
   facet normal -8.8817842e-017 -2.0569436e-016 1.0000000e+000
      outer loop
         vertex 4.5000000e+001 4.3500000e+001 8.0000010e+000
         vertex 2.5000000e+001 4.3500000e+001 8.0000010e+000
         vertex 1.6579563e+001 3.8500000e+001 8.0000010e+000
      endloop
   endfacet
   facet normal -1.4465103e-016 1.1166638e-016 1.0000000e+000
      outer loop
         vertex 4.5000000e+001 4.3500000e+001 8.0000010e+000
         vertex 1.6579563e+001 3.8500000e+001 8.0000010e+000
         vertex 5.3420437e+001 3.8500000e+001 8.0000010e+000
      endloop
   endfacet
   facet normal -1.8219045e-016 -4.8446734e-017 1.0000000e+000
      outer loop
         vertex 2.5000000e+001 4.3500000e+001 8.0000010e+000
         vertex 1.5250000e+001 4.3500000e+001 8.0000010e+000
         vertex 1.6579563e+001 3.8500000e+001 8.0000010e+000
      endloop
   endfacet
   facet normal 0.0000000e+000 0.0000000e+000 1.0000000e+000
      outer loop
         vertex 1.6579563e+001 3.8500000e+001 8.0000010e+000
         vertex 1.5250000e+001 4.3500000e+001 8.0000010e+000
         vertex 1.5250000e+001 3.5000000e+001 8.0000010e+000
      endloop
   endfacet
   facet normal -4.1876143e-015 1.5907706e-015 1.0000000e+000
      outer loop
         vertex 1.6579563e+001 3.8500000e+001 8.0000010e+000
         vertex 1.5250000e+001 3.5000000e+001 8.0000010e+000
         vertex 1.6254505e+001 3.5410973e+001 8.0000010e+000
      endloop
   endfacet
   facet normal -3.4505549e-015 -2.1075765e-016 1.0000000e+000
      outer loop
         vertex 1.6254505e+001 3.5410973e+001 8.0000010e+000
         vertex 1.5250000e+001 3.5000000e+001 8.0000010e+000
         vertex 1.6443869e+001 3.2310668e+001 8.0000010e+000
      endloop
   endfacet
   facet normal -3.6587263e-015 -3.0317070e-016 1.0000000e+000
      outer loop
         vertex 1.6443869e+001 3.2310668e+001 8.0000010e+000
         vertex 1.5250000e+001 3.5000000e+001 8.0000010e+000
         vertex 1.5519364e+001 3.1749257e+001 8.0000010e+000
      endloop
   endfacet
   facet normal -3.3704009e-015 -7.7797111e-016 1.0000000e+000
      outer loop
         vertex 1.6443869e+001 3.2310668e+001 8.0000010e+000
         vertex 1.5519364e+001 3.1749257e+001 8.0000010e+000
         vertex 1.7142460e+001 2.9284165e+001 8.0000010e+000
      endloop
   endfacet
   facet normal -3.5568045e-015 -9.0070523e-016 1.0000000e+000
      outer loop
         vertex 1.7142460e+001 2.9284165e+001 8.0000010e+000
         vertex 1.5519364e+001 3.1749257e+001 8.0000010e+000
         vertex 1.6320109e+001 2.8587185e+001 8.0000010e+000
      endloop
   endfacet
   facet normal -3.1976211e-015 -1.3244980e-015 1.0000000e+000
      outer loop
         vertex 1.7142460e+001 2.9284165e+001 8.0000010e+000
         vertex 1.6320109e+001 2.8587185e+001 8.0000010e+000
         vertex 1.8331107e+001 2.6414518e+001 8.0000010e+000
      endloop
   endfacet
   facet normal -3.3580254e-015 -1.4729665e-015 1.0000000e+000
      outer loop
         vertex 1.8331107e+001 2.6414518e+001 8.0000010e+000
         vertex 1.6320109e+001 2.8587185e+001 8.0000010e+000
         vertex 1.7630393e+001 2.5600039e+001 8.0000010e+000
      endloop
   endfacet
   facet normal -2.9368468e-015 -1.8353150e-015 1.0000000e+000
      outer loop
         vertex 1.8331107e+001 2.6414518e+001 8.0000010e+000
         vertex 1.7630393e+001 2.5600039e+001 8.0000010e+000
         vertex 1.9977189e+001 2.3780479e+001 8.0000010e+000
      endloop
   endfacet
   facet normal -3.0679267e-015 -2.0043766e-015 1.0000000e+000
      outer loop
         vertex 1.9977189e+001 2.3780479e+001 8.0000010e+000
         vertex 1.7630393e+001 2.5600039e+001 8.0000010e+000
         vertex 1.9414475e+001 2.2869299e+001 8.0000010e+000
      endloop
   endfacet
   facet normal -2.5951293e-015 -2.2963603e-015 1.0000000e+000
      outer loop
         vertex 1.9977189e+001 2.3780479e+001 8.0000010e+000
         vertex 1.9414475e+001 2.2869299e+001 8.0000010e+000
         vertex 2.2035535e+001 2.1454331e+001 8.0000010e+000
      endloop
   endfacet
   facet normal -1.9001732e-015 -1.0090365e-015 1.0000000e+000
      outer loop
         vertex 2.2035535e+001 2.1454331e+001 8.0000010e+000
         vertex 1.9414475e+001 2.2869299e+001 8.0000010e+000
         vertex 2.1623689e+001 2.0469453e+001 8.0000010e+000
      endloop
   endfacet
   facet normal -1.0908743e-015 -1.3474604e-015 1.0000000e+000
      outer loop
         vertex 2.2035535e+001 2.1454331e+001 8.0000010e+000
         vertex 2.1623689e+001 2.0469453e+001 8.0000010e+000
         vertex 2.4449658e+001 1.9499910e+001 8.0000010e+000
      endloop
   endfacet
   facet normal -1.1240625e-015 -1.4441956e-015 1.0000000e+000
      outer loop
         vertex 2.4449658e+001 1.9499910e+001 8.0000010e+000
         vertex 2.1623689e+001 2.0469453e+001 8.0000010e+000
         vertex 2.4197774e+001 1.8465962e+001 8.0000010e+000
      endloop
   endfacet
   facet normal -8.2145454e-016 -1.5179150e-015 1.0000000e+000
      outer loop
         vertex 2.4449658e+001 1.9499910e+001 8.0000010e+000
         vertex 2.4197774e+001 1.8465962e+001 8.0000010e+000
         vertex 2.7066515e+001 1.6913477e+001 8.0000010e+000
      endloop
   endfacet
   facet normal 3.4139102e-016 -3.4139102e-016 1.0000000e+000
      outer loop
         vertex 2.4449658e+001 1.9499910e+001 8.0000010e+000
         vertex 2.7066515e+001 1.6913477e+001 8.0000010e+000
         vertex 2.8739936e+001 2.3790188e+001 8.0000010e+000
      endloop
   endfacet
   facet normal -8.1842427e-017 -2.3839885e-016 1.0000000e+000
      outer loop
         vertex 2.8739936e+001 2.3790188e+001 8.0000010e+000
         vertex 2.7066515e+001 1.6913477e+001 8.0000010e+000
         vertex 3.0151662e+001 1.5854345e+001 8.0000010e+000
      endloop
   endfacet
   facet normal -1.0009282e-016 -2.4164545e-016 1.0000000e+000
      outer loop
         vertex 2.8739936e+001 2.3790188e+001 8.0000010e+000
         vertex 3.0151662e+001 1.5854345e+001 8.0000010e+000
         vertex 3.1500000e+001 2.2646932e+001 8.0000010e+000
      endloop
   endfacet
   facet normal -1.3174414e-015 0.0000000e+000 1.0000000e+000
      outer loop
         vertex 3.1500000e+001 2.2646932e+001 8.0000010e+000
         vertex 3.0151662e+001 1.5854345e+001 8.0000010e+000
         vertex 3.1500000e+001 1.6579563e+001 8.0000010e+000
      endloop
   endfacet
   facet normal -3.1195170e-016 -1.8694240e-015 1.0000000e+000
      outer loop
         vertex 3.1500000e+001 1.6579563e+001 8.0000010e+000
         vertex 3.0151662e+001 1.5854345e+001 8.0000010e+000
         vertex 3.3369058e+001 1.5317456e+001 8.0000010e+000
      endloop
   endfacet
   facet normal -2.1767312e-016 -1.7298066e-015 1.0000000e+000
      outer loop
         vertex 3.1500000e+001 1.6579563e+001 8.0000010e+000
         vertex 3.3369058e+001 1.5317456e+001 8.0000010e+000
         vertex 3.3827216e+001 1.6286714e+001 8.0000010e+000
      endloop
   endfacet
   facet normal -5.5517897e-030 -1.8326983e-015 1.0000000e+000
      outer loop
         vertex 3.3827216e+001 1.6286714e+001 8.0000010e+000
         vertex 3.3369058e+001 1.5317456e+001 8.0000010e+000
         vertex 3.6172784e+001 1.6286714e+001 8.0000010e+000
      endloop
   endfacet
   facet normal -5.4457999e-016 -2.5741711e-016 1.0000000e+000
      outer loop
         vertex 3.6172784e+001 1.6286714e+001 8.0000010e+000
         vertex 3.3369058e+001 1.5317456e+001 8.0000010e+000
         vertex 3.6630942e+001 1.5317456e+001 8.0000010e+000
      endloop
   endfacet
   facet normal -0.0000000e+000 0.0000000e+000 1.0000000e+000
      outer loop
         vertex 3.6172784e+001 1.6286714e+001 8.0000010e+000
         vertex 3.6630942e+001 1.5317456e+001 8.0000010e+000
         vertex 3.8500000e+001 1.6579563e+001 8.0000010e+000
      endloop
   endfacet
   facet normal -0.0000000e+000 0.0000000e+000 1.0000000e+000
      outer loop
         vertex 3.8500000e+001 1.6579563e+001 8.0000010e+000
         vertex 3.6630942e+001 1.5317456e+001 8.0000010e+000
         vertex 3.9848338e+001 1.5854345e+001 8.0000010e+000
      endloop
   endfacet
   facet normal -0.0000000e+000 -0.0000000e+000 1.0000000e+000
      outer loop
         vertex 3.8500000e+001 1.6579563e+001 8.0000010e+000
         vertex 3.9848338e+001 1.5854345e+001 8.0000010e+000
         vertex 3.8500000e+001 2.2646932e+001 8.0000010e+000
      endloop
   endfacet
   facet normal -0.0000000e+000 0.0000000e+000 1.0000000e+000
      outer loop
         vertex 3.8500000e+001 2.2646932e+001 8.0000010e+000
         vertex 3.9848338e+001 1.5854345e+001 8.0000010e+000
         vertex 4.1260064e+001 2.3790188e+001 8.0000010e+000
      endloop
   endfacet
   facet normal 0.0000000e+000 -0.0000000e+000 1.0000000e+000
      outer loop
         vertex 3.8500000e+001 2.2646932e+001 8.0000010e+000
         vertex 4.1260064e+001 2.3790188e+001 8.0000010e+000
         vertex 4.0925212e+001 2.4047129e+001 8.0000010e+000
      endloop
   endfacet
   facet normal 0.0000000e+000 -0.0000000e+000 1.0000000e+000
      outer loop
         vertex 3.9848338e+001 1.5854345e+001 8.0000010e+000
         vertex 4.2933485e+001 1.6913477e+001 8.0000010e+000
         vertex 4.1260064e+001 2.3790188e+001 8.0000010e+000
      endloop
   endfacet
   facet normal -0.0000000e+000 0.0000000e+000 1.0000000e+000
      outer loop
         vertex 4.1260064e+001 2.3790188e+001 8.0000010e+000
         vertex 4.2933485e+001 1.6913477e+001 8.0000010e+000
         vertex 4.5550342e+001 1.9499910e+001 8.0000010e+000
      endloop
   endfacet
   facet normal -0.0000000e+000 0.0000000e+000 1.0000000e+000
      outer loop
         vertex 4.5550342e+001 1.9499910e+001 8.0000010e+000
         vertex 4.2933485e+001 1.6913477e+001 8.0000010e+000
         vertex 4.5802226e+001 1.8465962e+001 8.0000010e+000
      endloop
   endfacet
   facet normal -0.0000000e+000 0.0000000e+000 1.0000000e+000
      outer loop
         vertex 4.5550342e+001 1.9499910e+001 8.0000010e+000
         vertex 4.5802226e+001 1.8465962e+001 8.0000010e+000
         vertex 4.8376311e+001 2.0469453e+001 8.0000010e+000
      endloop
   endfacet
   facet normal 0.0000000e+000 -0.0000000e+000 1.0000000e+000
      outer loop
         vertex 4.5550342e+001 1.9499910e+001 8.0000010e+000
         vertex 4.8376311e+001 2.0469453e+001 8.0000010e+000
         vertex 4.7964465e+001 2.1454331e+001 8.0000010e+000
      endloop
   endfacet
   facet normal -5.5290751e-016 -2.3120891e-016 1.0000000e+000
      outer loop
         vertex 4.7964465e+001 2.1454331e+001 8.0000010e+000
         vertex 4.8376311e+001 2.0469453e+001 8.0000010e+000
         vertex 5.0585525e+001 2.2869299e+001 8.0000010e+000
      endloop
   endfacet
   facet normal -1.2975647e-015 1.1481802e-015 1.0000000e+000
      outer loop
         vertex 4.7964465e+001 2.1454331e+001 8.0000010e+000
         vertex 5.0585525e+001 2.2869299e+001 8.0000010e+000
         vertex 5.0022811e+001 2.3780479e+001 8.0000010e+000
      endloop
   endfacet
   facet normal -1.5339634e-015 1.0021883e-015 1.0000000e+000
      outer loop
         vertex 5.0022811e+001 2.3780479e+001 8.0000010e+000
         vertex 5.0585525e+001 2.2869299e+001 8.0000010e+000
         vertex 5.2369607e+001 2.5600039e+001 8.0000010e+000
      endloop
   endfacet
   facet normal -1.4684234e-015 9.1765748e-016 1.0000000e+000
      outer loop
         vertex 5.0022811e+001 2.3780479e+001 8.0000010e+000
         vertex 5.2369607e+001 2.5600039e+001 8.0000010e+000
         vertex 5.1668893e+001 2.6414518e+001 8.0000010e+000
      endloop
   endfacet
   facet normal -1.6790127e-015 7.3648324e-016 1.0000000e+000
      outer loop
         vertex 5.1668893e+001 2.6414518e+001 8.0000010e+000
         vertex 5.2369607e+001 2.5600039e+001 8.0000010e+000
         vertex 5.3679891e+001 2.8587185e+001 8.0000010e+000
      endloop
   endfacet
   facet normal -1.5988105e-015 6.6224901e-016 1.0000000e+000
      outer loop
         vertex 5.1668893e+001 2.6414518e+001 8.0000010e+000
         vertex 5.3679891e+001 2.8587185e+001 8.0000010e+000
         vertex 5.2857540e+001 2.9284165e+001 8.0000010e+000
      endloop
   endfacet
   facet normal -1.7784023e-015 4.5035262e-016 1.0000000e+000
      outer loop
         vertex 5.2857540e+001 2.9284165e+001 8.0000010e+000
         vertex 5.3679891e+001 2.8587185e+001 8.0000010e+000
         vertex 5.4480636e+001 3.1749257e+001 8.0000010e+000
      endloop
   endfacet
   facet normal -1.6852005e-015 3.8898556e-016 1.0000000e+000
      outer loop
         vertex 5.2857540e+001 2.9284165e+001 8.0000010e+000
         vertex 5.4480636e+001 3.1749257e+001 8.0000010e+000
         vertex 5.3556131e+001 3.2310668e+001 8.0000010e+000
      endloop
   endfacet
   facet normal -1.8293632e-015 1.5158535e-016 1.0000000e+000
      outer loop
         vertex 5.3556131e+001 3.2310668e+001 8.0000010e+000
         vertex 5.4480636e+001 3.1749257e+001 8.0000010e+000
         vertex 5.4750000e+001 3.5000000e+001 8.0000010e+000
      endloop
   endfacet
   facet normal -1.7252775e-015 1.0537883e-016 1.0000000e+000
      outer loop
         vertex 5.3556131e+001 3.2310668e+001 8.0000010e+000
         vertex 5.4750000e+001 3.5000000e+001 8.0000010e+000
         vertex 5.3745495e+001 3.5410973e+001 8.0000010e+000
      endloop
   endfacet
   facet normal -2.0938071e-015 -7.9538528e-016 1.0000000e+000
      outer loop
         vertex 5.3745495e+001 3.5410973e+001 8.0000010e+000
         vertex 5.4750000e+001 3.5000000e+001 8.0000010e+000
         vertex 5.3420437e+001 3.8500000e+001 8.0000010e+000
      endloop
   endfacet
   facet normal -0.0000000e+000 0.0000000e+000 1.0000000e+000
      outer loop
         vertex 5.3420437e+001 3.8500000e+001 8.0000010e+000
         vertex 5.4750000e+001 3.5000000e+001 8.0000010e+000
         vertex 5.4750000e+001 4.3500000e+001 8.0000010e+000
      endloop
   endfacet
   facet normal -1.8219045e-016 4.8446734e-017 1.0000000e+000
      outer loop
         vertex 5.3420437e+001 3.8500000e+001 8.0000010e+000
         vertex 5.4750000e+001 4.3500000e+001 8.0000010e+000
         vertex 4.5000000e+001 4.3500000e+001 8.0000010e+000
      endloop
   endfacet
   facet normal 0.0000000e+000 0.0000000e+000 1.0000000e+000
      outer loop
         vertex 3.1444909e+001 2.3065393e+001 8.0000010e+000
         vertex 3.1283389e+001 2.3455336e+001 8.0000010e+000
         vertex 3.1500000e+001 2.2646932e+001 8.0000010e+000
      endloop
   endfacet
   facet normal 0.0000000e+000 0.0000000e+000 1.0000000e+000
      outer loop
         vertex 3.1500000e+001 2.2646932e+001 8.0000010e+000
         vertex 3.1283389e+001 2.3455336e+001 8.0000010e+000
         vertex 3.1026448e+001 2.3790188e+001 8.0000010e+000
      endloop
   endfacet
   facet normal 0.0000000e+000 0.0000000e+000 1.0000000e+000
      outer loop
         vertex 3.1500000e+001 2.2646932e+001 8.0000010e+000
         vertex 3.1026448e+001 2.3790188e+001 8.0000010e+000
         vertex 3.0691596e+001 2.4047129e+001 8.0000010e+000
      endloop
   endfacet
   facet normal 0.0000000e+000 0.0000000e+000 1.0000000e+000
      outer loop
         vertex 3.0691596e+001 2.4047129e+001 8.0000010e+000
         vertex 3.0301653e+001 2.4208649e+001 8.0000010e+000
         vertex 3.1500000e+001 2.2646932e+001 8.0000010e+000
      endloop
   endfacet
   facet normal 0.0000000e+000 0.0000000e+000 1.0000000e+000
      outer loop
         vertex 3.1500000e+001 2.2646932e+001 8.0000010e+000
         vertex 3.0301653e+001 2.4208649e+001 8.0000010e+000
         vertex 2.9883192e+001 2.4263740e+001 8.0000010e+000
      endloop
   endfacet
   facet normal 0.0000000e+000 0.0000000e+000 1.0000000e+000
      outer loop
         vertex 3.1500000e+001 2.2646932e+001 8.0000010e+000
         vertex 2.9883192e+001 2.4263740e+001 8.0000010e+000
         vertex 2.9464731e+001 2.4208649e+001 8.0000010e+000
      endloop
   endfacet
   facet normal 0.0000000e+000 0.0000000e+000 1.0000000e+000
      outer loop
         vertex 2.9464731e+001 2.4208649e+001 8.0000010e+000
         vertex 2.9074788e+001 2.4047129e+001 8.0000010e+000
         vertex 3.1500000e+001 2.2646932e+001 8.0000010e+000
      endloop
   endfacet
   facet normal 0.0000000e+000 0.0000000e+000 1.0000000e+000
      outer loop
         vertex 3.1500000e+001 2.2646932e+001 8.0000010e+000
         vertex 2.9074788e+001 2.4047129e+001 8.0000010e+000
         vertex 2.8739936e+001 2.3790188e+001 8.0000010e+000
      endloop
   endfacet
   facet normal 0.0000000e+000 0.0000000e+000 1.0000000e+000
      outer loop
         vertex 4.0925212e+001 2.4047129e+001 8.0000010e+000
         vertex 4.0535269e+001 2.4208649e+001 8.0000010e+000
         vertex 3.8500000e+001 2.2646932e+001 8.0000010e+000
      endloop
   endfacet
   facet normal 0.0000000e+000 -0.0000000e+000 1.0000000e+000
      outer loop
         vertex 3.8500000e+001 2.2646932e+001 8.0000010e+000
         vertex 4.0535269e+001 2.4208649e+001 8.0000010e+000
         vertex 4.0116808e+001 2.4263740e+001 8.0000010e+000
      endloop
   endfacet
   facet normal 0.0000000e+000 -0.0000000e+000 1.0000000e+000
      outer loop
         vertex 3.8500000e+001 2.2646932e+001 8.0000010e+000
         vertex 4.0116808e+001 2.4263740e+001 8.0000010e+000
         vertex 3.9698347e+001 2.4208649e+001 8.0000010e+000
      endloop
   endfacet
   facet normal 0.0000000e+000 0.0000000e+000 1.0000000e+000
      outer loop
         vertex 3.9698347e+001 2.4208649e+001 8.0000010e+000
         vertex 3.9308404e+001 2.4047129e+001 8.0000010e+000
         vertex 3.8500000e+001 2.2646932e+001 8.0000010e+000
      endloop
   endfacet
   facet normal 0.0000000e+000 -0.0000000e+000 1.0000000e+000
      outer loop
         vertex 3.8500000e+001 2.2646932e+001 8.0000010e+000
         vertex 3.9308404e+001 2.4047129e+001 8.0000010e+000
         vertex 3.8973552e+001 2.3790188e+001 8.0000010e+000
      endloop
   endfacet
   facet normal 0.0000000e+000 -0.0000000e+000 1.0000000e+000
      outer loop
         vertex 3.8500000e+001 2.2646932e+001 8.0000010e+000
         vertex 3.8973552e+001 2.3790188e+001 8.0000010e+000
         vertex 3.8716611e+001 2.3455336e+001 8.0000010e+000
      endloop
   endfacet
   facet normal 0.0000000e+000 0.0000000e+000 1.0000000e+000
      outer loop
         vertex 3.8716611e+001 2.3455336e+001 8.0000010e+000
         vertex 3.8555091e+001 2.3065393e+001 8.0000010e+000
         vertex 3.8500000e+001 2.2646932e+001 8.0000010e+000
      endloop
   endfacet
   facet normal -9.9144486e-001 1.3052619e-001 0.0000000e+000
      outer loop
         vertex 3.8500000e+001 2.2646932e+001 8.0000010e+000
         vertex 3.8555091e+001 2.3065393e+001 8.0000010e+000
         vertex 3.8500000e+001 2.2646932e+001 5.0000010e+000
      endloop
   endfacet
   facet normal -9.9144486e-001 1.3052619e-001 0.0000000e+000
      outer loop
         vertex 3.8500000e+001 2.2646932e+001 5.0000010e+000
         vertex 3.8555091e+001 2.3065393e+001 8.0000010e+000
         vertex 3.8555091e+001 2.3065393e+001 5.0000010e+000
      endloop
   endfacet
   facet normal -9.2387953e-001 3.8268343e-001 0.0000000e+000
      outer loop
         vertex 3.8555091e+001 2.3065393e+001 5.0000010e+000
         vertex 3.8555091e+001 2.3065393e+001 8.0000010e+000
         vertex 3.8716611e+001 2.3455336e+001 8.0000010e+000
      endloop
   endfacet
   facet normal -9.2387953e-001 3.8268343e-001 0.0000000e+000
      outer loop
         vertex 3.8555091e+001 2.3065393e+001 5.0000010e+000
         vertex 3.8716611e+001 2.3455336e+001 8.0000010e+000
         vertex 3.8716611e+001 2.3455336e+001 5.0000010e+000
      endloop
   endfacet
   facet normal -7.9335334e-001 6.0876143e-001 0.0000000e+000
      outer loop
         vertex 3.8716611e+001 2.3455336e+001 5.0000010e+000
         vertex 3.8716611e+001 2.3455336e+001 8.0000010e+000
         vertex 3.8973552e+001 2.3790188e+001 8.0000010e+000
      endloop
   endfacet
   facet normal -7.9335334e-001 6.0876143e-001 0.0000000e+000
      outer loop
         vertex 3.8716611e+001 2.3455336e+001 5.0000010e+000
         vertex 3.8973552e+001 2.3790188e+001 8.0000010e+000
         vertex 3.8973552e+001 2.3790188e+001 5.0000010e+000
      endloop
   endfacet
   facet normal -6.0876143e-001 7.9335334e-001 0.0000000e+000
      outer loop
         vertex 3.8973552e+001 2.3790188e+001 5.0000010e+000
         vertex 3.8973552e+001 2.3790188e+001 8.0000010e+000
         vertex 3.9308404e+001 2.4047129e+001 8.0000010e+000
      endloop
   endfacet
   facet normal -6.0876143e-001 7.9335334e-001 0.0000000e+000
      outer loop
         vertex 3.8973552e+001 2.3790188e+001 5.0000010e+000
         vertex 3.9308404e+001 2.4047129e+001 8.0000010e+000
         vertex 3.9308404e+001 2.4047129e+001 5.0000010e+000
      endloop
   endfacet
   facet normal -3.8268343e-001 9.2387953e-001 0.0000000e+000
      outer loop
         vertex 3.9308404e+001 2.4047129e+001 5.0000010e+000
         vertex 3.9308404e+001 2.4047129e+001 8.0000010e+000
         vertex 3.9698347e+001 2.4208649e+001 8.0000010e+000
      endloop
   endfacet
   facet normal -3.8268343e-001 9.2387953e-001 0.0000000e+000
      outer loop
         vertex 3.9308404e+001 2.4047129e+001 5.0000010e+000
         vertex 3.9698347e+001 2.4208649e+001 8.0000010e+000
         vertex 3.9698347e+001 2.4208649e+001 5.0000010e+000
      endloop
   endfacet
   facet normal -1.3052619e-001 9.9144486e-001 0.0000000e+000
      outer loop
         vertex 3.9698347e+001 2.4208649e+001 5.0000010e+000
         vertex 3.9698347e+001 2.4208649e+001 8.0000010e+000
         vertex 4.0116808e+001 2.4263740e+001 8.0000010e+000
      endloop
   endfacet
   facet normal -1.3052619e-001 9.9144486e-001 0.0000000e+000
      outer loop
         vertex 3.9698347e+001 2.4208649e+001 5.0000010e+000
         vertex 4.0116808e+001 2.4263740e+001 8.0000010e+000
         vertex 4.0116808e+001 2.4263740e+001 5.0000010e+000
      endloop
   endfacet
   facet normal 1.3052619e-001 9.9144486e-001 -0.0000000e+000
      outer loop
         vertex 4.0116808e+001 2.4263740e+001 5.0000010e+000
         vertex 4.0116808e+001 2.4263740e+001 8.0000010e+000
         vertex 4.0535269e+001 2.4208649e+001 8.0000010e+000
      endloop
   endfacet
   facet normal 1.3052619e-001 9.9144486e-001 0.0000000e+000
      outer loop
         vertex 4.0116808e+001 2.4263740e+001 5.0000010e+000
         vertex 4.0535269e+001 2.4208649e+001 8.0000010e+000
         vertex 4.0535269e+001 2.4208649e+001 5.0000010e+000
      endloop
   endfacet
   facet normal 3.8268343e-001 9.2387953e-001 -0.0000000e+000
      outer loop
         vertex 4.0535269e+001 2.4208649e+001 5.0000010e+000
         vertex 4.0535269e+001 2.4208649e+001 8.0000010e+000
         vertex 4.0925212e+001 2.4047129e+001 8.0000010e+000
      endloop
   endfacet
   facet normal 3.8268343e-001 9.2387953e-001 0.0000000e+000
      outer loop
         vertex 4.0535269e+001 2.4208649e+001 5.0000010e+000
         vertex 4.0925212e+001 2.4047129e+001 8.0000010e+000
         vertex 4.0925212e+001 2.4047129e+001 5.0000010e+000
      endloop
   endfacet
   facet normal 6.0876143e-001 7.9335334e-001 -0.0000000e+000
      outer loop
         vertex 4.0925212e+001 2.4047129e+001 5.0000010e+000
         vertex 4.0925212e+001 2.4047129e+001 8.0000010e+000
         vertex 4.1260064e+001 2.3790188e+001 8.0000010e+000
      endloop
   endfacet
   facet normal 6.0876143e-001 7.9335334e-001 0.0000000e+000
      outer loop
         vertex 4.0925212e+001 2.4047129e+001 5.0000010e+000
         vertex 4.1260064e+001 2.3790188e+001 8.0000010e+000
         vertex 4.1260064e+001 2.3790188e+001 5.0000010e+000
      endloop
   endfacet
   facet normal -1.0000000e+000 0.0000000e+000 0.0000000e+000
      outer loop
         vertex 3.8500000e+001 1.6579563e+001 5.0000010e+000
         vertex 3.8500000e+001 1.6579563e+001 8.0000010e+000
         vertex 3.8500000e+001 2.2646932e+001 5.0000010e+000
      endloop
   endfacet
   facet normal -1.0000000e+000 0.0000000e+000 0.0000000e+000
      outer loop
         vertex 3.8500000e+001 2.2646932e+001 5.0000010e+000
         vertex 3.8500000e+001 1.6579563e+001 8.0000010e+000
         vertex 3.8500000e+001 2.2646932e+001 8.0000010e+000
      endloop
   endfacet
   facet normal 7.0710678e-001 7.0710678e-001 0.0000000e+000
      outer loop
         vertex 4.5550342e+001 1.9499910e+001 8.0000010e+000
         vertex 4.5550342e+001 1.9499910e+001 5.0000010e+000
         vertex 4.1260064e+001 2.3790188e+001 8.0000010e+000
      endloop
   endfacet
   facet normal 7.0710678e-001 7.0710678e-001 0.0000000e+000
      outer loop
         vertex 4.1260064e+001 2.3790188e+001 8.0000010e+000
         vertex 4.5550342e+001 1.9499910e+001 5.0000010e+000
         vertex 4.1260064e+001 2.3790188e+001 5.0000010e+000
      endloop
   endfacet
   facet normal -1.2485205e-001 9.9217537e-001 0.0000000e+000
      outer loop
         vertex 3.8500000e+001 1.6579563e+001 5.0000010e+000
         vertex 3.6172784e+001 1.6286714e+001 5.0000010e+000
         vertex 3.8500000e+001 1.6579563e+001 8.0000010e+000
      endloop
   endfacet
   facet normal -1.2485205e-001 9.9217537e-001 -2.9570907e-016
      outer loop
         vertex 3.8500000e+001 1.6579563e+001 8.0000010e+000
         vertex 3.6172784e+001 1.6286714e+001 5.0000010e+000
         vertex 3.6172784e+001 1.6286714e+001 8.0000010e+000
      endloop
   endfacet
   facet normal 0.0000000e+000 1.0000000e+000 0.0000000e+000
      outer loop
         vertex 3.6172784e+001 1.6286714e+001 8.0000010e+000
         vertex 3.6172784e+001 1.6286714e+001 5.0000010e+000
         vertex 3.3827216e+001 1.6286714e+001 5.0000010e+000
      endloop
   endfacet
   facet normal 3.0292982e-015 1.0000000e+000 -2.3684758e-015
      outer loop
         vertex 3.6172784e+001 1.6286714e+001 8.0000010e+000
         vertex 3.3827216e+001 1.6286714e+001 5.0000010e+000
         vertex 3.3827216e+001 1.6286714e+001 8.0000010e+000
      endloop
   endfacet
   facet normal 1.2485205e-001 9.9217537e-001 -1.4628161e-015
      outer loop
         vertex 3.3827216e+001 1.6286714e+001 8.0000010e+000
         vertex 3.3827216e+001 1.6286714e+001 5.0000010e+000
         vertex 3.1500000e+001 1.6579563e+001 8.0000010e+000
      endloop
   endfacet
   facet normal 1.2485205e-001 9.9217537e-001 0.0000000e+000
      outer loop
         vertex 3.1500000e+001 1.6579563e+001 8.0000010e+000
         vertex 3.3827216e+001 1.6286714e+001 5.0000010e+000
         vertex 3.1500000e+001 1.6579563e+001 5.0000010e+000
      endloop
   endfacet
   facet normal -6.2922368e-001 7.7722427e-001 0.0000000e+000
      outer loop
         vertex 4.5550342e+001 1.9499910e+001 8.0000010e+000
         vertex 4.7964465e+001 2.1454331e+001 8.0000010e+000
         vertex 4.5550342e+001 1.9499910e+001 5.0000010e+000
      endloop
   endfacet
   facet normal -6.2922368e-001 7.7722427e-001 -1.4903010e-015
      outer loop
         vertex 4.5550342e+001 1.9499910e+001 5.0000010e+000
         vertex 4.7964465e+001 2.1454331e+001 8.0000010e+000
         vertex 4.7964465e+001 2.1454331e+001 5.0000010e+000
      endloop
   endfacet
   facet normal -7.4890075e-001 6.6268218e-001 -1.7737533e-015
      outer loop
         vertex 4.7964465e+001 2.1454331e+001 5.0000010e+000
         vertex 4.7964465e+001 2.1454331e+001 8.0000010e+000
         vertex 5.0022811e+001 2.3780479e+001 8.0000010e+000
      endloop
   endfacet
   facet normal -7.4890075e-001 6.6268218e-001 1.5695467e-015
      outer loop
         vertex 4.7964465e+001 2.1454331e+001 5.0000010e+000
         vertex 5.0022811e+001 2.3780479e+001 8.0000010e+000
         vertex 5.0022811e+001 2.3780479e+001 5.0000010e+000
      endloop
   endfacet
   facet normal -8.4802611e-001 5.2995444e-001 1.2551843e-015
      outer loop
         vertex 5.0022811e+001 2.3780479e+001 5.0000010e+000
         vertex 5.0022811e+001 2.3780479e+001 8.0000010e+000
         vertex 5.1668893e+001 2.6414518e+001 8.0000010e+000
      endloop
   endfacet
   facet normal -8.4802611e-001 5.2995444e-001 0.0000000e+000
      outer loop
         vertex 5.0022811e+001 2.3780479e+001 5.0000010e+000
         vertex 5.1668893e+001 2.6414518e+001 8.0000010e+000
         vertex 5.1668893e+001 2.6414518e+001 5.0000010e+000
      endloop
   endfacet
   facet normal -9.2387953e-001 3.8268343e-001 0.0000000e+000
      outer loop
         vertex 5.1668893e+001 2.6414518e+001 5.0000010e+000
         vertex 5.1668893e+001 2.6414518e+001 8.0000010e+000
         vertex 5.2857540e+001 2.9284165e+001 8.0000010e+000
      endloop
   endfacet
   facet normal -9.2387953e-001 3.8268343e-001 1.2818099e-015
      outer loop
         vertex 5.1668893e+001 2.6414518e+001 5.0000010e+000
         vertex 5.2857540e+001 2.9284165e+001 8.0000010e+000
         vertex 5.2857540e+001 2.9284165e+001 5.0000010e+000
      endloop
   endfacet
   facet normal -9.7437939e-001 2.2491064e-001 1.7750986e-015
      outer loop
         vertex 5.2857540e+001 2.9284165e+001 5.0000010e+000
         vertex 5.2857540e+001 2.9284165e+001 8.0000010e+000
         vertex 5.3556131e+001 3.2310668e+001 8.0000010e+000
      endloop
   endfacet
   facet normal -9.7437939e-001 2.2491064e-001 -5.3269540e-016
      outer loop
         vertex 5.2857540e+001 2.9284165e+001 5.0000010e+000
         vertex 5.3556131e+001 3.2310668e+001 8.0000010e+000
         vertex 5.3556131e+001 3.2310668e+001 5.0000010e+000
      endloop
   endfacet
   facet normal -9.9813986e-001 6.0965734e-002 -1.4439586e-016
      outer loop
         vertex 5.3556131e+001 3.2310668e+001 5.0000010e+000
         vertex 5.3556131e+001 3.2310668e+001 8.0000010e+000
         vertex 5.3745495e+001 3.5410973e+001 8.0000010e+000
      endloop
   endfacet
   facet normal -9.9813986e-001 6.0965734e-002 -2.8879173e-016
      outer loop
         vertex 5.3556131e+001 3.2310668e+001 5.0000010e+000
         vertex 5.3745495e+001 3.5410973e+001 8.0000010e+000
         vertex 5.3745495e+001 3.5410973e+001 5.0000010e+000
      endloop
   endfacet
   facet normal -9.9450888e-001 -1.0465222e-001 4.9573250e-016
      outer loop
         vertex 5.3745495e+001 3.5410973e+001 5.0000010e+000
         vertex 5.3745495e+001 3.5410973e+001 8.0000010e+000
         vertex 5.3420437e+001 3.8500000e+001 8.0000010e+000
      endloop
   endfacet
   facet normal -9.9450888e-001 -1.0465222e-001 -4.7109404e-015
      outer loop
         vertex 5.3745495e+001 3.5410973e+001 5.0000010e+000
         vertex 5.3420437e+001 3.8500000e+001 8.0000010e+000
         vertex 5.3420437e+001 3.8500000e+001 5.0000010e+000
      endloop
   endfacet
   facet normal 1.0000000e+000 -0.0000000e+000 0.0000000e+000
      outer loop
         vertex 3.1500000e+001 1.6579563e+001 8.0000010e+000
         vertex 3.1500000e+001 1.6579563e+001 5.0000010e+000
         vertex 3.1500000e+001 2.2646932e+001 8.0000010e+000
      endloop
   endfacet
   facet normal 1.0000000e+000 -0.0000000e+000 0.0000000e+000
      outer loop
         vertex 3.1500000e+001 2.2646932e+001 8.0000010e+000
         vertex 3.1500000e+001 1.6579563e+001 5.0000010e+000
         vertex 3.1500000e+001 2.2646932e+001 5.0000010e+000
      endloop
   endfacet
   facet normal 9.9144486e-001 1.3052619e-001 0.0000000e+000
      outer loop
         vertex 3.1500000e+001 2.2646932e+001 5.0000010e+000
         vertex 3.1444909e+001 2.3065393e+001 5.0000010e+000
         vertex 3.1500000e+001 2.2646932e+001 8.0000010e+000
      endloop
   endfacet
   facet normal 9.9144486e-001 1.3052619e-001 -0.0000000e+000
      outer loop
         vertex 3.1500000e+001 2.2646932e+001 8.0000010e+000
         vertex 3.1444909e+001 2.3065393e+001 5.0000010e+000
         vertex 3.1444909e+001 2.3065393e+001 8.0000010e+000
      endloop
   endfacet
   facet normal 9.2387953e-001 3.8268343e-001 0.0000000e+000
      outer loop
         vertex 3.1444909e+001 2.3065393e+001 8.0000010e+000
         vertex 3.1444909e+001 2.3065393e+001 5.0000010e+000
         vertex 3.1283389e+001 2.3455336e+001 5.0000010e+000
      endloop
   endfacet
   facet normal 9.2387953e-001 3.8268343e-001 -0.0000000e+000
      outer loop
         vertex 3.1444909e+001 2.3065393e+001 8.0000010e+000
         vertex 3.1283389e+001 2.3455336e+001 5.0000010e+000
         vertex 3.1283389e+001 2.3455336e+001 8.0000010e+000
      endloop
   endfacet
   facet normal 7.9335334e-001 6.0876143e-001 0.0000000e+000
      outer loop
         vertex 3.1283389e+001 2.3455336e+001 8.0000010e+000
         vertex 3.1283389e+001 2.3455336e+001 5.0000010e+000
         vertex 3.1026448e+001 2.3790188e+001 5.0000010e+000
      endloop
   endfacet
   facet normal 7.9335334e-001 6.0876143e-001 -0.0000000e+000
      outer loop
         vertex 3.1283389e+001 2.3455336e+001 8.0000010e+000
         vertex 3.1026448e+001 2.3790188e+001 5.0000010e+000
         vertex 3.1026448e+001 2.3790188e+001 8.0000010e+000
      endloop
   endfacet
   facet normal 6.0876143e-001 7.9335334e-001 0.0000000e+000
      outer loop
         vertex 3.1026448e+001 2.3790188e+001 8.0000010e+000
         vertex 3.1026448e+001 2.3790188e+001 5.0000010e+000
         vertex 3.0691596e+001 2.4047129e+001 5.0000010e+000
      endloop
   endfacet
   facet normal 6.0876143e-001 7.9335334e-001 -0.0000000e+000
      outer loop
         vertex 3.1026448e+001 2.3790188e+001 8.0000010e+000
         vertex 3.0691596e+001 2.4047129e+001 5.0000010e+000
         vertex 3.0691596e+001 2.4047129e+001 8.0000010e+000
      endloop
   endfacet
   facet normal 3.8268343e-001 9.2387953e-001 0.0000000e+000
      outer loop
         vertex 3.0691596e+001 2.4047129e+001 8.0000010e+000
         vertex 3.0691596e+001 2.4047129e+001 5.0000010e+000
         vertex 3.0301653e+001 2.4208649e+001 5.0000010e+000
      endloop
   endfacet
   facet normal 3.8268343e-001 9.2387953e-001 -0.0000000e+000
      outer loop
         vertex 3.0691596e+001 2.4047129e+001 8.0000010e+000
         vertex 3.0301653e+001 2.4208649e+001 5.0000010e+000
         vertex 3.0301653e+001 2.4208649e+001 8.0000010e+000
      endloop
   endfacet
   facet normal 1.3052619e-001 9.9144486e-001 0.0000000e+000
      outer loop
         vertex 3.0301653e+001 2.4208649e+001 8.0000010e+000
         vertex 3.0301653e+001 2.4208649e+001 5.0000010e+000
         vertex 2.9883192e+001 2.4263740e+001 5.0000010e+000
      endloop
   endfacet
   facet normal 1.3052619e-001 9.9144486e-001 -0.0000000e+000
      outer loop
         vertex 3.0301653e+001 2.4208649e+001 8.0000010e+000
         vertex 2.9883192e+001 2.4263740e+001 5.0000010e+000
         vertex 2.9883192e+001 2.4263740e+001 8.0000010e+000
      endloop
   endfacet
   facet normal -1.3052619e-001 9.9144486e-001 0.0000000e+000
      outer loop
         vertex 2.9883192e+001 2.4263740e+001 8.0000010e+000
         vertex 2.9883192e+001 2.4263740e+001 5.0000010e+000
         vertex 2.9464731e+001 2.4208649e+001 5.0000010e+000
      endloop
   endfacet
   facet normal -1.3052619e-001 9.9144486e-001 -2.3482131e-015
      outer loop
         vertex 2.9883192e+001 2.4263740e+001 8.0000010e+000
         vertex 2.9464731e+001 2.4208649e+001 5.0000010e+000
         vertex 2.9464731e+001 2.4208649e+001 8.0000010e+000
      endloop
   endfacet
   facet normal -3.8268343e-001 9.2387953e-001 -2.1881863e-015
      outer loop
         vertex 2.9464731e+001 2.4208649e+001 8.0000010e+000
         vertex 2.9464731e+001 2.4208649e+001 5.0000010e+000
         vertex 2.9074788e+001 2.4047129e+001 5.0000010e+000
      endloop
   endfacet
   facet normal -3.8268343e-001 9.2387953e-001 0.0000000e+000
      outer loop
         vertex 2.9464731e+001 2.4208649e+001 8.0000010e+000
         vertex 2.9074788e+001 2.4047129e+001 5.0000010e+000
         vertex 2.9074788e+001 2.4047129e+001 8.0000010e+000
      endloop
   endfacet
   facet normal -6.0876143e-001 7.9335334e-001 0.0000000e+000
      outer loop
         vertex 2.9074788e+001 2.4047129e+001 8.0000010e+000
         vertex 2.9074788e+001 2.4047129e+001 5.0000010e+000
         vertex 2.8739936e+001 2.3790188e+001 5.0000010e+000
      endloop
   endfacet
   facet normal -6.0876143e-001 7.9335334e-001 0.0000000e+000
      outer loop
         vertex 2.9074788e+001 2.4047129e+001 8.0000010e+000
         vertex 2.8739936e+001 2.3790188e+001 5.0000010e+000
         vertex 2.8739936e+001 2.3790188e+001 8.0000010e+000
      endloop
   endfacet
   facet normal -7.0710678e-001 7.0710678e-001 8.3738264e-016
      outer loop
         vertex 2.4449658e+001 1.9499910e+001 5.0000010e+000
         vertex 2.4449658e+001 1.9499910e+001 8.0000010e+000
         vertex 2.8739936e+001 2.3790188e+001 5.0000010e+000
      endloop
   endfacet
   facet normal -7.0710678e-001 7.0710678e-001 0.0000000e+000
      outer loop
         vertex 2.8739936e+001 2.3790188e+001 5.0000010e+000
         vertex 2.4449658e+001 1.9499910e+001 8.0000010e+000
         vertex 2.8739936e+001 2.3790188e+001 8.0000010e+000
      endloop
   endfacet
   facet normal 6.2922368e-001 7.7722427e-001 2.5735327e-015
      outer loop
         vertex 2.4449658e+001 1.9499910e+001 5.0000010e+000
         vertex 2.2035535e+001 2.1454331e+001 5.0000010e+000
         vertex 2.4449658e+001 1.9499910e+001 8.0000010e+000
      endloop
   endfacet
   facet normal 6.2922368e-001 7.7722427e-001 7.4515052e-016
      outer loop
         vertex 2.4449658e+001 1.9499910e+001 8.0000010e+000
         vertex 2.2035535e+001 2.1454331e+001 5.0000010e+000
         vertex 2.2035535e+001 2.1454331e+001 8.0000010e+000
      endloop
   endfacet
   facet normal 7.4890075e-001 6.6268218e-001 8.8687664e-016
      outer loop
         vertex 2.2035535e+001 2.1454331e+001 8.0000010e+000
         vertex 2.2035535e+001 2.1454331e+001 5.0000010e+000
         vertex 1.9977189e+001 2.3780479e+001 5.0000010e+000
      endloop
   endfacet
   facet normal 7.4890075e-001 6.6268218e-001 -1.3653401e-015
      outer loop
         vertex 2.2035535e+001 2.1454331e+001 8.0000010e+000
         vertex 1.9977189e+001 2.3780479e+001 5.0000010e+000
         vertex 1.9977189e+001 2.3780479e+001 8.0000010e+000
      endloop
   endfacet
   facet normal 8.4802611e-001 5.2995444e-001 -5.0183920e-016
      outer loop
         vertex 1.9977189e+001 2.3780479e+001 8.0000010e+000
         vertex 1.9977189e+001 2.3780479e+001 5.0000010e+000
         vertex 1.8331107e+001 2.6414518e+001 5.0000010e+000
      endloop
   endfacet
   facet normal 8.4802611e-001 5.2995444e-001 -5.0183920e-016
      outer loop
         vertex 1.9977189e+001 2.3780479e+001 8.0000010e+000
         vertex 1.8331107e+001 2.6414518e+001 5.0000010e+000
         vertex 1.8331107e+001 2.6414518e+001 8.0000010e+000
      endloop
   endfacet
   facet normal 9.2387953e-001 3.8268343e-001 3.7543342e-016
      outer loop
         vertex 1.8331107e+001 2.6414518e+001 8.0000010e+000
         vertex 1.8331107e+001 2.6414518e+001 5.0000010e+000
         vertex 1.7142460e+001 2.9284165e+001 5.0000010e+000
      endloop
   endfacet
   facet normal 9.2387953e-001 3.8268343e-001 1.8771671e-016
      outer loop
         vertex 1.8331107e+001 2.6414518e+001 8.0000010e+000
         vertex 1.7142460e+001 2.9284165e+001 5.0000010e+000
         vertex 1.7142460e+001 2.9284165e+001 8.0000010e+000
      endloop
   endfacet
   facet normal 9.7437939e-001 2.2491064e-001 6.2120160e-016
      outer loop
         vertex 1.7142460e+001 2.9284165e+001 8.0000010e+000
         vertex 1.7142460e+001 2.9284165e+001 5.0000010e+000
         vertex 1.6443869e+001 3.2310668e+001 5.0000010e+000
      endloop
   endfacet
   facet normal 9.7437939e-001 2.2491064e-001 8.8506205e-017
      outer loop
         vertex 1.7142460e+001 2.9284165e+001 8.0000010e+000
         vertex 1.6443869e+001 3.2310668e+001 5.0000010e+000
         vertex 1.6443869e+001 3.2310668e+001 8.0000010e+000
      endloop
   endfacet
   facet normal 9.9813986e-001 6.0965734e-002 8.9324332e-016
      outer loop
         vertex 1.6443869e+001 3.2310668e+001 8.0000010e+000
         vertex 1.6443869e+001 3.2310668e+001 5.0000010e+000
         vertex 1.6254505e+001 3.5410973e+001 5.0000010e+000
      endloop
   endfacet
   facet normal 9.9813986e-001 6.0965734e-002 -4.3318759e-016
      outer loop
         vertex 1.6443869e+001 3.2310668e+001 8.0000010e+000
         vertex 1.6254505e+001 3.5410973e+001 5.0000010e+000
         vertex 1.6254505e+001 3.5410973e+001 8.0000010e+000
      endloop
   endfacet
   facet normal 9.9450888e-001 -1.0465222e-001 7.4359876e-016
      outer loop
         vertex 1.6254505e+001 3.5410973e+001 8.0000010e+000
         vertex 1.6254505e+001 3.5410973e+001 5.0000010e+000
         vertex 1.6579563e+001 3.8500000e+001 5.0000010e+000
      endloop
   endfacet
   facet normal 9.9450888e-001 -1.0465222e-001 -4.7109404e-015
      outer loop
         vertex 1.6254505e+001 3.5410973e+001 8.0000010e+000
         vertex 1.6579563e+001 3.8500000e+001 5.0000010e+000
         vertex 1.6579563e+001 3.8500000e+001 8.0000010e+000
      endloop
   endfacet
   facet normal -2.3620597e-016 -4.3915826e-016 -1.0000000e+000
      outer loop
         vertex 3.8500000e+001 2.2646932e+001 5.0000010e+000
         vertex 3.9848338e+001 1.5854345e+001 5.0000010e+000
         vertex 3.8500000e+001 1.6579563e+001 5.0000010e+000
      endloop
   endfacet
   facet normal 0.0000000e+000 -0.0000000e+000 -1.0000000e+000
      outer loop
         vertex 3.8500000e+001 1.6579563e+001 5.0000010e+000
         vertex 3.9848338e+001 1.5854345e+001 5.0000010e+000
         vertex 3.6630942e+001 1.5317456e+001 5.0000010e+000
      endloop
   endfacet
   facet normal -0.0000000e+000 0.0000000e+000 -1.0000000e+000
      outer loop
         vertex 3.8500000e+001 1.6579563e+001 5.0000010e+000
         vertex 3.6630942e+001 1.5317456e+001 5.0000010e+000
         vertex 3.6172784e+001 1.6286714e+001 5.0000010e+000
      endloop
   endfacet
   facet normal -0.0000000e+000 -0.0000000e+000 -1.0000000e+000
      outer loop
         vertex 3.6172784e+001 1.6286714e+001 5.0000010e+000
         vertex 3.6630942e+001 1.5317456e+001 5.0000010e+000
         vertex 3.3369058e+001 1.5317456e+001 5.0000010e+000
      endloop
   endfacet
   facet normal -0.0000000e+000 0.0000000e+000 -1.0000000e+000
      outer loop
         vertex 3.6172784e+001 1.6286714e+001 5.0000010e+000
         vertex 3.3369058e+001 1.5317456e+001 5.0000010e+000
         vertex 3.3827216e+001 1.6286714e+001 5.0000010e+000
      endloop
   endfacet
   facet normal 1.0806658e-015 -5.1081912e-016 -1.0000000e+000
      outer loop
         vertex 3.3827216e+001 1.6286714e+001 5.0000010e+000
         vertex 3.3369058e+001 1.5317456e+001 5.0000010e+000
         vertex 3.1500000e+001 1.6579563e+001 5.0000010e+000
      endloop
   endfacet
   facet normal -4.6792755e-016 -2.8041361e-015 -1.0000000e+000
      outer loop
         vertex 3.1500000e+001 1.6579563e+001 5.0000010e+000
         vertex 3.3369058e+001 1.5317456e+001 5.0000010e+000
         vertex 3.0151662e+001 1.5854345e+001 5.0000010e+000
      endloop
   endfacet
   facet normal -1.9761622e-015 0.0000000e+000 -1.0000000e+000
      outer loop
         vertex 3.1500000e+001 1.6579563e+001 5.0000010e+000
         vertex 3.0151662e+001 1.5854345e+001 5.0000010e+000
         vertex 3.1500000e+001 2.2646932e+001 5.0000010e+000
      endloop
   endfacet
   facet normal -1.5013924e-016 -3.6246818e-016 -1.0000000e+000
      outer loop
         vertex 3.1500000e+001 2.2646932e+001 5.0000010e+000
         vertex 3.0151662e+001 1.5854345e+001 5.0000010e+000
         vertex 2.8739936e+001 2.3790188e+001 5.0000010e+000
      endloop
   endfacet
   facet normal 0.0000000e+000 0.0000000e+000 -1.0000000e+000
      outer loop
         vertex 3.1500000e+001 2.2646932e+001 5.0000010e+000
         vertex 2.8739936e+001 2.3790188e+001 5.0000010e+000
         vertex 2.9074788e+001 2.4047129e+001 5.0000010e+000
      endloop
   endfacet
   facet normal 0.0000000e+000 -0.0000000e+000 -1.0000000e+000
      outer loop
         vertex 3.8555091e+001 2.3065393e+001 5.0000010e+000
         vertex 3.8716611e+001 2.3455336e+001 5.0000010e+000
         vertex 3.8500000e+001 2.2646932e+001 5.0000010e+000
      endloop
   endfacet
   facet normal 0.0000000e+000 0.0000000e+000 -1.0000000e+000
      outer loop
         vertex 3.8500000e+001 2.2646932e+001 5.0000010e+000
         vertex 3.8716611e+001 2.3455336e+001 5.0000010e+000
         vertex 3.8973552e+001 2.3790188e+001 5.0000010e+000
      endloop
   endfacet
   facet normal 0.0000000e+000 0.0000000e+000 -1.0000000e+000
      outer loop
         vertex 3.8500000e+001 2.2646932e+001 5.0000010e+000
         vertex 3.8973552e+001 2.3790188e+001 5.0000010e+000
         vertex 3.9308404e+001 2.4047129e+001 5.0000010e+000
      endloop
   endfacet
   facet normal 0.0000000e+000 -0.0000000e+000 -1.0000000e+000
      outer loop
         vertex 3.9308404e+001 2.4047129e+001 5.0000010e+000
         vertex 3.9698347e+001 2.4208649e+001 5.0000010e+000
         vertex 3.8500000e+001 2.2646932e+001 5.0000010e+000
      endloop
   endfacet
   facet normal 0.0000000e+000 0.0000000e+000 -1.0000000e+000
      outer loop
         vertex 3.8500000e+001 2.2646932e+001 5.0000010e+000
         vertex 3.9698347e+001 2.4208649e+001 5.0000010e+000
         vertex 4.0116808e+001 2.4263740e+001 5.0000010e+000
      endloop
   endfacet
   facet normal 0.0000000e+000 0.0000000e+000 -1.0000000e+000
      outer loop
         vertex 3.8500000e+001 2.2646932e+001 5.0000010e+000
         vertex 4.0116808e+001 2.4263740e+001 5.0000010e+000
         vertex 4.0535269e+001 2.4208649e+001 5.0000010e+000
      endloop
   endfacet
   facet normal 0.0000000e+000 -0.0000000e+000 -1.0000000e+000
      outer loop
         vertex 4.0535269e+001 2.4208649e+001 5.0000010e+000
         vertex 4.0925212e+001 2.4047129e+001 5.0000010e+000
         vertex 3.8500000e+001 2.2646932e+001 5.0000010e+000
      endloop
   endfacet
   facet normal 0.0000000e+000 0.0000000e+000 -1.0000000e+000
      outer loop
         vertex 3.8500000e+001 2.2646932e+001 5.0000010e+000
         vertex 4.0925212e+001 2.4047129e+001 5.0000010e+000
         vertex 4.1260064e+001 2.3790188e+001 5.0000010e+000
      endloop
   endfacet
   facet normal 1.5013924e-016 -3.6246818e-016 -1.0000000e+000
      outer loop
         vertex 3.8500000e+001 2.2646932e+001 5.0000010e+000
         vertex 4.1260064e+001 2.3790188e+001 5.0000010e+000
         vertex 3.9848338e+001 1.5854345e+001 5.0000010e+000
      endloop
   endfacet
   facet normal 1.2276364e-016 -3.5759827e-016 -1.0000000e+000
      outer loop
         vertex 3.9848338e+001 1.5854345e+001 5.0000010e+000
         vertex 4.1260064e+001 2.3790188e+001 5.0000010e+000
         vertex 4.2933485e+001 1.6913477e+001 5.0000010e+000
      endloop
   endfacet
   facet normal -5.1208653e-016 -5.1208653e-016 -1.0000000e+000
      outer loop
         vertex 4.2933485e+001 1.6913477e+001 5.0000010e+000
         vertex 4.1260064e+001 2.3790188e+001 5.0000010e+000
         vertex 4.5550342e+001 1.9499910e+001 5.0000010e+000
      endloop
   endfacet
   facet normal 1.2321818e-015 -2.2768726e-015 -1.0000000e+000
      outer loop
         vertex 4.2933485e+001 1.6913477e+001 5.0000010e+000
         vertex 4.5550342e+001 1.9499910e+001 5.0000010e+000
         vertex 4.5802226e+001 1.8465962e+001 5.0000010e+000
      endloop
   endfacet
   facet normal 1.6860938e-015 -2.1662934e-015 -1.0000000e+000
      outer loop
         vertex 4.5802226e+001 1.8465962e+001 5.0000010e+000
         vertex 4.5550342e+001 1.9499910e+001 5.0000010e+000
         vertex 4.8376311e+001 2.0469453e+001 5.0000010e+000
      endloop
   endfacet
   facet normal 8.2457569e-016 3.4481218e-016 -1.0000000e+000
      outer loop
         vertex 4.8376311e+001 2.0469453e+001 5.0000010e+000
         vertex 4.5550342e+001 1.9499910e+001 5.0000010e+000
         vertex 4.7964465e+001 2.1454331e+001 5.0000010e+000
      endloop
   endfacet
   facet normal 0.0000000e+000 0.0000000e+000 -1.0000000e+000
      outer loop
         vertex 4.8376311e+001 2.0469453e+001 5.0000010e+000
         vertex 4.7964465e+001 2.1454331e+001 5.0000010e+000
         vertex 5.0585525e+001 2.2869299e+001 5.0000010e+000
      endloop
   endfacet
   facet normal -0.0000000e+000 0.0000000e+000 -1.0000000e+000
      outer loop
         vertex 5.0585525e+001 2.2869299e+001 5.0000010e+000
         vertex 4.7964465e+001 2.1454331e+001 5.0000010e+000
         vertex 5.0022811e+001 2.3780479e+001 5.0000010e+000
      endloop
   endfacet
   facet normal 0.0000000e+000 0.0000000e+000 -1.0000000e+000
      outer loop
         vertex 5.0585525e+001 2.2869299e+001 5.0000010e+000
         vertex 5.0022811e+001 2.3780479e+001 5.0000010e+000
         vertex 5.2369607e+001 2.5600039e+001 5.0000010e+000
      endloop
   endfacet
   facet normal -0.0000000e+000 0.0000000e+000 -1.0000000e+000
      outer loop
         vertex 5.2369607e+001 2.5600039e+001 5.0000010e+000
         vertex 5.0022811e+001 2.3780479e+001 5.0000010e+000
         vertex 5.1668893e+001 2.6414518e+001 5.0000010e+000
      endloop
   endfacet
   facet normal 0.0000000e+000 0.0000000e+000 -1.0000000e+000
      outer loop
         vertex 5.2369607e+001 2.5600039e+001 5.0000010e+000
         vertex 5.1668893e+001 2.6414518e+001 5.0000010e+000
         vertex 5.3679891e+001 2.8587185e+001 5.0000010e+000
      endloop
   endfacet
   facet normal -0.0000000e+000 0.0000000e+000 -1.0000000e+000
      outer loop
         vertex 5.3679891e+001 2.8587185e+001 5.0000010e+000
         vertex 5.1668893e+001 2.6414518e+001 5.0000010e+000
         vertex 5.2857540e+001 2.9284165e+001 5.0000010e+000
      endloop
   endfacet
   facet normal 0.0000000e+000 0.0000000e+000 -1.0000000e+000
      outer loop
         vertex 5.3679891e+001 2.8587185e+001 5.0000010e+000
         vertex 5.2857540e+001 2.9284165e+001 5.0000010e+000
         vertex 5.4480636e+001 3.1749257e+001 5.0000010e+000
      endloop
   endfacet
   facet normal -0.0000000e+000 0.0000000e+000 -1.0000000e+000
      outer loop
         vertex 5.4480636e+001 3.1749257e+001 5.0000010e+000
         vertex 5.2857540e+001 2.9284165e+001 5.0000010e+000
         vertex 5.3556131e+001 3.2310668e+001 5.0000010e+000
      endloop
   endfacet
   facet normal 0.0000000e+000 0.0000000e+000 -1.0000000e+000
      outer loop
         vertex 5.4480636e+001 3.1749257e+001 5.0000010e+000
         vertex 5.3556131e+001 3.2310668e+001 5.0000010e+000
         vertex 5.4750000e+001 3.5000000e+001 5.0000010e+000
      endloop
   endfacet
   facet normal -0.0000000e+000 0.0000000e+000 -1.0000000e+000
      outer loop
         vertex 5.4750000e+001 3.5000000e+001 5.0000010e+000
         vertex 5.3556131e+001 3.2310668e+001 5.0000010e+000
         vertex 5.3745495e+001 3.5410973e+001 5.0000010e+000
      endloop
   endfacet
   facet normal 0.0000000e+000 0.0000000e+000 -1.0000000e+000
      outer loop
         vertex 5.4750000e+001 3.5000000e+001 5.0000010e+000
         vertex 5.3745495e+001 3.5410973e+001 5.0000010e+000
         vertex 5.3420437e+001 3.8500000e+001 5.0000010e+000
      endloop
   endfacet
   facet normal 0.0000000e+000 0.0000000e+000 -1.0000000e+000
      outer loop
         vertex 1.6579563e+001 3.8500000e+001 5.0000010e+000
         vertex 4.5000000e+001 4.3500000e+001 5.0000010e+000
         vertex 5.3420437e+001 3.8500000e+001 5.0000010e+000
      endloop
   endfacet
   facet normal 0.0000000e+000 0.0000000e+000 -1.0000000e+000
      outer loop
         vertex 5.3420437e+001 3.8500000e+001 5.0000010e+000
         vertex 4.5000000e+001 4.3500000e+001 5.0000010e+000
         vertex 5.4750000e+001 4.3500000e+001 5.0000010e+000
      endloop
   endfacet
   facet normal 0.0000000e+000 0.0000000e+000 -1.0000000e+000
      outer loop
         vertex 5.3420437e+001 3.8500000e+001 5.0000010e+000
         vertex 5.4750000e+001 4.3500000e+001 5.0000010e+000
         vertex 5.4750000e+001 3.5000000e+001 5.0000010e+000
      endloop
   endfacet
   facet normal -0.0000000e+000 0.0000000e+000 -1.0000000e+000
      outer loop
         vertex 1.6254505e+001 3.5410973e+001 5.0000010e+000
         vertex 1.5250000e+001 3.5000000e+001 5.0000010e+000
         vertex 1.6579563e+001 3.8500000e+001 5.0000010e+000
      endloop
   endfacet
   facet normal -0.0000000e+000 0.0000000e+000 -1.0000000e+000
      outer loop
         vertex 1.6579563e+001 3.8500000e+001 5.0000010e+000
         vertex 1.5250000e+001 3.5000000e+001 5.0000010e+000
         vertex 1.5250000e+001 4.3500000e+001 5.0000010e+000
      endloop
   endfacet
   facet normal 0.0000000e+000 0.0000000e+000 -1.0000000e+000
      outer loop
         vertex 1.6579563e+001 3.8500000e+001 5.0000010e+000
         vertex 1.5250000e+001 4.3500000e+001 5.0000010e+000
         vertex 2.5000000e+001 4.3500000e+001 5.0000010e+000
      endloop
   endfacet
   facet normal -0.0000000e+000 -0.0000000e+000 -1.0000000e+000
      outer loop
         vertex 1.6254505e+001 3.5410973e+001 5.0000010e+000
         vertex 1.6443869e+001 3.2310668e+001 5.0000010e+000
         vertex 1.5250000e+001 3.5000000e+001 5.0000010e+000
      endloop
   endfacet
   facet normal 0.0000000e+000 -0.0000000e+000 -1.0000000e+000
      outer loop
         vertex 1.5250000e+001 3.5000000e+001 5.0000010e+000
         vertex 1.6443869e+001 3.2310668e+001 5.0000010e+000
         vertex 1.5519364e+001 3.1749257e+001 5.0000010e+000
      endloop
   endfacet
   facet normal 0.0000000e+000 0.0000000e+000 -1.0000000e+000
      outer loop
         vertex 1.5519364e+001 3.1749257e+001 5.0000010e+000
         vertex 1.6443869e+001 3.2310668e+001 5.0000010e+000
         vertex 1.7142460e+001 2.9284165e+001 5.0000010e+000
      endloop
   endfacet
   facet normal 0.0000000e+000 -0.0000000e+000 -1.0000000e+000
      outer loop
         vertex 1.5519364e+001 3.1749257e+001 5.0000010e+000
         vertex 1.7142460e+001 2.9284165e+001 5.0000010e+000
         vertex 1.6320109e+001 2.8587185e+001 5.0000010e+000
      endloop
   endfacet
   facet normal 0.0000000e+000 0.0000000e+000 -1.0000000e+000
      outer loop
         vertex 1.6320109e+001 2.8587185e+001 5.0000010e+000
         vertex 1.7142460e+001 2.9284165e+001 5.0000010e+000
         vertex 1.8331107e+001 2.6414518e+001 5.0000010e+000
      endloop
   endfacet
   facet normal 0.0000000e+000 -0.0000000e+000 -1.0000000e+000
      outer loop
         vertex 1.6320109e+001 2.8587185e+001 5.0000010e+000
         vertex 1.8331107e+001 2.6414518e+001 5.0000010e+000
         vertex 1.7630393e+001 2.5600039e+001 5.0000010e+000
      endloop
   endfacet
   facet normal 0.0000000e+000 0.0000000e+000 -1.0000000e+000
      outer loop
         vertex 1.7630393e+001 2.5600039e+001 5.0000010e+000
         vertex 1.8331107e+001 2.6414518e+001 5.0000010e+000
         vertex 1.9977189e+001 2.3780479e+001 5.0000010e+000
      endloop
   endfacet
   facet normal 0.0000000e+000 -0.0000000e+000 -1.0000000e+000
      outer loop
         vertex 1.7630393e+001 2.5600039e+001 5.0000010e+000
         vertex 1.9977189e+001 2.3780479e+001 5.0000010e+000
         vertex 1.9414475e+001 2.2869299e+001 5.0000010e+000
      endloop
   endfacet
   facet normal 0.0000000e+000 0.0000000e+000 -1.0000000e+000
      outer loop
         vertex 1.9414475e+001 2.2869299e+001 5.0000010e+000
         vertex 1.9977189e+001 2.3780479e+001 5.0000010e+000
         vertex 2.2035535e+001 2.1454331e+001 5.0000010e+000
      endloop
   endfacet
   facet normal 0.0000000e+000 -0.0000000e+000 -1.0000000e+000
      outer loop
         vertex 1.9414475e+001 2.2869299e+001 5.0000010e+000
         vertex 2.2035535e+001 2.1454331e+001 5.0000010e+000
         vertex 2.1623689e+001 2.0469453e+001 5.0000010e+000
      endloop
   endfacet
   facet normal -8.2457569e-016 3.4481218e-016 -1.0000000e+000
      outer loop
         vertex 2.1623689e+001 2.0469453e+001 5.0000010e+000
         vertex 2.2035535e+001 2.1454331e+001 5.0000010e+000
         vertex 2.4449658e+001 1.9499910e+001 5.0000010e+000
      endloop
   endfacet
   facet normal -1.6860938e-015 -2.1662934e-015 -1.0000000e+000
      outer loop
         vertex 2.1623689e+001 2.0469453e+001 5.0000010e+000
         vertex 2.4449658e+001 1.9499910e+001 5.0000010e+000
         vertex 2.4197774e+001 1.8465962e+001 5.0000010e+000
      endloop
   endfacet
   facet normal -1.2321818e-015 -2.2768726e-015 -1.0000000e+000
      outer loop
         vertex 2.4197774e+001 1.8465962e+001 5.0000010e+000
         vertex 2.4449658e+001 1.9499910e+001 5.0000010e+000
         vertex 2.7066515e+001 1.6913477e+001 5.0000010e+000
      endloop
   endfacet
   facet normal 5.1208653e-016 -5.1208653e-016 -1.0000000e+000
      outer loop
         vertex 2.7066515e+001 1.6913477e+001 5.0000010e+000
         vertex 2.4449658e+001 1.9499910e+001 5.0000010e+000
         vertex 2.8739936e+001 2.3790188e+001 5.0000010e+000
      endloop
   endfacet
   facet normal -1.2276364e-016 -3.5759827e-016 -1.0000000e+000
      outer loop
         vertex 2.7066515e+001 1.6913477e+001 5.0000010e+000
         vertex 2.8739936e+001 2.3790188e+001 5.0000010e+000
         vertex 3.0151662e+001 1.5854345e+001 5.0000010e+000
      endloop
   endfacet
   facet normal 0.0000000e+000 0.0000000e+000 -1.0000000e+000
      outer loop
         vertex 2.9074788e+001 2.4047129e+001 5.0000010e+000
         vertex 2.9464731e+001 2.4208649e+001 5.0000010e+000
         vertex 3.1500000e+001 2.2646932e+001 5.0000010e+000
      endloop
   endfacet
   facet normal 0.0000000e+000 0.0000000e+000 -1.0000000e+000
      outer loop
         vertex 3.1500000e+001 2.2646932e+001 5.0000010e+000
         vertex 2.9464731e+001 2.4208649e+001 5.0000010e+000
         vertex 2.9883192e+001 2.4263740e+001 5.0000010e+000
      endloop
   endfacet
   facet normal 0.0000000e+000 0.0000000e+000 -1.0000000e+000
      outer loop
         vertex 3.1500000e+001 2.2646932e+001 5.0000010e+000
         vertex 2.9883192e+001 2.4263740e+001 5.0000010e+000
         vertex 3.0301653e+001 2.4208649e+001 5.0000010e+000
      endloop
   endfacet
   facet normal 0.0000000e+000 0.0000000e+000 -1.0000000e+000
      outer loop
         vertex 3.0301653e+001 2.4208649e+001 5.0000010e+000
         vertex 3.0691596e+001 2.4047129e+001 5.0000010e+000
         vertex 3.1500000e+001 2.2646932e+001 5.0000010e+000
      endloop
   endfacet
   facet normal 0.0000000e+000 0.0000000e+000 -1.0000000e+000
      outer loop
         vertex 3.1500000e+001 2.2646932e+001 5.0000010e+000
         vertex 3.0691596e+001 2.4047129e+001 5.0000010e+000
         vertex 3.1026448e+001 2.3790188e+001 5.0000010e+000
      endloop
   endfacet
   facet normal 0.0000000e+000 0.0000000e+000 -1.0000000e+000
      outer loop
         vertex 3.1500000e+001 2.2646932e+001 5.0000010e+000
         vertex 3.1026448e+001 2.3790188e+001 5.0000010e+000
         vertex 3.1283389e+001 2.3455336e+001 5.0000010e+000
      endloop
   endfacet
   facet normal 0.0000000e+000 0.0000000e+000 -1.0000000e+000
      outer loop
         vertex 3.1283389e+001 2.3455336e+001 5.0000010e+000
         vertex 3.1444909e+001 2.3065393e+001 5.0000010e+000
         vertex 3.1500000e+001 2.2646932e+001 5.0000010e+000
      endloop
   endfacet
   facet normal -0.0000000e+000 -0.0000000e+000 -1.0000000e+000
      outer loop
         vertex 4.5000000e+001 6.5000000e+001 5.0000010e+000
         vertex 4.5000000e+001 4.3500000e+001 5.0000010e+000
         vertex 2.5000000e+001 6.5000000e+001 5.0000010e+000
      endloop
   endfacet
   facet normal -0.0000000e+000 -0.0000000e+000 -1.0000000e+000
      outer loop
         vertex 2.5000000e+001 6.5000000e+001 5.0000010e+000
         vertex 4.5000000e+001 4.3500000e+001 5.0000010e+000
         vertex 2.5000000e+001 4.3500000e+001 5.0000010e+000
      endloop
   endfacet
   facet normal 0.0000000e+000 -0.0000000e+000 -1.0000000e+000
      outer loop
         vertex 2.5000000e+001 4.3500000e+001 5.0000010e+000
         vertex 4.5000000e+001 4.3500000e+001 5.0000010e+000
         vertex 1.6579563e+001 3.8500000e+001 5.0000010e+000
      endloop
   endfacet
   facet normal -0.0000000e+000 1.0000000e+000 0.0000000e+000
      outer loop
         vertex 4.5000000e+001 4.3500000e+001 5.0000010e+000
         vertex 4.5000000e+001 4.3500000e+001 8.0000010e+000
         vertex 5.4750000e+001 4.3500000e+001 5.0000010e+000
      endloop
   endfacet
   facet normal 0.0000000e+000 1.0000000e+000 -0.0000000e+000
      outer loop
         vertex 5.4750000e+001 4.3500000e+001 5.0000010e+000
         vertex 4.5000000e+001 4.3500000e+001 8.0000010e+000
         vertex 5.4750000e+001 4.3500000e+001 8.0000010e+000
      endloop
   endfacet
   facet normal 0.0000000e+000 1.0000000e+000 0.0000000e+000
      outer loop
         vertex 2.5000000e+001 4.3500000e+001 8.0000010e+000
         vertex 2.5000000e+001 4.3500000e+001 5.0000010e+000
         vertex 1.5250000e+001 4.3500000e+001 8.0000010e+000
      endloop
   endfacet
   facet normal 0.0000000e+000 1.0000000e+000 0.0000000e+000
      outer loop
         vertex 1.5250000e+001 4.3500000e+001 8.0000010e+000
         vertex 2.5000000e+001 4.3500000e+001 5.0000010e+000
         vertex 1.5250000e+001 4.3500000e+001 5.0000010e+000
      endloop
   endfacet
   facet normal 1.0000000e+000 -0.0000000e+000 0.0000000e+000
      outer loop
         vertex 5.4750000e+001 3.5000000e+001 8.0000010e+000
         vertex 5.4750000e+001 3.5000000e+001 5.0000010e+000
         vertex 5.4750000e+001 4.3500000e+001 8.0000010e+000
      endloop
   endfacet
   facet normal 1.0000000e+000 -0.0000000e+000 0.0000000e+000
      outer loop
         vertex 5.4750000e+001 4.3500000e+001 8.0000010e+000
         vertex 5.4750000e+001 3.5000000e+001 5.0000010e+000
         vertex 5.4750000e+001 4.3500000e+001 5.0000010e+000
      endloop
   endfacet
   facet normal -1.0000000e+000 -0.0000000e+000 -0.0000000e+000
      outer loop
         vertex 1.5250000e+001 4.3500000e+001 8.0000010e+000
         vertex 1.5250000e+001 4.3500000e+001 5.0000010e+000
         vertex 1.5250000e+001 3.5000000e+001 8.0000010e+000
      endloop
   endfacet
   facet normal -1.0000000e+000 -0.0000000e+000 -0.0000000e+000
      outer loop
         vertex 1.5250000e+001 3.5000000e+001 8.0000010e+000
         vertex 1.5250000e+001 4.3500000e+001 5.0000010e+000
         vertex 1.5250000e+001 3.5000000e+001 5.0000010e+000
      endloop
   endfacet
   facet normal 9.9658449e-001 -8.2579345e-002 0.0000000e+000
      outer loop
         vertex 5.4750000e+001 3.5000000e+001 8.0000010e+000
         vertex 5.4480636e+001 3.1749257e+001 8.0000010e+000
         vertex 5.4750000e+001 3.5000000e+001 5.0000010e+000
      endloop
   endfacet
   facet normal 9.9658449e-001 -8.2579345e-002 3.9117436e-016
      outer loop
         vertex 5.4750000e+001 3.5000000e+001 5.0000010e+000
         vertex 5.4480636e+001 3.1749257e+001 8.0000010e+000
         vertex 5.4480636e+001 3.1749257e+001 5.0000010e+000
      endloop
   endfacet
   facet normal 9.6940027e-001 -2.4548549e-001 1.1628529e-015
      outer loop
         vertex 5.4480636e+001 3.1749257e+001 5.0000010e+000
         vertex 5.4480636e+001 3.1749257e+001 8.0000010e+000
         vertex 5.3679891e+001 2.8587185e+001 8.0000010e+000
      endloop
   endfacet
   facet normal 9.6940027e-001 -2.4548549e-001 0.0000000e+000
      outer loop
         vertex 5.4480636e+001 3.1749257e+001 5.0000010e+000
         vertex 5.3679891e+001 2.8587185e+001 8.0000010e+000
         vertex 5.3679891e+001 2.8587185e+001 5.0000010e+000
      endloop
   endfacet
   facet normal 9.1577333e-001 -4.0169542e-001 0.0000000e+000
      outer loop
         vertex 5.3679891e+001 2.8587185e+001 5.0000010e+000
         vertex 5.3679891e+001 2.8587185e+001 8.0000010e+000
         vertex 5.2369607e+001 2.5600039e+001 8.0000010e+000
      endloop
   endfacet
   facet normal 9.1577333e-001 -4.0169542e-001 -9.5140589e-016
      outer loop
         vertex 5.3679891e+001 2.8587185e+001 5.0000010e+000
         vertex 5.2369607e+001 2.5600039e+001 8.0000010e+000
         vertex 5.2369607e+001 2.5600039e+001 5.0000010e+000
      endloop
   endfacet
   facet normal 8.3716648e-001 -5.4694816e-001 -1.2954335e-015
      outer loop
         vertex 5.2369607e+001 2.5600039e+001 5.0000010e+000
         vertex 5.2369607e+001 2.5600039e+001 8.0000010e+000
         vertex 5.0585525e+001 2.2869299e+001 8.0000010e+000
      endloop
   endfacet
   facet normal 8.3716648e-001 -5.4694816e-001 1.2954335e-015
      outer loop
         vertex 5.2369607e+001 2.5600039e+001 5.0000010e+000
         vertex 5.0585525e+001 2.2869299e+001 8.0000010e+000
         vertex 5.0585525e+001 2.2869299e+001 5.0000010e+000
      endloop
   endfacet
   facet normal 7.3572391e-001 -6.7728157e-001 1.6041250e-015
      outer loop
         vertex 5.0585525e+001 2.2869299e+001 5.0000010e+000
         vertex 5.0585525e+001 2.2869299e+001 8.0000010e+000
         vertex 4.8376311e+001 2.0469453e+001 8.0000010e+000
      endloop
   endfacet
   facet normal 7.3572391e-001 -6.7728157e-001 0.0000000e+000
      outer loop
         vertex 5.0585525e+001 2.2869299e+001 5.0000010e+000
         vertex 4.8376311e+001 2.0469453e+001 8.0000010e+000
         vertex 4.8376311e+001 2.0469453e+001 5.0000010e+000
      endloop
   endfacet
   facet normal 6.1421271e-001 -7.8914051e-001 0.0000000e+000
      outer loop
         vertex 4.8376311e+001 2.0469453e+001 5.0000010e+000
         vertex 4.8376311e+001 2.0469453e+001 8.0000010e+000
         vertex 4.5802226e+001 1.8465962e+001 8.0000010e+000
      endloop
   endfacet
   facet normal 6.1421271e-001 -7.8914051e-001 0.0000000e+000
      outer loop
         vertex 4.8376311e+001 2.0469453e+001 5.0000010e+000
         vertex 4.5802226e+001 1.8465962e+001 8.0000010e+000
         vertex 4.5802226e+001 1.8465962e+001 5.0000010e+000
      endloop
   endfacet
   facet normal 4.7594739e-001 -8.7947375e-001 0.0000000e+000
      outer loop
         vertex 4.5802226e+001 1.8465962e+001 5.0000010e+000
         vertex 4.5802226e+001 1.8465962e+001 8.0000010e+000
         vertex 4.2933485e+001 1.6913477e+001 8.0000010e+000
      endloop
   endfacet
   facet normal 4.7594739e-001 -8.7947375e-001 -1.7152747e-016
      outer loop
         vertex 4.5802226e+001 1.8465962e+001 5.0000010e+000
         vertex 4.2933485e+001 1.6913477e+001 8.0000010e+000
         vertex 4.2933485e+001 1.6913477e+001 5.0000010e+000
      endloop
   endfacet
   facet normal 3.2469947e-001 -9.4581724e-001 7.0205957e-016
      outer loop
         vertex 4.2933485e+001 1.6913477e+001 5.0000010e+000
         vertex 4.2933485e+001 1.6913477e+001 8.0000010e+000
         vertex 3.9848338e+001 1.5854345e+001 8.0000010e+000
      endloop
   endfacet
   facet normal 3.2469947e-001 -9.4581724e-001 0.0000000e+000
      outer loop
         vertex 4.2933485e+001 1.6913477e+001 5.0000010e+000
         vertex 3.9848338e+001 1.5854345e+001 8.0000010e+000
         vertex 3.9848338e+001 1.5854345e+001 5.0000010e+000
      endloop
   endfacet
   facet normal 1.6459459e-001 -9.8636130e-001 0.0000000e+000
      outer loop
         vertex 3.9848338e+001 1.5854345e+001 5.0000010e+000
         vertex 3.9848338e+001 1.5854345e+001 8.0000010e+000
         vertex 3.6630942e+001 1.5317456e+001 8.0000010e+000
      endloop
   endfacet
   facet normal 1.6459459e-001 -9.8636130e-001 -3.8983830e-016
      outer loop
         vertex 3.9848338e+001 1.5854345e+001 5.0000010e+000
         vertex 3.6630942e+001 1.5317456e+001 8.0000010e+000
         vertex 3.6630942e+001 1.5317456e+001 5.0000010e+000
      endloop
   endfacet
   facet normal -0.0000000e+000 -1.0000000e+000 0.0000000e+000
      outer loop
         vertex 3.6630942e+001 1.5317456e+001 5.0000010e+000
         vertex 3.6630942e+001 1.5317456e+001 8.0000010e+000
         vertex 3.3369058e+001 1.5317456e+001 8.0000010e+000
      endloop
   endfacet
   facet normal -0.0000000e+000 -1.0000000e+000 0.0000000e+000
      outer loop
         vertex 3.6630942e+001 1.5317456e+001 5.0000010e+000
         vertex 3.3369058e+001 1.5317456e+001 8.0000010e+000
         vertex 3.3369058e+001 1.5317456e+001 5.0000010e+000
      endloop
   endfacet
   facet normal -1.6459459e-001 -9.8636130e-001 3.8983830e-016
      outer loop
         vertex 3.3369058e+001 1.5317456e+001 5.0000010e+000
         vertex 3.3369058e+001 1.5317456e+001 8.0000010e+000
         vertex 3.0151662e+001 1.5854345e+001 8.0000010e+000
      endloop
   endfacet
   facet normal -1.6459459e-001 -9.8636130e-001 1.9491915e-016
      outer loop
         vertex 3.3369058e+001 1.5317456e+001 5.0000010e+000
         vertex 3.0151662e+001 1.5854345e+001 8.0000010e+000
         vertex 3.0151662e+001 1.5854345e+001 5.0000010e+000
      endloop
   endfacet
   facet normal -3.2469947e-001 -9.4581724e-001 3.8452142e-016
      outer loop
         vertex 3.0151662e+001 1.5854345e+001 5.0000010e+000
         vertex 3.0151662e+001 1.5854345e+001 8.0000010e+000
         vertex 2.7066515e+001 1.6913477e+001 8.0000010e+000
      endloop
   endfacet
   facet normal -3.2469947e-001 -9.4581724e-001 -1.0865810e-015
      outer loop
         vertex 3.0151662e+001 1.5854345e+001 5.0000010e+000
         vertex 2.7066515e+001 1.6913477e+001 8.0000010e+000
         vertex 2.7066515e+001 1.6913477e+001 5.0000010e+000
      endloop
   endfacet
   facet normal -4.7594739e-001 -8.7947375e-001 -3.9210747e-016
      outer loop
         vertex 2.7066515e+001 1.6913477e+001 5.0000010e+000
         vertex 2.7066515e+001 1.6913477e+001 8.0000010e+000
         vertex 2.4197774e+001 1.8465962e+001 8.0000010e+000
      endloop
   endfacet
   facet normal -4.7594739e-001 -8.7947375e-001 5.6363494e-016
      outer loop
         vertex 2.7066515e+001 1.6913477e+001 5.0000010e+000
         vertex 2.4197774e+001 1.8465962e+001 8.0000010e+000
         vertex 2.4197774e+001 1.8465962e+001 5.0000010e+000
      endloop
   endfacet
   facet normal -6.1421271e-001 -7.8914051e-001 7.2737397e-016
      outer loop
         vertex 2.4197774e+001 1.8465962e+001 5.0000010e+000
         vertex 2.4197774e+001 1.8465962e+001 8.0000010e+000
         vertex 2.1623689e+001 2.0469453e+001 8.0000010e+000
      endloop
   endfacet
   facet normal -6.1421271e-001 -7.8914051e-001 7.2737397e-016
      outer loop
         vertex 2.4197774e+001 1.8465962e+001 5.0000010e+000
         vertex 2.1623689e+001 2.0469453e+001 8.0000010e+000
         vertex 2.1623689e+001 2.0469453e+001 5.0000010e+000
      endloop
   endfacet
   facet normal -7.3572391e-001 -6.7728157e-001 8.7127213e-016
      outer loop
         vertex 2.1623689e+001 2.0469453e+001 5.0000010e+000
         vertex 2.1623689e+001 2.0469453e+001 8.0000010e+000
         vertex 1.9414475e+001 2.2869299e+001 8.0000010e+000
      endloop
   endfacet
   facet normal -7.3572391e-001 -6.7728157e-001 -7.3285287e-016
      outer loop
         vertex 2.1623689e+001 2.0469453e+001 5.0000010e+000
         vertex 1.9414475e+001 2.2869299e+001 8.0000010e+000
         vertex 1.9414475e+001 2.2869299e+001 5.0000010e+000
      endloop
   endfacet
   facet normal -8.3716648e-001 -5.4694816e-001 -3.0402920e-016
      outer loop
         vertex 1.9414475e+001 2.2869299e+001 5.0000010e+000
         vertex 1.9414475e+001 2.2869299e+001 8.0000010e+000
         vertex 1.7630393e+001 2.5600039e+001 8.0000010e+000
      endloop
   endfacet
   facet normal -8.3716648e-001 -5.4694816e-001 1.2954335e-015
      outer loop
         vertex 1.9414475e+001 2.2869299e+001 5.0000010e+000
         vertex 1.7630393e+001 2.5600039e+001 8.0000010e+000
         vertex 1.7630393e+001 2.5600039e+001 5.0000010e+000
      endloop
   endfacet
   facet normal -9.1577333e-001 -4.0169542e-001 9.5140589e-016
      outer loop
         vertex 1.7630393e+001 2.5600039e+001 5.0000010e+000
         vertex 1.7630393e+001 2.5600039e+001 8.0000010e+000
         vertex 1.6320109e+001 2.8587185e+001 8.0000010e+000
      endloop
   endfacet
   facet normal -9.1577333e-001 -4.0169542e-001 -0.0000000e+000
      outer loop
         vertex 1.7630393e+001 2.5600039e+001 5.0000010e+000
         vertex 1.6320109e+001 2.8587185e+001 8.0000010e+000
         vertex 1.6320109e+001 2.8587185e+001 5.0000010e+000
      endloop
   endfacet
   facet normal -9.6940027e-001 -2.4548549e-001 0.0000000e+000
      outer loop
         vertex 1.6320109e+001 2.8587185e+001 5.0000010e+000
         vertex 1.6320109e+001 2.8587185e+001 8.0000010e+000
         vertex 1.5519364e+001 3.1749257e+001 8.0000010e+000
      endloop
   endfacet
   facet normal -9.6940027e-001 -2.4548549e-001 -1.1628529e-015
      outer loop
         vertex 1.6320109e+001 2.8587185e+001 5.0000010e+000
         vertex 1.5519364e+001 3.1749257e+001 8.0000010e+000
         vertex 1.5519364e+001 3.1749257e+001 5.0000010e+000
      endloop
   endfacet
   facet normal -9.9658449e-001 -8.2579345e-002 -3.9117436e-016
      outer loop
         vertex 1.5519364e+001 3.1749257e+001 5.0000010e+000
         vertex 1.5519364e+001 3.1749257e+001 8.0000010e+000
         vertex 1.5250000e+001 3.5000000e+001 8.0000010e+000
      endloop
   endfacet
   facet normal -9.9658449e-001 -8.2579345e-002 -0.0000000e+000
      outer loop
         vertex 1.5519364e+001 3.1749257e+001 5.0000010e+000
         vertex 1.5250000e+001 3.5000000e+001 8.0000010e+000
         vertex 1.5250000e+001 3.5000000e+001 5.0000010e+000
      endloop
   endfacet
   facet normal -0.0000000e+000 -1.0000000e+000 0.0000000e+000
      outer loop
         vertex 5.3420437e+001 3.8500000e+001 5.0000010e+000
         vertex 5.3420437e+001 3.8500000e+001 8.0000010e+000
         vertex 1.6579563e+001 3.8500000e+001 5.0000010e+000
      endloop
   endfacet
   facet normal -0.0000000e+000 -1.0000000e+000 0.0000000e+000
      outer loop
         vertex 1.6579563e+001 3.8500000e+001 5.0000010e+000
         vertex 5.3420437e+001 3.8500000e+001 8.0000010e+000
         vertex 1.6579563e+001 3.8500000e+001 8.0000010e+000
      endloop
   endfacet
   facet normal -1.0000000e+000 0.0000000e+000 0.0000000e+000
      outer loop
         vertex 2.5000000e+001 4.3500000e+001 5.0000010e+000
         vertex 2.5000000e+001 4.3500000e+001 8.0000010e+000
         vertex 2.5000000e+001 6.5000000e+001 5.0000010e+000
      endloop
   endfacet
   facet normal -1.0000000e+000 0.0000000e+000 0.0000000e+000
      outer loop
         vertex 2.5000000e+001 6.5000000e+001 5.0000010e+000
         vertex 2.5000000e+001 4.3500000e+001 8.0000010e+000
         vertex 2.5000000e+001 7.0000000e+001 8.0000010e+000
      endloop
   endfacet
   facet normal -1.0000000e+000 0.0000000e+000 0.0000000e+000
      outer loop
         vertex 2.5000000e+001 6.5000000e+001 5.0000010e+000
         vertex 2.5000000e+001 7.0000000e+001 8.0000010e+000
         vertex 2.5000000e+001 7.0000000e+001 1.0000000e-006
      endloop
   endfacet
   facet normal -1.0000000e+000 0.0000000e+000 0.0000000e+000
      outer loop
         vertex 2.5000000e+001 7.0000000e+001 1.0000000e-006
         vertex 2.5000000e+001 6.5000000e+001 1.0000000e-006
         vertex 2.5000000e+001 6.5000000e+001 5.0000010e+000
      endloop
   endfacet
   facet normal 0.0000000e+000 -1.0000000e+000 0.0000000e+000
      outer loop
         vertex 2.5000000e+001 6.5000000e+001 5.0000010e+000
         vertex 2.5000000e+001 6.5000000e+001 1.0000000e-006
         vertex 4.5000000e+001 6.5000000e+001 5.0000010e+000
      endloop
   endfacet
   facet normal 0.0000000e+000 -1.0000000e+000 -0.0000000e+000
      outer loop
         vertex 4.5000000e+001 6.5000000e+001 5.0000010e+000
         vertex 2.5000000e+001 6.5000000e+001 1.0000000e-006
         vertex 4.5000000e+001 6.5000000e+001 1.0000000e-006
      endloop
   endfacet
   facet normal 4.4408921e-017 0.0000000e+000 -1.0000000e+000
      outer loop
         vertex 4.5000000e+001 7.0000000e+001 1.0000000e-006
         vertex 4.5000000e+001 6.5000000e+001 1.0000000e-006
         vertex 2.5000000e+001 7.0000000e+001 1.0000000e-006
      endloop
   endfacet
   facet normal 4.4408921e-017 0.0000000e+000 -1.0000000e+000
      outer loop
         vertex 2.5000000e+001 7.0000000e+001 1.0000000e-006
         vertex 4.5000000e+001 6.5000000e+001 1.0000000e-006
         vertex 2.5000000e+001 6.5000000e+001 1.0000000e-006
      endloop
   endfacet
   facet normal 1.0000000e+000 0.0000000e+000 -0.0000000e+000
      outer loop
         vertex 4.5000000e+001 6.5000000e+001 1.0000000e-006
         vertex 4.5000000e+001 7.0000000e+001 1.0000000e-006
         vertex 4.5000000e+001 6.5000000e+001 5.0000010e+000
      endloop
   endfacet
   facet normal 1.0000000e+000 -0.0000000e+000 0.0000000e+000
      outer loop
         vertex 4.5000000e+001 6.5000000e+001 5.0000010e+000
         vertex 4.5000000e+001 7.0000000e+001 1.0000000e-006
         vertex 4.5000000e+001 7.0000000e+001 8.0000010e+000
      endloop
   endfacet
   facet normal 1.0000000e+000 0.0000000e+000 -0.0000000e+000
      outer loop
         vertex 4.5000000e+001 6.5000000e+001 5.0000010e+000
         vertex 4.5000000e+001 7.0000000e+001 8.0000010e+000
         vertex 4.5000000e+001 4.3500000e+001 8.0000010e+000
      endloop
   endfacet
   facet normal 1.0000000e+000 -0.0000000e+000 0.0000000e+000
      outer loop
         vertex 4.5000000e+001 4.3500000e+001 8.0000010e+000
         vertex 4.5000000e+001 4.3500000e+001 5.0000010e+000
         vertex 4.5000000e+001 6.5000000e+001 5.0000010e+000
      endloop
   endfacet
   facet normal 0.0000000e+000 1.0000000e+000 0.0000000e+000
      outer loop
         vertex 4.5000000e+001 7.0000000e+001 8.0000010e+000
         vertex 4.5000000e+001 7.0000000e+001 1.0000000e-006
         vertex 2.5000000e+001 7.0000000e+001 8.0000010e+000
      endloop
   endfacet
   facet normal 0.0000000e+000 1.0000000e+000 0.0000000e+000
      outer loop
         vertex 2.5000000e+001 7.0000000e+001 8.0000010e+000
         vertex 4.5000000e+001 7.0000000e+001 1.0000000e-006
         vertex 2.5000000e+001 7.0000000e+001 1.0000000e-006
      endloop
   endfacet
endsolid AutoCAD
