solid AutoCAD
   facet normal -1.0197071e-001 9.9478740e-001 2.1193371e-015
      outer loop
         vertex 3.3495737e+001 2.7131776e+001 8.0000010e+000
         vertex 3.5163332e+001 2.7302713e+001 8.0000010e+000
         vertex 3.3495737e+001 2.7131776e+001 5.0000010e+000
      endloop
   endfacet
   facet normal -1.0197071e-001 9.9478740e-001 0.0000000e+000
      outer loop
         vertex 3.3495737e+001 2.7131776e+001 5.0000010e+000
         vertex 3.5163332e+001 2.7302713e+001 8.0000010e+000
         vertex 3.5163332e+001 2.7302713e+001 5.0000010e+000
      endloop
   endfacet
   facet normal 1.5085828e-001 9.8855540e-001 -0.0000000e+000
      outer loop
         vertex 3.5163332e+001 2.7302713e+001 5.0000010e+000
         vertex 3.5163332e+001 2.7302713e+001 8.0000010e+000
         vertex 3.6820479e+001 2.7049824e+001 8.0000010e+000
      endloop
   endfacet
   facet normal 1.5085828e-001 9.8855540e-001 -2.3413695e-015
      outer loop
         vertex 3.5163332e+001 2.7302713e+001 5.0000010e+000
         vertex 3.6820479e+001 2.7049824e+001 8.0000010e+000
         vertex 3.6820479e+001 2.7049824e+001 5.0000010e+000
      endloop
   endfacet
   facet normal 3.9403818e-001 9.1909407e-001 -2.1768521e-015
      outer loop
         vertex 3.6820479e+001 2.7049824e+001 5.0000010e+000
         vertex 3.6820479e+001 2.7049824e+001 8.0000010e+000
         vertex 3.8361186e+001 2.6389285e+001 8.0000010e+000
      endloop
   endfacet
   facet normal 3.9403818e-001 9.1909407e-001 -1.2435822e-015
      outer loop
         vertex 3.6820479e+001 2.7049824e+001 5.0000010e+000
         vertex 3.8361186e+001 2.6389285e+001 8.0000010e+000
         vertex 3.8361186e+001 2.6389285e+001 5.0000010e+000
      endloop
   endfacet
   facet normal 6.1201486e-001 7.9084626e-001 -4.2355783e-016
      outer loop
         vertex 3.8361186e+001 2.6389285e+001 5.0000010e+000
         vertex 3.8361186e+001 2.6389285e+001 8.0000010e+000
         vertex 3.9686908e+001 2.5363345e+001 5.0000010e+000
      endloop
   endfacet
   facet normal 6.1201486e-001 7.9084626e-001 0.0000000e+000
      outer loop
         vertex 3.9686908e+001 2.5363345e+001 5.0000010e+000
         vertex 3.8361186e+001 2.6389285e+001 8.0000010e+000
         vertex 3.9686908e+001 2.5363345e+001 8.0000010e+000
      endloop
   endfacet
   facet normal 7.0710678e-001 -7.0710678e-001 1.6747653e-015
      outer loop
         vertex 2.5311229e+001 1.8947268e+001 8.0000010e+000
         vertex 2.5311229e+001 1.8947268e+001 5.0000010e+000
         vertex 3.1125000e+001 2.4761039e+001 8.0000010e+000
      endloop
   endfacet
   facet normal 7.0710678e-001 -7.0710678e-001 0.0000000e+000
      outer loop
         vertex 3.1125000e+001 2.4761039e+001 8.0000010e+000
         vertex 2.5311229e+001 1.8947268e+001 5.0000010e+000
         vertex 3.1125000e+001 2.4761039e+001 5.0000010e+000
      endloop
   endfacet
   facet normal 7.0710678e-001 7.0710678e-001 -3.3495306e-015
      outer loop
         vertex 4.5550342e+001 1.9499910e+001 8.0000010e+000
         vertex 4.5550342e+001 1.9499910e+001 5.0000010e+000
         vertex 3.9686908e+001 2.5363345e+001 8.0000010e+000
      endloop
   endfacet
   facet normal 7.0710678e-001 7.0710678e-001 0.0000000e+000
      outer loop
         vertex 3.9686908e+001 2.5363345e+001 8.0000010e+000
         vertex 4.5550342e+001 1.9499910e+001 5.0000010e+000
         vertex 3.9686908e+001 2.5363345e+001 5.0000010e+000
      endloop
   endfacet
   facet normal -7.0710678e-001 7.0710678e-001 1.6747653e-015
      outer loop
         vertex 2.4449658e+001 1.9499910e+001 5.0000010e+000
         vertex 2.4449658e+001 1.9499910e+001 8.0000010e+000
         vertex 3.0313092e+001 2.5363345e+001 5.0000010e+000
      endloop
   endfacet
   facet normal -7.0710678e-001 7.0710678e-001 0.0000000e+000
      outer loop
         vertex 3.0313092e+001 2.5363345e+001 5.0000010e+000
         vertex 2.4449658e+001 1.9499910e+001 8.0000010e+000
         vertex 3.0313092e+001 2.5363345e+001 8.0000010e+000
      endloop
   endfacet
   facet normal -6.9380772e-001 7.2016030e-001 3.3489490e-015
      outer loop
         vertex 3.0419065e+001 2.5466974e+001 8.0000010e+000
         vertex 3.0419065e+001 2.5466974e+001 5.0000010e+000
         vertex 3.0383484e+001 2.5432695e+001 8.0000010e+000
      endloop
   endfacet
   facet normal -6.9380772e-001 7.2016030e-001 1.6428774e-015
      outer loop
         vertex 3.0383484e+001 2.5432695e+001 8.0000010e+000
         vertex 3.0419065e+001 2.5466974e+001 5.0000010e+000
         vertex 3.0383484e+001 2.5432695e+001 5.0000010e+000
      endloop
   endfacet
   facet normal -6.9915652e-001 7.1496865e-001 1.6559353e-015
      outer loop
         vertex 3.0383484e+001 2.5432695e+001 8.0000010e+000
         vertex 3.0383484e+001 2.5432695e+001 5.0000010e+000
         vertex 3.0348159e+001 2.5398151e+001 8.0000010e+000
      endloop
   endfacet
   facet normal -6.9915652e-001 7.1496865e-001 7.9144850e-016
      outer loop
         vertex 3.0348159e+001 2.5398151e+001 8.0000010e+000
         vertex 3.0383484e+001 2.5432695e+001 5.0000010e+000
         vertex 3.0348159e+001 2.5398151e+001 5.0000010e+000
      endloop
   endfacet
   facet normal -7.0446647e-001 7.0973727e-001 8.2177210e-016
      outer loop
         vertex 3.0348159e+001 2.5398151e+001 8.0000010e+000
         vertex 3.0348159e+001 2.5398151e+001 5.0000010e+000
         vertex 3.0313092e+001 2.5363345e+001 8.0000010e+000
      endloop
   endfacet
   facet normal -7.0446647e-001 7.0973727e-001 -1.1703490e-017
      outer loop
         vertex 3.0313092e+001 2.5363345e+001 8.0000010e+000
         vertex 3.0348159e+001 2.5398151e+001 5.0000010e+000
         vertex 3.0313092e+001 2.5363345e+001 5.0000010e+000
      endloop
   endfacet
   facet normal 7.0710678e-001 -7.0710678e-001 -1.6747653e-015
      outer loop
         vertex 3.5000000e+001 2.0886039e+001 8.0000010e+000
         vertex 3.5000000e+001 2.0886039e+001 5.0000010e+000
         vertex 3.8875000e+001 2.4761039e+001 8.0000010e+000
      endloop
   endfacet
   facet normal 7.0710678e-001 -7.0710678e-001 -1.7287900e-015
      outer loop
         vertex 3.8875000e+001 2.4761039e+001 8.0000010e+000
         vertex 3.5000000e+001 2.0886039e+001 5.0000010e+000
         vertex 3.8875000e+001 2.4761039e+001 5.0000010e+000
      endloop
   endfacet
   facet normal -7.0710678e-001 -7.0710678e-001 -0.0000000e+000
      outer loop
         vertex 3.1125000e+001 2.4761039e+001 8.0000010e+000
         vertex 3.1125000e+001 2.4761039e+001 5.0000010e+000
         vertex 3.5000000e+001 2.0886039e+001 8.0000010e+000
      endloop
   endfacet
   facet normal -7.0710678e-001 -7.0710678e-001 5.0783206e-015
      outer loop
         vertex 3.5000000e+001 2.0886039e+001 8.0000010e+000
         vertex 3.1125000e+001 2.4761039e+001 5.0000010e+000
         vertex 3.5000000e+001 2.0886039e+001 5.0000010e+000
      endloop
   endfacet
   facet normal -7.0710678e-001 -7.0710678e-001 3.3495306e-015
      outer loop
         vertex 4.4688771e+001 1.8947268e+001 5.0000010e+000
         vertex 4.4688771e+001 1.8947268e+001 8.0000010e+000
         vertex 3.8875000e+001 2.4761039e+001 5.0000010e+000
      endloop
   endfacet
   facet normal -7.0710678e-001 -7.0710678e-001 1.7284120e-015
      outer loop
         vertex 3.8875000e+001 2.4761039e+001 5.0000010e+000
         vertex 4.4688771e+001 1.8947268e+001 8.0000010e+000
         vertex 3.8875000e+001 2.4761039e+001 8.0000010e+000
      endloop
   endfacet
   facet normal -7.0710678e-001 -7.0710678e-001 0.0000000e+000
      outer loop
         vertex 3.0419065e+001 2.5466974e+001 8.0000010e+000
         vertex 3.0417893e+001 2.5468146e+001 8.0000010e+000
         vertex 3.0419065e+001 2.5466974e+001 5.0000010e+000
      endloop
   endfacet
   facet normal -7.0710678e-001 -7.0710678e-001 -0.0000000e+000
      outer loop
         vertex 3.0419065e+001 2.5466974e+001 5.0000010e+000
         vertex 3.0417893e+001 2.5468146e+001 8.0000010e+000
         vertex 3.0417893e+001 2.5468146e+001 5.0000010e+000
      endloop
   endfacet
   facet normal -2.4153985e-015 -5.8173986e-016 1.0000000e+000
      outer loop
         vertex 3.5000000e+001 2.0886039e+001 8.0000010e+000
         vertex 3.3495737e+001 2.7131776e+001 8.0000010e+000
         vertex 3.1125000e+001 2.4761039e+001 8.0000010e+000
      endloop
   endfacet
   facet normal 3.5340669e-015 -6.5312053e-015 1.0000000e+000
      outer loop
         vertex 3.1125000e+001 2.4761039e+001 8.0000010e+000
         vertex 3.3495737e+001 2.7131776e+001 8.0000010e+000
         vertex 3.0419065e+001 2.5466974e+001 8.0000010e+000
      endloop
   endfacet
   facet normal 4.9388412e-015 -5.1264310e-015 1.0000000e+000
      outer loop
         vertex 3.1125000e+001 2.4761039e+001 8.0000010e+000
         vertex 3.0419065e+001 2.5466974e+001 8.0000010e+000
         vertex 3.0383484e+001 2.5432695e+001 8.0000010e+000
      endloop
   endfacet
   facet normal 0.0000000e+000 0.0000000e+000 1.0000000e+000
      outer loop
         vertex 3.8875000e+001 2.4761039e+001 8.0000010e+000
         vertex 3.6820479e+001 2.7049824e+001 8.0000010e+000
         vertex 3.5000000e+001 2.0886039e+001 8.0000010e+000
      endloop
   endfacet
   facet normal 0.0000000e+000 -0.0000000e+000 1.0000000e+000
      outer loop
         vertex 3.5000000e+001 2.0886039e+001 8.0000010e+000
         vertex 3.6820479e+001 2.7049824e+001 8.0000010e+000
         vertex 3.5163332e+001 2.7302713e+001 8.0000010e+000
      endloop
   endfacet
   facet normal 0.0000000e+000 -0.0000000e+000 1.0000000e+000
      outer loop
         vertex 3.5000000e+001 2.0886039e+001 8.0000010e+000
         vertex 3.5163332e+001 2.7302713e+001 8.0000010e+000
         vertex 3.3495737e+001 2.7131776e+001 8.0000010e+000
      endloop
   endfacet
   facet normal 0.0000000e+000 0.0000000e+000 1.0000000e+000
      outer loop
         vertex 4.4688771e+001 1.8947268e+001 8.0000010e+000
         vertex 3.9686908e+001 2.5363345e+001 8.0000010e+000
         vertex 3.8875000e+001 2.4761039e+001 8.0000010e+000
      endloop
   endfacet
   facet normal 0.0000000e+000 -0.0000000e+000 1.0000000e+000
      outer loop
         vertex 3.8875000e+001 2.4761039e+001 8.0000010e+000
         vertex 3.9686908e+001 2.5363345e+001 8.0000010e+000
         vertex 3.8361186e+001 2.6389285e+001 8.0000010e+000
      endloop
   endfacet
   facet normal 0.0000000e+000 0.0000000e+000 1.0000000e+000
      outer loop
         vertex 3.8875000e+001 2.4761039e+001 8.0000010e+000
         vertex 3.8361186e+001 2.6389285e+001 8.0000010e+000
         vertex 3.6820479e+001 2.7049824e+001 8.0000010e+000
      endloop
   endfacet
   facet normal -0.0000000e+000 0.0000000e+000 1.0000000e+000
      outer loop
         vertex 4.2091756e+001 1.7642883e+001 8.0000010e+000
         vertex 4.2933485e+001 1.6913477e+001 8.0000010e+000
         vertex 4.4688771e+001 1.8947268e+001 8.0000010e+000
      endloop
   endfacet
   facet normal -0.0000000e+000 0.0000000e+000 1.0000000e+000
      outer loop
         vertex 4.4688771e+001 1.8947268e+001 8.0000010e+000
         vertex 4.2933485e+001 1.6913477e+001 8.0000010e+000
         vertex 4.5802226e+001 1.8465962e+001 8.0000010e+000
      endloop
   endfacet
   facet normal 8.3005120e-016 1.9202444e-015 1.0000000e+000
      outer loop
         vertex 4.4688771e+001 1.8947268e+001 8.0000010e+000
         vertex 4.5802226e+001 1.8465962e+001 8.0000010e+000
         vertex 4.5550342e+001 1.9499910e+001 8.0000010e+000
      endloop
   endfacet
   facet normal -1.1240625e-015 1.4441956e-015 1.0000000e+000
      outer loop
         vertex 4.5550342e+001 1.9499910e+001 8.0000010e+000
         vertex 4.5802226e+001 1.8465962e+001 8.0000010e+000
         vertex 4.8376311e+001 2.0469453e+001 8.0000010e+000
      endloop
   endfacet
   facet normal -5.4971713e-016 -2.2987479e-016 1.0000000e+000
      outer loop
         vertex 4.5550342e+001 1.9499910e+001 8.0000010e+000
         vertex 4.8376311e+001 2.0469453e+001 8.0000010e+000
         vertex 4.7964465e+001 2.1454331e+001 8.0000010e+000
      endloop
   endfacet
   facet normal -5.5290751e-016 -2.3120891e-016 1.0000000e+000
      outer loop
         vertex 4.7964465e+001 2.1454331e+001 8.0000010e+000
         vertex 4.8376311e+001 2.0469453e+001 8.0000010e+000
         vertex 5.0585525e+001 2.2869299e+001 8.0000010e+000
      endloop
   endfacet
   facet normal -1.2975647e-015 1.1481802e-015 1.0000000e+000
      outer loop
         vertex 4.7964465e+001 2.1454331e+001 8.0000010e+000
         vertex 5.0585525e+001 2.2869299e+001 8.0000010e+000
         vertex 5.0022811e+001 2.3780479e+001 8.0000010e+000
      endloop
   endfacet
   facet normal -1.5339634e-015 1.0021883e-015 1.0000000e+000
      outer loop
         vertex 5.0022811e+001 2.3780479e+001 8.0000010e+000
         vertex 5.0585525e+001 2.2869299e+001 8.0000010e+000
         vertex 5.2369607e+001 2.5600039e+001 8.0000010e+000
      endloop
   endfacet
   facet normal -1.4684234e-015 9.1765748e-016 1.0000000e+000
      outer loop
         vertex 5.0022811e+001 2.3780479e+001 8.0000010e+000
         vertex 5.2369607e+001 2.5600039e+001 8.0000010e+000
         vertex 5.1668893e+001 2.6414518e+001 8.0000010e+000
      endloop
   endfacet
   facet normal -1.6790127e-015 7.3648324e-016 1.0000000e+000
      outer loop
         vertex 5.1668893e+001 2.6414518e+001 8.0000010e+000
         vertex 5.2369607e+001 2.5600039e+001 8.0000010e+000
         vertex 5.3679891e+001 2.8587185e+001 8.0000010e+000
      endloop
   endfacet
   facet normal -1.5988105e-015 6.6224901e-016 1.0000000e+000
      outer loop
         vertex 5.1668893e+001 2.6414518e+001 8.0000010e+000
         vertex 5.3679891e+001 2.8587185e+001 8.0000010e+000
         vertex 5.2857540e+001 2.9284165e+001 8.0000010e+000
      endloop
   endfacet
   facet normal -1.7784023e-015 4.5035262e-016 1.0000000e+000
      outer loop
         vertex 5.2857540e+001 2.9284165e+001 8.0000010e+000
         vertex 5.3679891e+001 2.8587185e+001 8.0000010e+000
         vertex 5.4480636e+001 3.1749257e+001 8.0000010e+000
      endloop
   endfacet
   facet normal -1.6852005e-015 3.8898556e-016 1.0000000e+000
      outer loop
         vertex 5.2857540e+001 2.9284165e+001 8.0000010e+000
         vertex 5.4480636e+001 3.1749257e+001 8.0000010e+000
         vertex 5.3556131e+001 3.2310668e+001 8.0000010e+000
      endloop
   endfacet
   facet normal -1.8293632e-015 1.5158535e-016 1.0000000e+000
      outer loop
         vertex 5.3556131e+001 3.2310668e+001 8.0000010e+000
         vertex 5.4480636e+001 3.1749257e+001 8.0000010e+000
         vertex 5.4750000e+001 3.5000000e+001 8.0000010e+000
      endloop
   endfacet
   facet normal -1.7252775e-015 1.0537883e-016 1.0000000e+000
      outer loop
         vertex 5.3556131e+001 3.2310668e+001 8.0000010e+000
         vertex 5.4750000e+001 3.5000000e+001 8.0000010e+000
         vertex 5.3745495e+001 3.5410973e+001 8.0000010e+000
      endloop
   endfacet
   facet normal -2.0938071e-015 -7.9538528e-016 1.0000000e+000
      outer loop
         vertex 5.3745495e+001 3.5410973e+001 8.0000010e+000
         vertex 5.4750000e+001 3.5000000e+001 8.0000010e+000
         vertex 5.3420437e+001 3.8500000e+001 8.0000010e+000
      endloop
   endfacet
   facet normal -0.0000000e+000 0.0000000e+000 1.0000000e+000
      outer loop
         vertex 5.3420437e+001 3.8500000e+001 8.0000010e+000
         vertex 5.4750000e+001 3.5000000e+001 8.0000010e+000
         vertex 5.4750000e+001 4.3500000e+001 8.0000010e+000
      endloop
   endfacet
   facet normal -1.8219045e-016 4.8446734e-017 1.0000000e+000
      outer loop
         vertex 5.3420437e+001 3.8500000e+001 8.0000010e+000
         vertex 5.4750000e+001 4.3500000e+001 8.0000010e+000
         vertex 4.5000000e+001 4.3500000e+001 8.0000010e+000
      endloop
   endfacet
   facet normal 0.0000000e+000 0.0000000e+000 1.0000000e+000
      outer loop
         vertex 4.2933485e+001 1.6913477e+001 8.0000010e+000
         vertex 4.2091756e+001 1.7642883e+001 8.0000010e+000
         vertex 3.9848338e+001 1.5854345e+001 8.0000010e+000
      endloop
   endfacet
   facet normal 0.0000000e+000 -0.0000000e+000 1.0000000e+000
      outer loop
         vertex 3.9848338e+001 1.5854345e+001 8.0000010e+000
         vertex 4.2091756e+001 1.7642883e+001 8.0000010e+000
         vertex 3.9324368e+001 1.6755485e+001 8.0000010e+000
      endloop
   endfacet
   facet normal 0.0000000e+000 0.0000000e+000 1.0000000e+000
      outer loop
         vertex 3.9848338e+001 1.5854345e+001 8.0000010e+000
         vertex 3.9324368e+001 1.6755485e+001 8.0000010e+000
         vertex 3.6630942e+001 1.5317456e+001 8.0000010e+000
      endloop
   endfacet
   facet normal 0.0000000e+000 -0.0000000e+000 1.0000000e+000
      outer loop
         vertex 3.6630942e+001 1.5317456e+001 8.0000010e+000
         vertex 3.9324368e+001 1.6755485e+001 8.0000010e+000
         vertex 3.6453092e+001 1.6306391e+001 8.0000010e+000
      endloop
   endfacet
   facet normal -5.4457999e-016 -9.7937114e-017 1.0000000e+000
      outer loop
         vertex 3.6630942e+001 1.5317456e+001 8.0000010e+000
         vertex 3.6453092e+001 1.6306391e+001 8.0000010e+000
         vertex 3.3369058e+001 1.5317456e+001 8.0000010e+000
      endloop
   endfacet
   facet normal 0.0000000e+000 -1.7962329e-015 1.0000000e+000
      outer loop
         vertex 3.3369058e+001 1.5317456e+001 8.0000010e+000
         vertex 3.6453092e+001 1.6306391e+001 8.0000010e+000
         vertex 3.3546908e+001 1.6306391e+001 8.0000010e+000
      endloop
   endfacet
   facet normal -2.7326081e-016 -1.7470897e-015 1.0000000e+000
      outer loop
         vertex 3.3369058e+001 1.5317456e+001 8.0000010e+000
         vertex 3.3546908e+001 1.6306391e+001 8.0000010e+000
         vertex 3.0675632e+001 1.6755485e+001 8.0000010e+000
      endloop
   endfacet
   facet normal -2.9984726e-016 -1.7968861e-015 1.0000000e+000
      outer loop
         vertex 3.3369058e+001 1.5317456e+001 8.0000010e+000
         vertex 3.0675632e+001 1.6755485e+001 8.0000010e+000
         vertex 3.0151662e+001 1.5854345e+001 8.0000010e+000
      endloop
   endfacet
   facet normal -5.3276683e-016 -1.6614544e-015 1.0000000e+000
      outer loop
         vertex 3.0151662e+001 1.5854345e+001 8.0000010e+000
         vertex 3.0675632e+001 1.6755485e+001 8.0000010e+000
         vertex 2.7908244e+001 1.7642883e+001 8.0000010e+000
      endloop
   endfacet
   facet normal -5.9882229e-016 -1.7443097e-015 1.0000000e+000
      outer loop
         vertex 3.0151662e+001 1.5854345e+001 8.0000010e+000
         vertex 2.7908244e+001 1.7642883e+001 8.0000010e+000
         vertex 2.7066515e+001 1.6913477e+001 8.0000010e+000
      endloop
   endfacet
   facet normal -1.2073780e-015 -1.0420414e-015 1.0000000e+000
      outer loop
         vertex 2.7066515e+001 1.6913477e+001 8.0000010e+000
         vertex 2.7908244e+001 1.7642883e+001 8.0000010e+000
         vertex 2.5311229e+001 1.8947268e+001 8.0000010e+000
      endloop
   endfacet
   facet normal 0.0000000e+000 0.0000000e+000 1.0000000e+000
      outer loop
         vertex 2.7066515e+001 1.6913477e+001 8.0000010e+000
         vertex 2.5311229e+001 1.8947268e+001 8.0000010e+000
         vertex 2.4197774e+001 1.8465962e+001 8.0000010e+000
      endloop
   endfacet
   facet normal 8.3005120e-016 -1.9202444e-015 1.0000000e+000
      outer loop
         vertex 2.4197774e+001 1.8465962e+001 8.0000010e+000
         vertex 2.5311229e+001 1.8947268e+001 8.0000010e+000
         vertex 2.4449658e+001 1.9499910e+001 8.0000010e+000
      endloop
   endfacet
   facet normal -1.1240625e-015 -1.4441956e-015 1.0000000e+000
      outer loop
         vertex 2.4197774e+001 1.8465962e+001 8.0000010e+000
         vertex 2.4449658e+001 1.9499910e+001 8.0000010e+000
         vertex 2.1623689e+001 2.0469453e+001 8.0000010e+000
      endloop
   endfacet
   facet normal -1.0908743e-015 -1.3474604e-015 1.0000000e+000
      outer loop
         vertex 2.1623689e+001 2.0469453e+001 8.0000010e+000
         vertex 2.4449658e+001 1.9499910e+001 8.0000010e+000
         vertex 2.2035535e+001 2.1454331e+001 8.0000010e+000
      endloop
   endfacet
   facet normal -1.9001732e-015 -1.0090365e-015 1.0000000e+000
      outer loop
         vertex 2.1623689e+001 2.0469453e+001 8.0000010e+000
         vertex 2.2035535e+001 2.1454331e+001 8.0000010e+000
         vertex 1.9414475e+001 2.2869299e+001 8.0000010e+000
      endloop
   endfacet
   facet normal -2.5951293e-015 -2.2963603e-015 1.0000000e+000
      outer loop
         vertex 1.9414475e+001 2.2869299e+001 8.0000010e+000
         vertex 2.2035535e+001 2.1454331e+001 8.0000010e+000
         vertex 1.9977189e+001 2.3780479e+001 8.0000010e+000
      endloop
   endfacet
   facet normal -3.0679267e-015 -2.0043766e-015 1.0000000e+000
      outer loop
         vertex 1.9414475e+001 2.2869299e+001 8.0000010e+000
         vertex 1.9977189e+001 2.3780479e+001 8.0000010e+000
         vertex 1.7630393e+001 2.5600039e+001 8.0000010e+000
      endloop
   endfacet
   facet normal -2.9368468e-015 -1.8353150e-015 1.0000000e+000
      outer loop
         vertex 1.7630393e+001 2.5600039e+001 8.0000010e+000
         vertex 1.9977189e+001 2.3780479e+001 8.0000010e+000
         vertex 1.8331107e+001 2.6414518e+001 8.0000010e+000
      endloop
   endfacet
   facet normal -3.3580254e-015 -1.4729665e-015 1.0000000e+000
      outer loop
         vertex 1.7630393e+001 2.5600039e+001 8.0000010e+000
         vertex 1.8331107e+001 2.6414518e+001 8.0000010e+000
         vertex 1.6320109e+001 2.8587185e+001 8.0000010e+000
      endloop
   endfacet
   facet normal -3.1976211e-015 -1.3244980e-015 1.0000000e+000
      outer loop
         vertex 1.6320109e+001 2.8587185e+001 8.0000010e+000
         vertex 1.8331107e+001 2.6414518e+001 8.0000010e+000
         vertex 1.7142460e+001 2.9284165e+001 8.0000010e+000
      endloop
   endfacet
   facet normal -3.5568045e-015 -9.0070523e-016 1.0000000e+000
      outer loop
         vertex 1.6320109e+001 2.8587185e+001 8.0000010e+000
         vertex 1.7142460e+001 2.9284165e+001 8.0000010e+000
         vertex 1.5519364e+001 3.1749257e+001 8.0000010e+000
      endloop
   endfacet
   facet normal -3.3704009e-015 -7.7797111e-016 1.0000000e+000
      outer loop
         vertex 1.5519364e+001 3.1749257e+001 8.0000010e+000
         vertex 1.7142460e+001 2.9284165e+001 8.0000010e+000
         vertex 1.6443869e+001 3.2310668e+001 8.0000010e+000
      endloop
   endfacet
   facet normal -3.6587263e-015 -3.0317070e-016 1.0000000e+000
      outer loop
         vertex 1.5519364e+001 3.1749257e+001 8.0000010e+000
         vertex 1.6443869e+001 3.2310668e+001 8.0000010e+000
         vertex 1.5250000e+001 3.5000000e+001 8.0000010e+000
      endloop
   endfacet
   facet normal -3.4505549e-015 -2.1075765e-016 1.0000000e+000
      outer loop
         vertex 1.5250000e+001 3.5000000e+001 8.0000010e+000
         vertex 1.6443869e+001 3.2310668e+001 8.0000010e+000
         vertex 1.6254505e+001 3.5410973e+001 8.0000010e+000
      endloop
   endfacet
   facet normal -4.1876143e-015 1.5907706e-015 1.0000000e+000
      outer loop
         vertex 1.5250000e+001 3.5000000e+001 8.0000010e+000
         vertex 1.6254505e+001 3.5410973e+001 8.0000010e+000
         vertex 1.6579563e+001 3.8500000e+001 8.0000010e+000
      endloop
   endfacet
   facet normal 1.2560740e-015 -1.2560740e-015 1.0000000e+000
      outer loop
         vertex 2.4449658e+001 1.9499910e+001 8.0000010e+000
         vertex 2.5311229e+001 1.8947268e+001 8.0000010e+000
         vertex 3.0313092e+001 2.5363345e+001 8.0000010e+000
      endloop
   endfacet
   facet normal 5.4146832e-015 -4.4980543e-015 1.0000000e+000
      outer loop
         vertex 3.0313092e+001 2.5363345e+001 8.0000010e+000
         vertex 2.5311229e+001 1.8947268e+001 8.0000010e+000
         vertex 3.1125000e+001 2.4761039e+001 8.0000010e+000
      endloop
   endfacet
   facet normal 5.0083366e-015 -5.0458089e-015 1.0000000e+000
      outer loop
         vertex 3.0313092e+001 2.5363345e+001 8.0000010e+000
         vertex 3.1125000e+001 2.4761039e+001 8.0000010e+000
         vertex 3.0348159e+001 2.5398151e+001 8.0000010e+000
      endloop
   endfacet
   facet normal 4.9745282e-015 -5.0870321e-015 1.0000000e+000
      outer loop
         vertex 3.0348159e+001 2.5398151e+001 8.0000010e+000
         vertex 3.1125000e+001 2.4761039e+001 8.0000010e+000
         vertex 3.0383484e+001 2.5432695e+001 8.0000010e+000
      endloop
   endfacet
   facet normal 0.0000000e+000 6.2502528e-016 1.0000000e+000
      outer loop
         vertex 4.4863961e+001 3.8500000e+001 8.0000010e+000
         vertex 4.3449747e+001 3.8500000e+001 8.0000010e+000
         vertex 3.3495737e+001 2.7131776e+001 8.0000010e+000
      endloop
   endfacet
   facet normal -5.0242959e-015 5.0242959e-015 1.0000000e+000
      outer loop
         vertex 3.3495737e+001 2.7131776e+001 8.0000010e+000
         vertex 4.3449747e+001 3.8500000e+001 8.0000010e+000
         vertex 3.0417893e+001 2.5468146e+001 8.0000010e+000
      endloop
   endfacet
   facet normal -2.1289829e-012 3.9345108e-012 1.0000000e+000
      outer loop
         vertex 3.3495737e+001 2.7131776e+001 8.0000010e+000
         vertex 3.0417893e+001 2.5468146e+001 8.0000010e+000
         vertex 3.0419065e+001 2.5466974e+001 8.0000010e+000
      endloop
   endfacet
   facet normal 0.0000000e+000 -1.4210855e-015 1.0000000e+000
      outer loop
         vertex 4.3449747e+001 3.8500000e+001 8.0000010e+000
         vertex 4.4863961e+001 3.8500000e+001 8.0000010e+000
         vertex 4.5000000e+001 4.3500000e+001 8.0000010e+000
      endloop
   endfacet
   facet normal -1.0380189e-015 -1.3928433e-015 1.0000000e+000
      outer loop
         vertex 4.5000000e+001 4.3500000e+001 8.0000010e+000
         vertex 4.4863961e+001 3.8500000e+001 8.0000010e+000
         vertex 5.3420437e+001 3.8500000e+001 8.0000010e+000
      endloop
   endfacet
   facet normal 1.3744619e-015 1.0715069e-015 1.0000000e+000
      outer loop
         vertex 4.5550342e+001 1.9499910e+001 8.0000010e+000
         vertex 3.9686908e+001 2.5363345e+001 8.0000010e+000
         vertex 4.4688771e+001 1.8947268e+001 8.0000010e+000
      endloop
   endfacet
   facet normal 1.3221769e-016 -5.7793751e-016 1.0000000e+000
      outer loop
         vertex 4.3449747e+001 3.8500000e+001 8.0000010e+000
         vertex 2.5000000e+001 4.3500000e+001 8.0000010e+000
         vertex 1.6579563e+001 3.8500000e+001 8.0000010e+000
      endloop
   endfacet
   facet normal -1.8219045e-016 -4.8446734e-017 1.0000000e+000
      outer loop
         vertex 1.6579563e+001 3.8500000e+001 8.0000010e+000
         vertex 2.5000000e+001 4.3500000e+001 8.0000010e+000
         vertex 1.5250000e+001 4.3500000e+001 8.0000010e+000
      endloop
   endfacet
   facet normal 0.0000000e+000 0.0000000e+000 1.0000000e+000
      outer loop
         vertex 1.6579563e+001 3.8500000e+001 8.0000010e+000
         vertex 1.5250000e+001 4.3500000e+001 8.0000010e+000
         vertex 1.5250000e+001 3.5000000e+001 8.0000010e+000
      endloop
   endfacet
   facet normal 0.0000000e+000 1.3406467e-016 1.0000000e+000
      outer loop
         vertex 4.5000000e+001 7.0000000e+001 8.0000010e+000
         vertex 2.5000000e+001 7.0000000e+001 8.0000010e+000
         vertex 4.5000000e+001 4.3500000e+001 8.0000010e+000
      endloop
   endfacet
   facet normal -8.8817842e-017 6.7032334e-017 1.0000000e+000
      outer loop
         vertex 4.5000000e+001 4.3500000e+001 8.0000010e+000
         vertex 2.5000000e+001 7.0000000e+001 8.0000010e+000
         vertex 2.5000000e+001 4.3500000e+001 8.0000010e+000
      endloop
   endfacet
   facet normal -8.8817842e-017 -1.3935475e-015 1.0000000e+000
      outer loop
         vertex 4.5000000e+001 4.3500000e+001 8.0000010e+000
         vertex 2.5000000e+001 4.3500000e+001 8.0000010e+000
         vertex 4.3449747e+001 3.8500000e+001 8.0000010e+000
      endloop
   endfacet
   facet normal -6.2922368e-001 7.7722427e-001 2.9547968e-015
      outer loop
         vertex 4.5550342e+001 1.9499910e+001 8.0000010e+000
         vertex 4.7964465e+001 2.1454331e+001 8.0000010e+000
         vertex 4.5550342e+001 1.9499910e+001 5.0000010e+000
      endloop
   endfacet
   facet normal -6.2922368e-001 7.7722427e-001 0.0000000e+000
      outer loop
         vertex 4.5550342e+001 1.9499910e+001 5.0000010e+000
         vertex 4.7964465e+001 2.1454331e+001 8.0000010e+000
         vertex 4.7964465e+001 2.1454331e+001 5.0000010e+000
      endloop
   endfacet
   facet normal -7.4890075e-001 6.6268218e-001 0.0000000e+000
      outer loop
         vertex 4.7964465e+001 2.1454331e+001 5.0000010e+000
         vertex 4.7964465e+001 2.1454331e+001 8.0000010e+000
         vertex 5.0022811e+001 2.3780479e+001 8.0000010e+000
      endloop
   endfacet
   facet normal -7.4890075e-001 6.6268218e-001 1.7737533e-015
      outer loop
         vertex 4.7964465e+001 2.1454331e+001 5.0000010e+000
         vertex 5.0022811e+001 2.3780479e+001 8.0000010e+000
         vertex 5.0022811e+001 2.3780479e+001 5.0000010e+000
      endloop
   endfacet
   facet normal -8.4802611e-001 5.2995444e-001 2.0085293e-015
      outer loop
         vertex 5.0022811e+001 2.3780479e+001 5.0000010e+000
         vertex 5.0022811e+001 2.3780479e+001 8.0000010e+000
         vertex 5.1668893e+001 2.6414518e+001 8.0000010e+000
      endloop
   endfacet
   facet normal -8.4802611e-001 5.2995444e-001 -1.2551843e-015
      outer loop
         vertex 5.0022811e+001 2.3780479e+001 5.0000010e+000
         vertex 5.1668893e+001 2.6414518e+001 8.0000010e+000
         vertex 5.1668893e+001 2.6414518e+001 5.0000010e+000
      endloop
   endfacet
   facet normal -9.2387953e-001 3.8268343e-001 -9.0637644e-016
      outer loop
         vertex 5.1668893e+001 2.6414518e+001 5.0000010e+000
         vertex 5.1668893e+001 2.6414518e+001 8.0000010e+000
         vertex 5.2857540e+001 2.9284165e+001 8.0000010e+000
      endloop
   endfacet
   facet normal -9.2387953e-001 3.8268343e-001 2.5636197e-015
      outer loop
         vertex 5.1668893e+001 2.6414518e+001 5.0000010e+000
         vertex 5.2857540e+001 2.9284165e+001 8.0000010e+000
         vertex 5.2857540e+001 2.9284165e+001 5.0000010e+000
      endloop
   endfacet
   facet normal -9.7437939e-001 2.2491064e-001 3.5501972e-015
      outer loop
         vertex 5.2857540e+001 2.9284165e+001 5.0000010e+000
         vertex 5.2857540e+001 2.9284165e+001 8.0000010e+000
         vertex 5.3556131e+001 3.2310668e+001 8.0000010e+000
      endloop
   endfacet
   facet normal -9.7437939e-001 2.2491064e-001 -1.0653908e-015
      outer loop
         vertex 5.2857540e+001 2.9284165e+001 5.0000010e+000
         vertex 5.3556131e+001 3.2310668e+001 8.0000010e+000
         vertex 5.3556131e+001 3.2310668e+001 5.0000010e+000
      endloop
   endfacet
   facet normal -9.9813986e-001 6.0965734e-002 -2.8879173e-016
      outer loop
         vertex 5.3556131e+001 3.2310668e+001 5.0000010e+000
         vertex 5.3556131e+001 3.2310668e+001 8.0000010e+000
         vertex 5.3745495e+001 3.5410973e+001 8.0000010e+000
      endloop
   endfacet
   facet normal -9.9813986e-001 6.0965734e-002 -2.8879173e-016
      outer loop
         vertex 5.3556131e+001 3.2310668e+001 5.0000010e+000
         vertex 5.3745495e+001 3.5410973e+001 8.0000010e+000
         vertex 5.3745495e+001 3.5410973e+001 5.0000010e+000
      endloop
   endfacet
   facet normal -9.9450888e-001 -1.0465222e-001 4.9573250e-016
      outer loop
         vertex 5.3745495e+001 3.5410973e+001 5.0000010e+000
         vertex 5.3745495e+001 3.5410973e+001 8.0000010e+000
         vertex 5.3420437e+001 3.8500000e+001 8.0000010e+000
      endloop
   endfacet
   facet normal -9.9450888e-001 -1.0465222e-001 -4.7109404e-015
      outer loop
         vertex 5.3745495e+001 3.5410973e+001 5.0000010e+000
         vertex 5.3420437e+001 3.8500000e+001 8.0000010e+000
         vertex 5.3420437e+001 3.8500000e+001 5.0000010e+000
      endloop
   endfacet
   facet normal 4.4883058e-001 8.9361687e-001 -2.1165099e-015
      outer loop
         vertex 2.5311229e+001 1.8947268e+001 5.0000010e+000
         vertex 2.5311229e+001 1.8947268e+001 8.0000010e+000
         vertex 2.7908244e+001 1.7642883e+001 5.0000010e+000
      endloop
   endfacet
   facet normal 4.4883058e-001 8.9361687e-001 0.0000000e+000
      outer loop
         vertex 2.7908244e+001 1.7642883e+001 5.0000010e+000
         vertex 2.5311229e+001 1.8947268e+001 8.0000010e+000
         vertex 2.7908244e+001 1.7642883e+001 8.0000010e+000
      endloop
   endfacet
   facet normal 3.0534830e-001 9.5224073e-001 -0.0000000e+000
      outer loop
         vertex 2.7908244e+001 1.7642883e+001 5.0000010e+000
         vertex 2.7908244e+001 1.7642883e+001 8.0000010e+000
         vertex 3.0675632e+001 1.6755485e+001 8.0000010e+000
      endloop
   endfacet
   facet normal 3.0534830e-001 9.5224073e-001 0.0000000e+000
      outer loop
         vertex 2.7908244e+001 1.7642883e+001 5.0000010e+000
         vertex 3.0675632e+001 1.6755485e+001 8.0000010e+000
         vertex 3.0675632e+001 1.6755485e+001 5.0000010e+000
      endloop
   endfacet
   facet normal 1.5453036e-001 9.8798804e-001 -0.0000000e+000
      outer loop
         vertex 3.0675632e+001 1.6755485e+001 5.0000010e+000
         vertex 3.0675632e+001 1.6755485e+001 8.0000010e+000
         vertex 3.3546908e+001 1.6306391e+001 8.0000010e+000
      endloop
   endfacet
   facet normal 1.5453036e-001 9.8798804e-001 0.0000000e+000
      outer loop
         vertex 3.0675632e+001 1.6755485e+001 5.0000010e+000
         vertex 3.3546908e+001 1.6306391e+001 8.0000010e+000
         vertex 3.3546908e+001 1.6306391e+001 5.0000010e+000
      endloop
   endfacet
   facet normal 0.0000000e+000 1.0000000e+000 0.0000000e+000
      outer loop
         vertex 3.3546908e+001 1.6306391e+001 5.0000010e+000
         vertex 3.3546908e+001 1.6306391e+001 8.0000010e+000
         vertex 3.6453092e+001 1.6306391e+001 8.0000010e+000
      endloop
   endfacet
   facet normal -0.0000000e+000 1.0000000e+000 0.0000000e+000
      outer loop
         vertex 3.3546908e+001 1.6306391e+001 5.0000010e+000
         vertex 3.6453092e+001 1.6306391e+001 8.0000010e+000
         vertex 3.6453092e+001 1.6306391e+001 5.0000010e+000
      endloop
   endfacet
   facet normal -1.5453036e-001 9.8798804e-001 -3.6600142e-016
      outer loop
         vertex 3.6453092e+001 1.6306391e+001 5.0000010e+000
         vertex 3.6453092e+001 1.6306391e+001 8.0000010e+000
         vertex 3.9324368e+001 1.6755485e+001 8.0000010e+000
      endloop
   endfacet
   facet normal -1.5453036e-001 9.8798804e-001 -3.6600142e-016
      outer loop
         vertex 3.6453092e+001 1.6306391e+001 5.0000010e+000
         vertex 3.9324368e+001 1.6755485e+001 8.0000010e+000
         vertex 3.9324368e+001 1.6755485e+001 5.0000010e+000
      endloop
   endfacet
   facet normal -3.0534830e-001 9.5224073e-001 -7.2321006e-016
      outer loop
         vertex 3.9324368e+001 1.6755485e+001 5.0000010e+000
         vertex 3.9324368e+001 1.6755485e+001 8.0000010e+000
         vertex 4.2091756e+001 1.7642883e+001 8.0000010e+000
      endloop
   endfacet
   facet normal -3.0534830e-001 9.5224073e-001 0.0000000e+000
      outer loop
         vertex 3.9324368e+001 1.6755485e+001 5.0000010e+000
         vertex 4.2091756e+001 1.7642883e+001 8.0000010e+000
         vertex 4.2091756e+001 1.7642883e+001 5.0000010e+000
      endloop
   endfacet
   facet normal -4.4883058e-001 8.9361687e-001 0.0000000e+000
      outer loop
         vertex 4.2091756e+001 1.7642883e+001 5.0000010e+000
         vertex 4.2091756e+001 1.7642883e+001 8.0000010e+000
         vertex 4.4688771e+001 1.8947268e+001 8.0000010e+000
      endloop
   endfacet
   facet normal -4.4883058e-001 8.9361687e-001 -1.0534656e-015
      outer loop
         vertex 4.2091756e+001 1.7642883e+001 5.0000010e+000
         vertex 4.4688771e+001 1.8947268e+001 8.0000010e+000
         vertex 4.4688771e+001 1.8947268e+001 5.0000010e+000
      endloop
   endfacet
   facet normal 6.2922368e-001 7.7722427e-001 -1.5250564e-015
      outer loop
         vertex 2.4449658e+001 1.9499910e+001 5.0000010e+000
         vertex 2.2035535e+001 2.1454331e+001 5.0000010e+000
         vertex 2.4449658e+001 1.9499910e+001 8.0000010e+000
      endloop
   endfacet
   facet normal 6.2922368e-001 7.7722427e-001 7.4515052e-016
      outer loop
         vertex 2.4449658e+001 1.9499910e+001 8.0000010e+000
         vertex 2.2035535e+001 2.1454331e+001 5.0000010e+000
         vertex 2.2035535e+001 2.1454331e+001 8.0000010e+000
      endloop
   endfacet
   facet normal 7.4890075e-001 6.6268218e-001 8.8687664e-016
      outer loop
         vertex 2.2035535e+001 2.1454331e+001 8.0000010e+000
         vertex 2.2035535e+001 2.1454331e+001 5.0000010e+000
         vertex 1.9977189e+001 2.3780479e+001 5.0000010e+000
      endloop
   endfacet
   facet normal 7.4890075e-001 6.6268218e-001 -0.0000000e+000
      outer loop
         vertex 2.2035535e+001 2.1454331e+001 8.0000010e+000
         vertex 1.9977189e+001 2.3780479e+001 5.0000010e+000
         vertex 1.9977189e+001 2.3780479e+001 8.0000010e+000
      endloop
   endfacet
   facet normal 8.4802611e-001 5.2995444e-001 0.0000000e+000
      outer loop
         vertex 1.9977189e+001 2.3780479e+001 8.0000010e+000
         vertex 1.9977189e+001 2.3780479e+001 5.0000010e+000
         vertex 1.8331107e+001 2.6414518e+001 5.0000010e+000
      endloop
   endfacet
   facet normal 8.4802611e-001 5.2995444e-001 -5.0183920e-016
      outer loop
         vertex 1.9977189e+001 2.3780479e+001 8.0000010e+000
         vertex 1.8331107e+001 2.6414518e+001 5.0000010e+000
         vertex 1.8331107e+001 2.6414518e+001 8.0000010e+000
      endloop
   endfacet
   facet normal 9.2387953e-001 3.8268343e-001 3.7543342e-016
      outer loop
         vertex 1.8331107e+001 2.6414518e+001 8.0000010e+000
         vertex 1.8331107e+001 2.6414518e+001 5.0000010e+000
         vertex 1.7142460e+001 2.9284165e+001 5.0000010e+000
      endloop
   endfacet
   facet normal 9.2387953e-001 3.8268343e-001 -0.0000000e+000
      outer loop
         vertex 1.8331107e+001 2.6414518e+001 8.0000010e+000
         vertex 1.7142460e+001 2.9284165e+001 5.0000010e+000
         vertex 1.7142460e+001 2.9284165e+001 8.0000010e+000
      endloop
   endfacet
   facet normal 9.7437939e-001 2.2491064e-001 0.0000000e+000
      outer loop
         vertex 1.7142460e+001 2.9284165e+001 8.0000010e+000
         vertex 1.7142460e+001 2.9284165e+001 5.0000010e+000
         vertex 1.6443869e+001 3.2310668e+001 5.0000010e+000
      endloop
   endfacet
   facet normal 9.7437939e-001 2.2491064e-001 8.8506205e-017
      outer loop
         vertex 1.7142460e+001 2.9284165e+001 8.0000010e+000
         vertex 1.6443869e+001 3.2310668e+001 5.0000010e+000
         vertex 1.6443869e+001 3.2310668e+001 8.0000010e+000
      endloop
   endfacet
   facet normal 9.9813986e-001 6.0965734e-002 8.9324332e-016
      outer loop
         vertex 1.6443869e+001 3.2310668e+001 8.0000010e+000
         vertex 1.6443869e+001 3.2310668e+001 5.0000010e+000
         vertex 1.6254505e+001 3.5410973e+001 5.0000010e+000
      endloop
   endfacet
   facet normal 9.9813986e-001 6.0965734e-002 -2.8879173e-016
      outer loop
         vertex 1.6443869e+001 3.2310668e+001 8.0000010e+000
         vertex 1.6254505e+001 3.5410973e+001 5.0000010e+000
         vertex 1.6254505e+001 3.5410973e+001 8.0000010e+000
      endloop
   endfacet
   facet normal 9.9450888e-001 -1.0465222e-001 4.9573250e-016
      outer loop
         vertex 1.6254505e+001 3.5410973e+001 8.0000010e+000
         vertex 1.6254505e+001 3.5410973e+001 5.0000010e+000
         vertex 1.6579563e+001 3.8500000e+001 5.0000010e+000
      endloop
   endfacet
   facet normal 9.9450888e-001 -1.0465222e-001 -4.7109404e-015
      outer loop
         vertex 1.6254505e+001 3.5410973e+001 8.0000010e+000
         vertex 1.6579563e+001 3.8500000e+001 5.0000010e+000
         vertex 1.6579563e+001 3.8500000e+001 8.0000010e+000
      endloop
   endfacet
   facet normal 7.0710678e-001 -7.0710678e-001 0.0000000e+000
      outer loop
         vertex 3.3495737e+001 2.7131776e+001 5.0000010e+000
         vertex 4.4863961e+001 3.8500000e+001 5.0000010e+000
         vertex 3.3495737e+001 2.7131776e+001 8.0000010e+000
      endloop
   endfacet
   facet normal 7.0710678e-001 -7.0710678e-001 -1.6748330e-029
      outer loop
         vertex 3.3495737e+001 2.7131776e+001 8.0000010e+000
         vertex 4.4863961e+001 3.8500000e+001 5.0000010e+000
         vertex 4.4863961e+001 3.8500000e+001 8.0000010e+000
      endloop
   endfacet
   facet normal -7.0710678e-001 7.0710678e-001 0.0000000e+000
      outer loop
         vertex 4.3449747e+001 3.8500000e+001 5.0000010e+000
         vertex 3.0417893e+001 2.5468146e+001 5.0000010e+000
         vertex 4.3449747e+001 3.8500000e+001 8.0000010e+000
      endloop
   endfacet
   facet normal -7.0710678e-001 7.0710678e-001 0.0000000e+000
      outer loop
         vertex 4.3449747e+001 3.8500000e+001 8.0000010e+000
         vertex 3.0417893e+001 2.5468146e+001 5.0000010e+000
         vertex 3.0417893e+001 2.5468146e+001 8.0000010e+000
      endloop
   endfacet
   facet normal -3.3216606e-015 -1.0000000e+000 9.4739031e-015
      outer loop
         vertex 4.4863961e+001 3.8500000e+001 8.0000010e+000
         vertex 4.4863961e+001 3.8500000e+001 5.0000010e+000
         vertex 5.3420437e+001 3.8500000e+001 8.0000010e+000
      endloop
   endfacet
   facet normal 0.0000000e+000 -1.0000000e+000 -0.0000000e+000
      outer loop
         vertex 5.3420437e+001 3.8500000e+001 8.0000010e+000
         vertex 4.4863961e+001 3.8500000e+001 5.0000010e+000
         vertex 5.3420437e+001 3.8500000e+001 5.0000010e+000
      endloop
   endfacet
   facet normal 1.0577415e-015 -1.0000000e+000 0.0000000e+000
      outer loop
         vertex 4.3449747e+001 3.8500000e+001 5.0000010e+000
         vertex 4.3449747e+001 3.8500000e+001 8.0000010e+000
         vertex 1.6579563e+001 3.8500000e+001 5.0000010e+000
      endloop
   endfacet
   facet normal 1.0577415e-015 -1.0000000e+000 -5.0104703e-030
      outer loop
         vertex 1.6579563e+001 3.8500000e+001 5.0000010e+000
         vertex 4.3449747e+001 3.8500000e+001 8.0000010e+000
         vertex 1.6579563e+001 3.8500000e+001 8.0000010e+000
      endloop
   endfacet
   facet normal 5.3224573e-013 -9.8362770e-013 -1.0000000e+000
      outer loop
         vertex 3.0417893e+001 2.5468146e+001 5.0000010e+000
         vertex 3.3495737e+001 2.7131776e+001 5.0000010e+000
         vertex 3.0419065e+001 2.5466974e+001 5.0000010e+000
      endloop
   endfacet
   facet normal -8.8351672e-016 1.6328013e-015 -1.0000000e+000
      outer loop
         vertex 3.0419065e+001 2.5466974e+001 5.0000010e+000
         vertex 3.3495737e+001 2.7131776e+001 5.0000010e+000
         vertex 3.1125000e+001 2.4761039e+001 5.0000010e+000
      endloop
   endfacet
   facet normal -1.2347103e-015 1.2816077e-015 -1.0000000e+000
      outer loop
         vertex 3.0419065e+001 2.5466974e+001 5.0000010e+000
         vertex 3.1125000e+001 2.4761039e+001 5.0000010e+000
         vertex 3.0383484e+001 2.5432695e+001 5.0000010e+000
      endloop
   endfacet
   facet normal -1.2436320e-015 1.2717580e-015 -1.0000000e+000
      outer loop
         vertex 3.0383484e+001 2.5432695e+001 5.0000010e+000
         vertex 3.1125000e+001 2.4761039e+001 5.0000010e+000
         vertex 3.0348159e+001 2.5398151e+001 5.0000010e+000
      endloop
   endfacet
   facet normal 9.0423844e-014 1.1304344e-013 -1.0000000e+000
      outer loop
         vertex 3.0348159e+001 2.5398151e+001 5.0000010e+000
         vertex 3.1125000e+001 2.4761039e+001 5.0000010e+000
         vertex 3.0313092e+001 2.5363345e+001 5.0000010e+000
      endloop
   endfacet
   facet normal 4.0935447e-015 -3.3296873e-015 -1.0000000e+000
      outer loop
         vertex 3.0313092e+001 2.5363345e+001 5.0000010e+000
         vertex 3.1125000e+001 2.4761039e+001 5.0000010e+000
         vertex 2.5311229e+001 1.8947268e+001 5.0000010e+000
      endloop
   endfacet
   facet normal -5.9193971e-017 -9.2283530e-017 -1.0000000e+000
      outer loop
         vertex 3.0313092e+001 2.5363345e+001 5.0000010e+000
         vertex 2.5311229e+001 1.8947268e+001 5.0000010e+000
         vertex 2.4449658e+001 1.9499910e+001 5.0000010e+000
      endloop
   endfacet
   facet normal 0.0000000e+000 -0.0000000e+000 -1.0000000e+000
      outer loop
         vertex 2.4449658e+001 1.9499910e+001 5.0000010e+000
         vertex 2.5311229e+001 1.8947268e+001 5.0000010e+000
         vertex 2.4197774e+001 1.8465962e+001 5.0000010e+000
      endloop
   endfacet
   facet normal -0.0000000e+000 0.0000000e+000 -1.0000000e+000
      outer loop
         vertex 2.4449658e+001 1.9499910e+001 5.0000010e+000
         vertex 2.4197774e+001 1.8465962e+001 5.0000010e+000
         vertex 2.1623689e+001 2.0469453e+001 5.0000010e+000
      endloop
   endfacet
   facet normal 1.2560740e-015 -1.2560740e-015 -1.0000000e+000
      outer loop
         vertex 3.0417893e+001 2.5468146e+001 5.0000010e+000
         vertex 4.3449747e+001 3.8500000e+001 5.0000010e+000
         vertex 3.3495737e+001 2.7131776e+001 5.0000010e+000
      endloop
   endfacet
   facet normal -3.1401849e-015 2.5932878e-015 -1.0000000e+000
      outer loop
         vertex 3.3495737e+001 2.7131776e+001 5.0000010e+000
         vertex 4.3449747e+001 3.8500000e+001 5.0000010e+000
         vertex 4.4863961e+001 3.8500000e+001 5.0000010e+000
      endloop
   endfacet
   facet normal -3.1401849e-015 8.5437504e-017 -1.0000000e+000
      outer loop
         vertex 4.4863961e+001 3.8500000e+001 5.0000010e+000
         vertex 4.3449747e+001 3.8500000e+001 5.0000010e+000
         vertex 4.5000000e+001 4.3500000e+001 5.0000010e+000
      endloop
   endfacet
   facet normal 0.0000000e+000 0.0000000e+000 -1.0000000e+000
      outer loop
         vertex 4.4863961e+001 3.8500000e+001 5.0000010e+000
         vertex 4.5000000e+001 4.3500000e+001 5.0000010e+000
         vertex 5.3420437e+001 3.8500000e+001 5.0000010e+000
      endloop
   endfacet
   facet normal 0.0000000e+000 0.0000000e+000 -1.0000000e+000
      outer loop
         vertex 5.3420437e+001 3.8500000e+001 5.0000010e+000
         vertex 4.5000000e+001 4.3500000e+001 5.0000010e+000
         vertex 5.4750000e+001 4.3500000e+001 5.0000010e+000
      endloop
   endfacet
   facet normal 0.0000000e+000 0.0000000e+000 -1.0000000e+000
      outer loop
         vertex 5.3420437e+001 3.8500000e+001 5.0000010e+000
         vertex 5.4750000e+001 4.3500000e+001 5.0000010e+000
         vertex 5.4750000e+001 3.5000000e+001 5.0000010e+000
      endloop
   endfacet
   facet normal 0.0000000e+000 -8.8817842e-016 -1.0000000e+000
      outer loop
         vertex 4.5000000e+001 4.3500000e+001 5.0000010e+000
         vertex 4.3449747e+001 3.8500000e+001 5.0000010e+000
         vertex 2.5000000e+001 4.3500000e+001 5.0000010e+000
      endloop
   endfacet
   facet normal 1.6527211e-016 -2.7833268e-016 -1.0000000e+000
      outer loop
         vertex 2.5000000e+001 4.3500000e+001 5.0000010e+000
         vertex 4.3449747e+001 3.8500000e+001 5.0000010e+000
         vertex 1.6579563e+001 3.8500000e+001 5.0000010e+000
      endloop
   endfacet
   facet normal -0.0000000e+000 0.0000000e+000 -1.0000000e+000
      outer loop
         vertex 2.5000000e+001 4.3500000e+001 5.0000010e+000
         vertex 1.6579563e+001 3.8500000e+001 5.0000010e+000
         vertex 1.5250000e+001 4.3500000e+001 5.0000010e+000
      endloop
   endfacet
   facet normal 0.0000000e+000 -0.0000000e+000 -1.0000000e+000
      outer loop
         vertex 1.5250000e+001 4.3500000e+001 5.0000010e+000
         vertex 1.6579563e+001 3.8500000e+001 5.0000010e+000
         vertex 1.5250000e+001 3.5000000e+001 5.0000010e+000
      endloop
   endfacet
   facet normal 0.0000000e+000 -0.0000000e+000 -1.0000000e+000
      outer loop
         vertex 1.5250000e+001 3.5000000e+001 5.0000010e+000
         vertex 1.6579563e+001 3.8500000e+001 5.0000010e+000
         vertex 1.6254505e+001 3.5410973e+001 5.0000010e+000
      endloop
   endfacet
   facet normal 0.0000000e+000 0.0000000e+000 -1.0000000e+000
      outer loop
         vertex 1.5250000e+001 3.5000000e+001 5.0000010e+000
         vertex 1.6254505e+001 3.5410973e+001 5.0000010e+000
         vertex 1.6443869e+001 3.2310668e+001 5.0000010e+000
      endloop
   endfacet
   facet normal 0.0000000e+000 -0.0000000e+000 -1.0000000e+000
      outer loop
         vertex 1.5250000e+001 3.5000000e+001 5.0000010e+000
         vertex 1.6443869e+001 3.2310668e+001 5.0000010e+000
         vertex 1.5519364e+001 3.1749257e+001 5.0000010e+000
      endloop
   endfacet
   facet normal 0.0000000e+000 0.0000000e+000 -1.0000000e+000
      outer loop
         vertex 1.5519364e+001 3.1749257e+001 5.0000010e+000
         vertex 1.6443869e+001 3.2310668e+001 5.0000010e+000
         vertex 1.7142460e+001 2.9284165e+001 5.0000010e+000
      endloop
   endfacet
   facet normal 0.0000000e+000 -0.0000000e+000 -1.0000000e+000
      outer loop
         vertex 1.5519364e+001 3.1749257e+001 5.0000010e+000
         vertex 1.7142460e+001 2.9284165e+001 5.0000010e+000
         vertex 1.6320109e+001 2.8587185e+001 5.0000010e+000
      endloop
   endfacet
   facet normal 0.0000000e+000 0.0000000e+000 -1.0000000e+000
      outer loop
         vertex 1.6320109e+001 2.8587185e+001 5.0000010e+000
         vertex 1.7142460e+001 2.9284165e+001 5.0000010e+000
         vertex 1.8331107e+001 2.6414518e+001 5.0000010e+000
      endloop
   endfacet
   facet normal 0.0000000e+000 -0.0000000e+000 -1.0000000e+000
      outer loop
         vertex 1.6320109e+001 2.8587185e+001 5.0000010e+000
         vertex 1.8331107e+001 2.6414518e+001 5.0000010e+000
         vertex 1.7630393e+001 2.5600039e+001 5.0000010e+000
      endloop
   endfacet
   facet normal 0.0000000e+000 0.0000000e+000 -1.0000000e+000
      outer loop
         vertex 1.7630393e+001 2.5600039e+001 5.0000010e+000
         vertex 1.8331107e+001 2.6414518e+001 5.0000010e+000
         vertex 1.9977189e+001 2.3780479e+001 5.0000010e+000
      endloop
   endfacet
   facet normal 0.0000000e+000 -0.0000000e+000 -1.0000000e+000
      outer loop
         vertex 1.7630393e+001 2.5600039e+001 5.0000010e+000
         vertex 1.9977189e+001 2.3780479e+001 5.0000010e+000
         vertex 1.9414475e+001 2.2869299e+001 5.0000010e+000
      endloop
   endfacet
   facet normal 0.0000000e+000 0.0000000e+000 -1.0000000e+000
      outer loop
         vertex 1.9414475e+001 2.2869299e+001 5.0000010e+000
         vertex 1.9977189e+001 2.3780479e+001 5.0000010e+000
         vertex 2.2035535e+001 2.1454331e+001 5.0000010e+000
      endloop
   endfacet
   facet normal 0.0000000e+000 -0.0000000e+000 -1.0000000e+000
      outer loop
         vertex 1.9414475e+001 2.2869299e+001 5.0000010e+000
         vertex 2.2035535e+001 2.1454331e+001 5.0000010e+000
         vertex 2.1623689e+001 2.0469453e+001 5.0000010e+000
      endloop
   endfacet
   facet normal 0.0000000e+000 0.0000000e+000 -1.0000000e+000
      outer loop
         vertex 2.1623689e+001 2.0469453e+001 5.0000010e+000
         vertex 2.2035535e+001 2.1454331e+001 5.0000010e+000
         vertex 2.4449658e+001 1.9499910e+001 5.0000010e+000
      endloop
   endfacet
   facet normal 0.0000000e+000 0.0000000e+000 -1.0000000e+000
      outer loop
         vertex 2.4197774e+001 1.8465962e+001 5.0000010e+000
         vertex 2.5311229e+001 1.8947268e+001 5.0000010e+000
         vertex 2.7066515e+001 1.6913477e+001 5.0000010e+000
      endloop
   endfacet
   facet normal 0.0000000e+000 0.0000000e+000 -1.0000000e+000
      outer loop
         vertex 2.7066515e+001 1.6913477e+001 5.0000010e+000
         vertex 2.5311229e+001 1.8947268e+001 5.0000010e+000
         vertex 2.7908244e+001 1.7642883e+001 5.0000010e+000
      endloop
   endfacet
   facet normal 0.0000000e+000 0.0000000e+000 -1.0000000e+000
      outer loop
         vertex 2.7066515e+001 1.6913477e+001 5.0000010e+000
         vertex 2.7908244e+001 1.7642883e+001 5.0000010e+000
         vertex 3.0151662e+001 1.5854345e+001 5.0000010e+000
      endloop
   endfacet
   facet normal 0.0000000e+000 0.0000000e+000 -1.0000000e+000
      outer loop
         vertex 3.0151662e+001 1.5854345e+001 5.0000010e+000
         vertex 2.7908244e+001 1.7642883e+001 5.0000010e+000
         vertex 3.0675632e+001 1.6755485e+001 5.0000010e+000
      endloop
   endfacet
   facet normal 0.0000000e+000 0.0000000e+000 -1.0000000e+000
      outer loop
         vertex 3.0151662e+001 1.5854345e+001 5.0000010e+000
         vertex 3.0675632e+001 1.6755485e+001 5.0000010e+000
         vertex 3.3369058e+001 1.5317456e+001 5.0000010e+000
      endloop
   endfacet
   facet normal 0.0000000e+000 0.0000000e+000 -1.0000000e+000
      outer loop
         vertex 3.3369058e+001 1.5317456e+001 5.0000010e+000
         vertex 3.0675632e+001 1.6755485e+001 5.0000010e+000
         vertex 3.3546908e+001 1.6306391e+001 5.0000010e+000
      endloop
   endfacet
   facet normal 0.0000000e+000 0.0000000e+000 -1.0000000e+000
      outer loop
         vertex 3.3369058e+001 1.5317456e+001 5.0000010e+000
         vertex 3.3546908e+001 1.6306391e+001 5.0000010e+000
         vertex 3.6453092e+001 1.6306391e+001 5.0000010e+000
      endloop
   endfacet
   facet normal 0.0000000e+000 0.0000000e+000 -1.0000000e+000
      outer loop
         vertex 3.3369058e+001 1.5317456e+001 5.0000010e+000
         vertex 3.6453092e+001 1.6306391e+001 5.0000010e+000
         vertex 3.6630942e+001 1.5317456e+001 5.0000010e+000
      endloop
   endfacet
   facet normal 0.0000000e+000 0.0000000e+000 -1.0000000e+000
      outer loop
         vertex 3.6630942e+001 1.5317456e+001 5.0000010e+000
         vertex 3.6453092e+001 1.6306391e+001 5.0000010e+000
         vertex 3.9324368e+001 1.6755485e+001 5.0000010e+000
      endloop
   endfacet
   facet normal 0.0000000e+000 0.0000000e+000 -1.0000000e+000
      outer loop
         vertex 3.6630942e+001 1.5317456e+001 5.0000010e+000
         vertex 3.9324368e+001 1.6755485e+001 5.0000010e+000
         vertex 3.9848338e+001 1.5854345e+001 5.0000010e+000
      endloop
   endfacet
   facet normal 0.0000000e+000 0.0000000e+000 -1.0000000e+000
      outer loop
         vertex 3.9848338e+001 1.5854345e+001 5.0000010e+000
         vertex 3.9324368e+001 1.6755485e+001 5.0000010e+000
         vertex 4.2091756e+001 1.7642883e+001 5.0000010e+000
      endloop
   endfacet
   facet normal 0.0000000e+000 0.0000000e+000 -1.0000000e+000
      outer loop
         vertex 3.9848338e+001 1.5854345e+001 5.0000010e+000
         vertex 4.2091756e+001 1.7642883e+001 5.0000010e+000
         vertex 4.2933485e+001 1.6913477e+001 5.0000010e+000
      endloop
   endfacet
   facet normal -2.1650928e-016 -2.4984996e-016 -1.0000000e+000
      outer loop
         vertex 4.2933485e+001 1.6913477e+001 5.0000010e+000
         vertex 4.2091756e+001 1.7642883e+001 5.0000010e+000
         vertex 4.4688771e+001 1.8947268e+001 5.0000010e+000
      endloop
   endfacet
   facet normal 4.4346172e-016 -8.1944549e-016 -1.0000000e+000
      outer loop
         vertex 4.2933485e+001 1.6913477e+001 5.0000010e+000
         vertex 4.4688771e+001 1.8947268e+001 5.0000010e+000
         vertex 4.5802226e+001 1.8465962e+001 5.0000010e+000
      endloop
   endfacet
   facet normal 8.9156434e-016 2.1719726e-016 -1.0000000e+000
      outer loop
         vertex 4.5802226e+001 1.8465962e+001 5.0000010e+000
         vertex 4.4688771e+001 1.8947268e+001 5.0000010e+000
         vertex 4.5550342e+001 1.9499910e+001 5.0000010e+000
      endloop
   endfacet
   facet normal 0.0000000e+000 0.0000000e+000 -1.0000000e+000
      outer loop
         vertex 4.5802226e+001 1.8465962e+001 5.0000010e+000
         vertex 4.5550342e+001 1.9499910e+001 5.0000010e+000
         vertex 4.8376311e+001 2.0469453e+001 5.0000010e+000
      endloop
   endfacet
   facet normal -0.0000000e+000 0.0000000e+000 -1.0000000e+000
      outer loop
         vertex 4.8376311e+001 2.0469453e+001 5.0000010e+000
         vertex 4.5550342e+001 1.9499910e+001 5.0000010e+000
         vertex 4.7964465e+001 2.1454331e+001 5.0000010e+000
      endloop
   endfacet
   facet normal 0.0000000e+000 0.0000000e+000 -1.0000000e+000
      outer loop
         vertex 4.8376311e+001 2.0469453e+001 5.0000010e+000
         vertex 4.7964465e+001 2.1454331e+001 5.0000010e+000
         vertex 5.0585525e+001 2.2869299e+001 5.0000010e+000
      endloop
   endfacet
   facet normal -0.0000000e+000 0.0000000e+000 -1.0000000e+000
      outer loop
         vertex 5.0585525e+001 2.2869299e+001 5.0000010e+000
         vertex 4.7964465e+001 2.1454331e+001 5.0000010e+000
         vertex 5.0022811e+001 2.3780479e+001 5.0000010e+000
      endloop
   endfacet
   facet normal 0.0000000e+000 0.0000000e+000 -1.0000000e+000
      outer loop
         vertex 5.0585525e+001 2.2869299e+001 5.0000010e+000
         vertex 5.0022811e+001 2.3780479e+001 5.0000010e+000
         vertex 5.2369607e+001 2.5600039e+001 5.0000010e+000
      endloop
   endfacet
   facet normal -0.0000000e+000 0.0000000e+000 -1.0000000e+000
      outer loop
         vertex 5.2369607e+001 2.5600039e+001 5.0000010e+000
         vertex 5.0022811e+001 2.3780479e+001 5.0000010e+000
         vertex 5.1668893e+001 2.6414518e+001 5.0000010e+000
      endloop
   endfacet
   facet normal 0.0000000e+000 0.0000000e+000 -1.0000000e+000
      outer loop
         vertex 5.2369607e+001 2.5600039e+001 5.0000010e+000
         vertex 5.1668893e+001 2.6414518e+001 5.0000010e+000
         vertex 5.3679891e+001 2.8587185e+001 5.0000010e+000
      endloop
   endfacet
   facet normal -0.0000000e+000 0.0000000e+000 -1.0000000e+000
      outer loop
         vertex 5.3679891e+001 2.8587185e+001 5.0000010e+000
         vertex 5.1668893e+001 2.6414518e+001 5.0000010e+000
         vertex 5.2857540e+001 2.9284165e+001 5.0000010e+000
      endloop
   endfacet
   facet normal 0.0000000e+000 0.0000000e+000 -1.0000000e+000
      outer loop
         vertex 5.3679891e+001 2.8587185e+001 5.0000010e+000
         vertex 5.2857540e+001 2.9284165e+001 5.0000010e+000
         vertex 5.4480636e+001 3.1749257e+001 5.0000010e+000
      endloop
   endfacet
   facet normal -0.0000000e+000 0.0000000e+000 -1.0000000e+000
      outer loop
         vertex 5.4480636e+001 3.1749257e+001 5.0000010e+000
         vertex 5.2857540e+001 2.9284165e+001 5.0000010e+000
         vertex 5.3556131e+001 3.2310668e+001 5.0000010e+000
      endloop
   endfacet
   facet normal 0.0000000e+000 0.0000000e+000 -1.0000000e+000
      outer loop
         vertex 5.4480636e+001 3.1749257e+001 5.0000010e+000
         vertex 5.3556131e+001 3.2310668e+001 5.0000010e+000
         vertex 5.4750000e+001 3.5000000e+001 5.0000010e+000
      endloop
   endfacet
   facet normal -0.0000000e+000 0.0000000e+000 -1.0000000e+000
      outer loop
         vertex 5.4750000e+001 3.5000000e+001 5.0000010e+000
         vertex 5.3556131e+001 3.2310668e+001 5.0000010e+000
         vertex 5.3745495e+001 3.5410973e+001 5.0000010e+000
      endloop
   endfacet
   facet normal 0.0000000e+000 0.0000000e+000 -1.0000000e+000
      outer loop
         vertex 5.4750000e+001 3.5000000e+001 5.0000010e+000
         vertex 5.3745495e+001 3.5410973e+001 5.0000010e+000
         vertex 5.3420437e+001 3.8500000e+001 5.0000010e+000
      endloop
   endfacet
   facet normal 6.8723095e-016 5.3575345e-016 -1.0000000e+000
      outer loop
         vertex 4.5550342e+001 1.9499910e+001 5.0000010e+000
         vertex 4.4688771e+001 1.8947268e+001 5.0000010e+000
         vertex 3.9686908e+001 2.5363345e+001 5.0000010e+000
      endloop
   endfacet
   facet normal -6.9310154e-015 -5.4033006e-015 -1.0000000e+000
      outer loop
         vertex 3.9686908e+001 2.5363345e+001 5.0000010e+000
         vertex 4.4688771e+001 1.8947268e+001 5.0000010e+000
         vertex 3.8875000e+001 2.4761039e+001 5.0000010e+000
      endloop
   endfacet
   facet normal -8.5363964e-015 -3.2392491e-015 -1.0000000e+000
      outer loop
         vertex 3.9686908e+001 2.5363345e+001 5.0000010e+000
         vertex 3.8875000e+001 2.4761039e+001 5.0000010e+000
         vertex 3.8361186e+001 2.6389285e+001 5.0000010e+000
      endloop
   endfacet
   facet normal -2.7045043e-016 -6.3082564e-016 -1.0000000e+000
      outer loop
         vertex 3.8361186e+001 2.6389285e+001 5.0000010e+000
         vertex 3.8875000e+001 2.4761039e+001 5.0000010e+000
         vertex 3.6820479e+001 2.7049824e+001 5.0000010e+000
      endloop
   endfacet
   facet normal 2.0449362e-016 -2.0449362e-016 -1.0000000e+000
      outer loop
         vertex 3.6820479e+001 2.7049824e+001 5.0000010e+000
         vertex 3.8875000e+001 2.4761039e+001 5.0000010e+000
         vertex 3.5000000e+001 2.0886039e+001 5.0000010e+000
      endloop
   endfacet
   facet normal -2.1041402e-017 -1.3788167e-016 -1.0000000e+000
      outer loop
         vertex 3.6820479e+001 2.7049824e+001 5.0000010e+000
         vertex 3.5000000e+001 2.0886039e+001 5.0000010e+000
         vertex 3.5163332e+001 2.7302713e+001 5.0000010e+000
      endloop
   endfacet
   facet normal 5.4822947e-016 -1.5237202e-016 -1.0000000e+000
      outer loop
         vertex 3.5163332e+001 2.7302713e+001 5.0000010e+000
         vertex 3.5000000e+001 2.0886039e+001 5.0000010e+000
         vertex 3.3495737e+001 2.7131776e+001 5.0000010e+000
      endloop
   endfacet
   facet normal 8.3305697e-016 -8.3772369e-017 -1.0000000e+000
      outer loop
         vertex 3.3495737e+001 2.7131776e+001 5.0000010e+000
         vertex 3.5000000e+001 2.0886039e+001 5.0000010e+000
         vertex 3.1125000e+001 2.4761039e+001 5.0000010e+000
      endloop
   endfacet
   facet normal -0.0000000e+000 -0.0000000e+000 -1.0000000e+000
      outer loop
         vertex 4.5000000e+001 6.5000000e+001 5.0000010e+000
         vertex 4.5000000e+001 4.3500000e+001 5.0000010e+000
         vertex 2.5000000e+001 6.5000000e+001 5.0000010e+000
      endloop
   endfacet
   facet normal -0.0000000e+000 -0.0000000e+000 -1.0000000e+000
      outer loop
         vertex 2.5000000e+001 6.5000000e+001 5.0000010e+000
         vertex 4.5000000e+001 4.3500000e+001 5.0000010e+000
         vertex 2.5000000e+001 4.3500000e+001 5.0000010e+000
      endloop
   endfacet
   facet normal -0.0000000e+000 1.0000000e+000 0.0000000e+000
      outer loop
         vertex 4.5000000e+001 4.3500000e+001 5.0000010e+000
         vertex 4.5000000e+001 4.3500000e+001 8.0000010e+000
         vertex 5.4750000e+001 4.3500000e+001 5.0000010e+000
      endloop
   endfacet
   facet normal 0.0000000e+000 1.0000000e+000 -0.0000000e+000
      outer loop
         vertex 5.4750000e+001 4.3500000e+001 5.0000010e+000
         vertex 4.5000000e+001 4.3500000e+001 8.0000010e+000
         vertex 5.4750000e+001 4.3500000e+001 8.0000010e+000
      endloop
   endfacet
   facet normal 0.0000000e+000 1.0000000e+000 0.0000000e+000
      outer loop
         vertex 2.5000000e+001 4.3500000e+001 8.0000010e+000
         vertex 2.5000000e+001 4.3500000e+001 5.0000010e+000
         vertex 1.5250000e+001 4.3500000e+001 8.0000010e+000
      endloop
   endfacet
   facet normal 0.0000000e+000 1.0000000e+000 0.0000000e+000
      outer loop
         vertex 1.5250000e+001 4.3500000e+001 8.0000010e+000
         vertex 2.5000000e+001 4.3500000e+001 5.0000010e+000
         vertex 1.5250000e+001 4.3500000e+001 5.0000010e+000
      endloop
   endfacet
   facet normal 1.0000000e+000 -0.0000000e+000 0.0000000e+000
      outer loop
         vertex 5.4750000e+001 3.5000000e+001 8.0000010e+000
         vertex 5.4750000e+001 3.5000000e+001 5.0000010e+000
         vertex 5.4750000e+001 4.3500000e+001 8.0000010e+000
      endloop
   endfacet
   facet normal 1.0000000e+000 -0.0000000e+000 0.0000000e+000
      outer loop
         vertex 5.4750000e+001 4.3500000e+001 8.0000010e+000
         vertex 5.4750000e+001 3.5000000e+001 5.0000010e+000
         vertex 5.4750000e+001 4.3500000e+001 5.0000010e+000
      endloop
   endfacet
   facet normal -1.0000000e+000 -0.0000000e+000 -0.0000000e+000
      outer loop
         vertex 1.5250000e+001 4.3500000e+001 8.0000010e+000
         vertex 1.5250000e+001 4.3500000e+001 5.0000010e+000
         vertex 1.5250000e+001 3.5000000e+001 8.0000010e+000
      endloop
   endfacet
   facet normal -1.0000000e+000 -0.0000000e+000 -0.0000000e+000
      outer loop
         vertex 1.5250000e+001 3.5000000e+001 8.0000010e+000
         vertex 1.5250000e+001 4.3500000e+001 5.0000010e+000
         vertex 1.5250000e+001 3.5000000e+001 5.0000010e+000
      endloop
   endfacet
   facet normal 9.9658449e-001 -8.2579345e-002 0.0000000e+000
      outer loop
         vertex 5.4750000e+001 3.5000000e+001 8.0000010e+000
         vertex 5.4480636e+001 3.1749257e+001 8.0000010e+000
         vertex 5.4750000e+001 3.5000000e+001 5.0000010e+000
      endloop
   endfacet
   facet normal 9.9658449e-001 -8.2579345e-002 3.9117436e-016
      outer loop
         vertex 5.4750000e+001 3.5000000e+001 5.0000010e+000
         vertex 5.4480636e+001 3.1749257e+001 8.0000010e+000
         vertex 5.4480636e+001 3.1749257e+001 5.0000010e+000
      endloop
   endfacet
   facet normal 9.6940027e-001 -2.4548549e-001 1.1628529e-015
      outer loop
         vertex 5.4480636e+001 3.1749257e+001 5.0000010e+000
         vertex 5.4480636e+001 3.1749257e+001 8.0000010e+000
         vertex 5.3679891e+001 2.8587185e+001 8.0000010e+000
      endloop
   endfacet
   facet normal 9.6940027e-001 -2.4548549e-001 0.0000000e+000
      outer loop
         vertex 5.4480636e+001 3.1749257e+001 5.0000010e+000
         vertex 5.3679891e+001 2.8587185e+001 8.0000010e+000
         vertex 5.3679891e+001 2.8587185e+001 5.0000010e+000
      endloop
   endfacet
   facet normal 9.1577333e-001 -4.0169542e-001 0.0000000e+000
      outer loop
         vertex 5.3679891e+001 2.8587185e+001 5.0000010e+000
         vertex 5.3679891e+001 2.8587185e+001 8.0000010e+000
         vertex 5.2369607e+001 2.5600039e+001 8.0000010e+000
      endloop
   endfacet
   facet normal 9.1577333e-001 -4.0169542e-001 -9.5140589e-016
      outer loop
         vertex 5.3679891e+001 2.8587185e+001 5.0000010e+000
         vertex 5.2369607e+001 2.5600039e+001 8.0000010e+000
         vertex 5.2369607e+001 2.5600039e+001 5.0000010e+000
      endloop
   endfacet
   facet normal 8.3716648e-001 -5.4694816e-001 -1.2954335e-015
      outer loop
         vertex 5.2369607e+001 2.5600039e+001 5.0000010e+000
         vertex 5.2369607e+001 2.5600039e+001 8.0000010e+000
         vertex 5.0585525e+001 2.2869299e+001 8.0000010e+000
      endloop
   endfacet
   facet normal 8.3716648e-001 -5.4694816e-001 1.2954335e-015
      outer loop
         vertex 5.2369607e+001 2.5600039e+001 5.0000010e+000
         vertex 5.0585525e+001 2.2869299e+001 8.0000010e+000
         vertex 5.0585525e+001 2.2869299e+001 5.0000010e+000
      endloop
   endfacet
   facet normal 7.3572391e-001 -6.7728157e-001 1.6041250e-015
      outer loop
         vertex 5.0585525e+001 2.2869299e+001 5.0000010e+000
         vertex 5.0585525e+001 2.2869299e+001 8.0000010e+000
         vertex 4.8376311e+001 2.0469453e+001 8.0000010e+000
      endloop
   endfacet
   facet normal 7.3572391e-001 -6.7728157e-001 0.0000000e+000
      outer loop
         vertex 5.0585525e+001 2.2869299e+001 5.0000010e+000
         vertex 4.8376311e+001 2.0469453e+001 8.0000010e+000
         vertex 4.8376311e+001 2.0469453e+001 5.0000010e+000
      endloop
   endfacet
   facet normal 6.1421271e-001 -7.8914051e-001 0.0000000e+000
      outer loop
         vertex 4.8376311e+001 2.0469453e+001 5.0000010e+000
         vertex 4.8376311e+001 2.0469453e+001 8.0000010e+000
         vertex 4.5802226e+001 1.8465962e+001 8.0000010e+000
      endloop
   endfacet
   facet normal 6.1421271e-001 -7.8914051e-001 0.0000000e+000
      outer loop
         vertex 4.8376311e+001 2.0469453e+001 5.0000010e+000
         vertex 4.5802226e+001 1.8465962e+001 8.0000010e+000
         vertex 4.5802226e+001 1.8465962e+001 5.0000010e+000
      endloop
   endfacet
   facet normal 4.7594739e-001 -8.7947375e-001 0.0000000e+000
      outer loop
         vertex 4.5802226e+001 1.8465962e+001 5.0000010e+000
         vertex 4.5802226e+001 1.8465962e+001 8.0000010e+000
         vertex 4.2933485e+001 1.6913477e+001 8.0000010e+000
      endloop
   endfacet
   facet normal 4.7594739e-001 -8.7947375e-001 -1.7152747e-016
      outer loop
         vertex 4.5802226e+001 1.8465962e+001 5.0000010e+000
         vertex 4.2933485e+001 1.6913477e+001 8.0000010e+000
         vertex 4.2933485e+001 1.6913477e+001 5.0000010e+000
      endloop
   endfacet
   facet normal 3.2469947e-001 -9.4581724e-001 7.0205957e-016
      outer loop
         vertex 4.2933485e+001 1.6913477e+001 5.0000010e+000
         vertex 4.2933485e+001 1.6913477e+001 8.0000010e+000
         vertex 3.9848338e+001 1.5854345e+001 8.0000010e+000
      endloop
   endfacet
   facet normal 3.2469947e-001 -9.4581724e-001 0.0000000e+000
      outer loop
         vertex 4.2933485e+001 1.6913477e+001 5.0000010e+000
         vertex 3.9848338e+001 1.5854345e+001 8.0000010e+000
         vertex 3.9848338e+001 1.5854345e+001 5.0000010e+000
      endloop
   endfacet
   facet normal 1.6459459e-001 -9.8636130e-001 0.0000000e+000
      outer loop
         vertex 3.9848338e+001 1.5854345e+001 5.0000010e+000
         vertex 3.9848338e+001 1.5854345e+001 8.0000010e+000
         vertex 3.6630942e+001 1.5317456e+001 8.0000010e+000
      endloop
   endfacet
   facet normal 1.6459459e-001 -9.8636130e-001 -3.8983830e-016
      outer loop
         vertex 3.9848338e+001 1.5854345e+001 5.0000010e+000
         vertex 3.6630942e+001 1.5317456e+001 8.0000010e+000
         vertex 3.6630942e+001 1.5317456e+001 5.0000010e+000
      endloop
   endfacet
   facet normal -0.0000000e+000 -1.0000000e+000 0.0000000e+000
      outer loop
         vertex 3.6630942e+001 1.5317456e+001 5.0000010e+000
         vertex 3.6630942e+001 1.5317456e+001 8.0000010e+000
         vertex 3.3369058e+001 1.5317456e+001 8.0000010e+000
      endloop
   endfacet
   facet normal -0.0000000e+000 -1.0000000e+000 0.0000000e+000
      outer loop
         vertex 3.6630942e+001 1.5317456e+001 5.0000010e+000
         vertex 3.3369058e+001 1.5317456e+001 8.0000010e+000
         vertex 3.3369058e+001 1.5317456e+001 5.0000010e+000
      endloop
   endfacet
   facet normal -1.6459459e-001 -9.8636130e-001 3.8983830e-016
      outer loop
         vertex 3.3369058e+001 1.5317456e+001 5.0000010e+000
         vertex 3.3369058e+001 1.5317456e+001 8.0000010e+000
         vertex 3.0151662e+001 1.5854345e+001 8.0000010e+000
      endloop
   endfacet
   facet normal -1.6459459e-001 -9.8636130e-001 1.9491915e-016
      outer loop
         vertex 3.3369058e+001 1.5317456e+001 5.0000010e+000
         vertex 3.0151662e+001 1.5854345e+001 8.0000010e+000
         vertex 3.0151662e+001 1.5854345e+001 5.0000010e+000
      endloop
   endfacet
   facet normal -3.2469947e-001 -9.4581724e-001 3.8452142e-016
      outer loop
         vertex 3.0151662e+001 1.5854345e+001 5.0000010e+000
         vertex 3.0151662e+001 1.5854345e+001 8.0000010e+000
         vertex 2.7066515e+001 1.6913477e+001 8.0000010e+000
      endloop
   endfacet
   facet normal -3.2469947e-001 -9.4581724e-001 -1.0865810e-015
      outer loop
         vertex 3.0151662e+001 1.5854345e+001 5.0000010e+000
         vertex 2.7066515e+001 1.6913477e+001 8.0000010e+000
         vertex 2.7066515e+001 1.6913477e+001 5.0000010e+000
      endloop
   endfacet
   facet normal -4.7594739e-001 -8.7947375e-001 -3.9210747e-016
      outer loop
         vertex 2.7066515e+001 1.6913477e+001 5.0000010e+000
         vertex 2.7066515e+001 1.6913477e+001 8.0000010e+000
         vertex 2.4197774e+001 1.8465962e+001 8.0000010e+000
      endloop
   endfacet
   facet normal -4.7594739e-001 -8.7947375e-001 5.6363494e-016
      outer loop
         vertex 2.7066515e+001 1.6913477e+001 5.0000010e+000
         vertex 2.4197774e+001 1.8465962e+001 8.0000010e+000
         vertex 2.4197774e+001 1.8465962e+001 5.0000010e+000
      endloop
   endfacet
   facet normal -6.1421271e-001 -7.8914051e-001 7.2737397e-016
      outer loop
         vertex 2.4197774e+001 1.8465962e+001 5.0000010e+000
         vertex 2.4197774e+001 1.8465962e+001 8.0000010e+000
         vertex 2.1623689e+001 2.0469453e+001 8.0000010e+000
      endloop
   endfacet
   facet normal -6.1421271e-001 -7.8914051e-001 7.2737397e-016
      outer loop
         vertex 2.4197774e+001 1.8465962e+001 5.0000010e+000
         vertex 2.1623689e+001 2.0469453e+001 8.0000010e+000
         vertex 2.1623689e+001 2.0469453e+001 5.0000010e+000
      endloop
   endfacet
   facet normal -7.3572391e-001 -6.7728157e-001 8.7127213e-016
      outer loop
         vertex 2.1623689e+001 2.0469453e+001 5.0000010e+000
         vertex 2.1623689e+001 2.0469453e+001 8.0000010e+000
         vertex 1.9414475e+001 2.2869299e+001 8.0000010e+000
      endloop
   endfacet
   facet normal -7.3572391e-001 -6.7728157e-001 -7.3285287e-016
      outer loop
         vertex 2.1623689e+001 2.0469453e+001 5.0000010e+000
         vertex 1.9414475e+001 2.2869299e+001 8.0000010e+000
         vertex 1.9414475e+001 2.2869299e+001 5.0000010e+000
      endloop
   endfacet
   facet normal -8.3716648e-001 -5.4694816e-001 -3.0402920e-016
      outer loop
         vertex 1.9414475e+001 2.2869299e+001 5.0000010e+000
         vertex 1.9414475e+001 2.2869299e+001 8.0000010e+000
         vertex 1.7630393e+001 2.5600039e+001 8.0000010e+000
      endloop
   endfacet
   facet normal -8.3716648e-001 -5.4694816e-001 1.2954335e-015
      outer loop
         vertex 1.9414475e+001 2.2869299e+001 5.0000010e+000
         vertex 1.7630393e+001 2.5600039e+001 8.0000010e+000
         vertex 1.7630393e+001 2.5600039e+001 5.0000010e+000
      endloop
   endfacet
   facet normal -9.1577333e-001 -4.0169542e-001 9.5140589e-016
      outer loop
         vertex 1.7630393e+001 2.5600039e+001 5.0000010e+000
         vertex 1.7630393e+001 2.5600039e+001 8.0000010e+000
         vertex 1.6320109e+001 2.8587185e+001 8.0000010e+000
      endloop
   endfacet
   facet normal -9.1577333e-001 -4.0169542e-001 -0.0000000e+000
      outer loop
         vertex 1.7630393e+001 2.5600039e+001 5.0000010e+000
         vertex 1.6320109e+001 2.8587185e+001 8.0000010e+000
         vertex 1.6320109e+001 2.8587185e+001 5.0000010e+000
      endloop
   endfacet
   facet normal -9.6940027e-001 -2.4548549e-001 0.0000000e+000
      outer loop
         vertex 1.6320109e+001 2.8587185e+001 5.0000010e+000
         vertex 1.6320109e+001 2.8587185e+001 8.0000010e+000
         vertex 1.5519364e+001 3.1749257e+001 8.0000010e+000
      endloop
   endfacet
   facet normal -9.6940027e-001 -2.4548549e-001 -1.1628529e-015
      outer loop
         vertex 1.6320109e+001 2.8587185e+001 5.0000010e+000
         vertex 1.5519364e+001 3.1749257e+001 8.0000010e+000
         vertex 1.5519364e+001 3.1749257e+001 5.0000010e+000
      endloop
   endfacet
   facet normal -9.9658449e-001 -8.2579345e-002 -3.9117436e-016
      outer loop
         vertex 1.5519364e+001 3.1749257e+001 5.0000010e+000
         vertex 1.5519364e+001 3.1749257e+001 8.0000010e+000
         vertex 1.5250000e+001 3.5000000e+001 8.0000010e+000
      endloop
   endfacet
   facet normal -9.9658449e-001 -8.2579345e-002 -0.0000000e+000
      outer loop
         vertex 1.5519364e+001 3.1749257e+001 5.0000010e+000
         vertex 1.5250000e+001 3.5000000e+001 8.0000010e+000
         vertex 1.5250000e+001 3.5000000e+001 5.0000010e+000
      endloop
   endfacet
   facet normal -1.0000000e+000 0.0000000e+000 0.0000000e+000
      outer loop
         vertex 2.5000000e+001 4.3500000e+001 5.0000010e+000
         vertex 2.5000000e+001 4.3500000e+001 8.0000010e+000
         vertex 2.5000000e+001 6.5000000e+001 5.0000010e+000
      endloop
   endfacet
   facet normal -1.0000000e+000 0.0000000e+000 0.0000000e+000
      outer loop
         vertex 2.5000000e+001 6.5000000e+001 5.0000010e+000
         vertex 2.5000000e+001 4.3500000e+001 8.0000010e+000
         vertex 2.5000000e+001 7.0000000e+001 8.0000010e+000
      endloop
   endfacet
   facet normal -1.0000000e+000 0.0000000e+000 0.0000000e+000
      outer loop
         vertex 2.5000000e+001 6.5000000e+001 5.0000010e+000
         vertex 2.5000000e+001 7.0000000e+001 8.0000010e+000
         vertex 2.5000000e+001 7.0000000e+001 1.0000000e-006
      endloop
   endfacet
   facet normal -1.0000000e+000 0.0000000e+000 0.0000000e+000
      outer loop
         vertex 2.5000000e+001 7.0000000e+001 1.0000000e-006
         vertex 2.5000000e+001 6.5000000e+001 1.0000000e-006
         vertex 2.5000000e+001 6.5000000e+001 5.0000010e+000
      endloop
   endfacet
   facet normal 0.0000000e+000 -1.0000000e+000 0.0000000e+000
      outer loop
         vertex 2.5000000e+001 6.5000000e+001 5.0000010e+000
         vertex 2.5000000e+001 6.5000000e+001 1.0000000e-006
         vertex 4.5000000e+001 6.5000000e+001 5.0000010e+000
      endloop
   endfacet
   facet normal 0.0000000e+000 -1.0000000e+000 -0.0000000e+000
      outer loop
         vertex 4.5000000e+001 6.5000000e+001 5.0000010e+000
         vertex 2.5000000e+001 6.5000000e+001 1.0000000e-006
         vertex 4.5000000e+001 6.5000000e+001 1.0000000e-006
      endloop
   endfacet
   facet normal 4.4408921e-017 0.0000000e+000 -1.0000000e+000
      outer loop
         vertex 4.5000000e+001 7.0000000e+001 1.0000000e-006
         vertex 4.5000000e+001 6.5000000e+001 1.0000000e-006
         vertex 2.5000000e+001 7.0000000e+001 1.0000000e-006
      endloop
   endfacet
   facet normal 4.4408921e-017 0.0000000e+000 -1.0000000e+000
      outer loop
         vertex 2.5000000e+001 7.0000000e+001 1.0000000e-006
         vertex 4.5000000e+001 6.5000000e+001 1.0000000e-006
         vertex 2.5000000e+001 6.5000000e+001 1.0000000e-006
      endloop
   endfacet
   facet normal 1.0000000e+000 0.0000000e+000 -0.0000000e+000
      outer loop
         vertex 4.5000000e+001 6.5000000e+001 1.0000000e-006
         vertex 4.5000000e+001 7.0000000e+001 1.0000000e-006
         vertex 4.5000000e+001 6.5000000e+001 5.0000010e+000
      endloop
   endfacet
   facet normal 1.0000000e+000 -0.0000000e+000 0.0000000e+000
      outer loop
         vertex 4.5000000e+001 6.5000000e+001 5.0000010e+000
         vertex 4.5000000e+001 7.0000000e+001 1.0000000e-006
         vertex 4.5000000e+001 7.0000000e+001 8.0000010e+000
      endloop
   endfacet
   facet normal 1.0000000e+000 0.0000000e+000 -0.0000000e+000
      outer loop
         vertex 4.5000000e+001 6.5000000e+001 5.0000010e+000
         vertex 4.5000000e+001 7.0000000e+001 8.0000010e+000
         vertex 4.5000000e+001 4.3500000e+001 8.0000010e+000
      endloop
   endfacet
   facet normal 1.0000000e+000 -0.0000000e+000 0.0000000e+000
      outer loop
         vertex 4.5000000e+001 4.3500000e+001 8.0000010e+000
         vertex 4.5000000e+001 4.3500000e+001 5.0000010e+000
         vertex 4.5000000e+001 6.5000000e+001 5.0000010e+000
      endloop
   endfacet
   facet normal 0.0000000e+000 1.0000000e+000 0.0000000e+000
      outer loop
         vertex 4.5000000e+001 7.0000000e+001 8.0000010e+000
         vertex 4.5000000e+001 7.0000000e+001 1.0000000e-006
         vertex 2.5000000e+001 7.0000000e+001 8.0000010e+000
      endloop
   endfacet
   facet normal 0.0000000e+000 1.0000000e+000 0.0000000e+000
      outer loop
         vertex 2.5000000e+001 7.0000000e+001 8.0000010e+000
         vertex 4.5000000e+001 7.0000000e+001 1.0000000e-006
         vertex 2.5000000e+001 7.0000000e+001 1.0000000e-006
      endloop
   endfacet
endsolid AutoCAD
